<svg width="247" height="239" viewBox="0 0 247 239" fill="none" xmlns="http://www.w3.org/2000/svg">
<path fill-rule="evenodd" clip-rule="evenodd" d="M170.287 201.638C158.493 204.211 146.699 206.785 134.905 209.359C133.244 209.721 131.584 210.083 129.924 210.446C130.418 195.25 130.912 180.054 131.406 164.859C131.477 162.664 131.548 160.469 131.62 158.275C128.887 160.663 126.018 162.953 123.404 165.468C120.056 168.688 116.838 172.02 113.393 175.144C107.466 180.518 101.24 185.73 94.377 189.879C86.92 194.387 78.3178 197.287 69.6591 198.289C66.4696 198.658 63.582 198.567 60.4224 198.239C57.6729 197.953 54.9237 197.667 52.1741 197.381C51.0669 197.266 49.9591 197.15 48.8515 197.035C48.5841 197.008 47.7134 197.07 47.4999 196.89C47.1124 196.564 46.9102 195.083 46.7575 194.612C46.1213 192.653 45.489 190.694 44.8608 188.732C43.1532 183.402 41.4697 178.064 39.844 172.708C38.4517 168.123 36.988 163.519 35.9483 158.838C35.8266 158.289 35.5595 157.571 35.6047 157.003C35.6703 156.175 35.2771 156.349 36.3714 156.338C38.9436 156.309 41.6636 156.933 44.2385 157.116C46.8899 157.304 49.5467 157.415 52.2047 157.442C66.2807 157.585 82.4819 156.062 93.8848 146.962C97.7079 143.911 101.548 140.384 104.511 136.462C108.688 130.931 110.965 123.567 111.52 116.742C112.144 109.074 110.849 101.165 108.963 93.7419C108.58 92.2398 108.667 91.6776 108.995 90.1058C109.267 88.801 109.539 87.4959 109.811 86.1911C109.887 85.8288 109.969 84.3065 110.268 84.083C110.793 83.6928 113.325 84.1215 113.94 84.1292L121.566 84.2245C126.478 84.2856 131.39 84.347 136.301 84.4085C138.852 84.4403 141.4 84.8382 143.935 85.1015C149.369 85.6651 154.803 86.2293 160.236 86.7929C161.325 86.9061 162.414 87.0194 163.503 87.1319C162.805 93.3068 162.108 99.4814 161.409 105.656C160.889 110.26 162.704 114.826 163.671 119.326C165.85 129.466 167.973 139.754 168.78 150.109C169.541 159.859 169.533 169.713 169.781 179.487C169.968 186.87 170.138 194.253 170.287 201.638Z" fill="#BF1235"/>
<path fill-rule="evenodd" clip-rule="evenodd" d="M94.4578 15.2819C94.4578 14.7151 94.6271 14.3181 94.9457 13.8483C95.6818 14.4867 96.8345 17.6524 98.0611 15.6086C98.3049 15.2022 98.3162 13.6882 99.1527 14.1606C99.5458 14.3824 99.4384 15.4509 99.4105 15.813C99.311 17.1023 98.7246 18.901 97.059 18.8275C95.3591 18.7527 94.4119 16.6922 94.4578 15.2819Z" fill="black"/>
<path fill-rule="evenodd" clip-rule="evenodd" d="M95.4836 12.4498C92.6565 12.9704 93.7847 10.4311 95.8554 10.2203C96.623 10.1422 97.9471 10.1832 97.7651 11.3149C97.6042 12.3158 96.2306 12.312 95.4836 12.4498Z" fill="black"/>
<path fill-rule="evenodd" clip-rule="evenodd" d="M87.6507 20.8182C86.7607 20.9024 85.2939 19.6494 86.772 19.4967C87.4544 19.4263 88.8879 20.7005 87.6507 20.8182Z" fill="black"/>
<path fill-rule="evenodd" clip-rule="evenodd" d="M242.871 35.6666C242.189 36.187 240.148 34.5126 239.481 34.2167C236.883 33.0644 233.896 32.4268 231.103 31.9299C225.576 30.9466 219.91 30.3927 214.298 30.2164C210.875 30.1084 207.634 30.228 204.248 30.5923C203.405 30.6829 197.702 31.6331 197.563 30.0722C197.317 27.3315 212.403 27.4613 213.839 27.4663C220.371 27.4886 226.27 28.2122 232.614 29.6332C234.33 30.0174 244.883 34.1277 242.871 35.6666Z" fill="black"/>
<path fill-rule="evenodd" clip-rule="evenodd" d="M62.521 80.9517C59.086 81.9663 55.1667 81.8278 51.9439 80.1932C51.3901 79.9126 50.0445 79.3159 50.7576 78.6145C51.5245 77.8603 53.6727 79.1399 54.5092 79.3036C58.5688 80.0989 63.716 78.5228 66.5916 75.5669C68.0191 74.1004 68.8246 72.2467 69.1645 70.2501C69.3581 69.1114 69.4575 67.9069 69.3877 66.7526C69.3142 65.5295 68.8133 64.2147 69.1486 62.9976C70.6462 63.8843 70.6635 66.2189 70.7703 67.7266C70.9046 69.6275 70.893 71.4553 70.3585 73.3074C69.258 77.1207 66.3036 79.8346 62.521 80.9517Z" fill="black"/>
<path fill-rule="evenodd" clip-rule="evenodd" d="M1.14622 182.529C1.25531 182.82 1.35807 183.092 1.47781 183.413C1.94111 182.563 1.94111 182.563 1.14622 182.529ZM5.46359 204.716C7.18176 205.509 9.09616 203.379 10.0108 202.194C11.5354 200.216 12.2139 197.937 12.8149 195.556C13.4797 192.922 14.248 190.319 14.866 187.673C15.1407 186.493 15.4038 185.309 15.7127 184.137C15.9685 183.168 16.9217 181.44 16.5206 180.433C15.8421 178.731 12.5099 178.262 12.737 175.979C12.9456 173.88 16.6124 176.121 17.4928 176.566C19.5039 177.584 18.4579 176.3 17.4864 175.556C16.7504 174.992 13.3261 172.551 15.1184 171.32C16.2818 170.521 18.8122 172.954 19.7763 173.403C20.7887 173.873 21.1576 173.75 21.9784 172.92C22.5625 172.33 23.4305 171.583 23.8818 170.906C24.9967 169.232 23.503 165.952 23.2735 164.034C23.2223 163.608 23.5439 161.269 23.2456 160.992C22.8528 160.628 21.1722 160.885 20.5546 160.792C18.3399 160.459 16.1547 160.209 13.9364 159.932C12.471 159.749 8.11235 158.648 7.24961 160.165C6.56513 161.368 6.78431 163.678 6.78398 164.965C6.78298 167.673 6.77433 170.323 6.5179 173.04C5.95715 178.973 5.53643 184.904 4.9963 190.837C4.73388 193.718 4.19109 196.564 3.91903 199.444C3.75008 201.229 3.48334 203.803 5.46359 204.716ZM38.8279 160.898C40.4546 164.96 41.8006 169.146 43.2078 173.286C43.8586 175.201 44.459 177.134 45.1195 179.045C45.7521 180.876 46.7695 182.525 47.2913 184.396C48.2765 187.932 49.1053 191.443 50.272 194.918C50.44 195.419 50.3415 196.527 50.6428 196.88C51.0134 197.315 52.6537 197.25 53.2347 197.323C55.6108 197.622 58.0111 197.852 60.4087 197.752C58.1654 194.928 55.649 192.335 53.0698 189.81C50.8111 187.599 47.7606 185.087 47.3931 181.717C46.9039 177.24 51.5828 178.14 54.4939 178.411C58.5549 178.79 63.1579 180.433 67.2222 179.522C64.4052 175.719 60.1353 172.882 56.5992 169.786C55.22 168.578 53.7692 167.251 53.0648 165.514C52.7063 164.628 52.5276 163.607 52.7711 162.667C53.0668 161.525 53.723 161.318 54.6745 160.779C49.0324 160.779 43.3265 160.578 37.9521 158.643C37.7386 159.542 38.5255 160.143 38.8279 160.898ZM64.052 196.781C65.0374 198.119 66.8125 197.755 68.2735 197.67C70.4184 197.546 72.5576 197.286 74.6636 196.857C76.7892 196.423 78.9218 195.842 80.9499 195.065C81.3763 194.901 82.7037 194.528 82.86 194.015C83.0017 193.551 82.1829 192.6 82.0042 192.246C81.4355 191.114 81.1535 189.099 82.4383 188.292C83.4989 187.625 85.0654 188.293 86.1354 188.607C87.7202 189.074 89.6106 190.016 91.22 189.299C93.2734 188.385 95.3069 187.07 97.2376 185.919C93.7501 182.755 90.3247 179.528 86.7483 176.462C83.4723 173.652 79.5261 170.419 77.4787 166.55C76.7074 165.092 76.2082 163.027 77.1541 161.509C78.0018 160.148 79.7117 160.1 81.1528 160.224C85.4343 160.595 89.6522 161.657 93.8638 162.449C95.2816 162.716 104.403 164.828 104.428 162.53C104.433 162.034 103.488 160.905 103.246 160.511C102.698 159.617 102.139 158.733 101.547 157.867C100.167 155.85 98.6671 153.92 97.1797 151.982C96.4294 151.004 95.4702 148.966 94.0338 149.184C93.3786 149.283 92.7223 150.011 92.1939 150.387C91.2829 151.037 90.3387 151.638 89.3695 152.196C85.4509 154.453 81.1239 155.599 76.7639 156.663C75.7755 156.904 71.054 157.39 70.5904 158.364C70.3589 158.85 70.892 159.999 70.906 160.525C70.9266 161.317 70.7517 162.139 70.316 162.81C69.0511 164.756 66.285 164.654 64.2478 164.596C61.6603 164.523 59.0109 164.396 56.4353 164.711C58.9976 167.079 61.6566 169.338 64.3313 171.577C66.2165 173.154 68.3171 174.648 69.7985 176.634C71.0666 178.334 72.0102 181.226 70.3905 183.058C68.657 185.017 64.7494 184.149 62.5506 183.815C59.9873 183.425 57.4467 182.949 54.9057 182.441C54.0446 182.269 53.1556 182.07 52.2755 182.024C51.2232 181.969 50.8374 181.909 51.5665 182.885C53.3781 185.307 56.1027 187.049 58.0101 189.415C58.9084 190.529 59.9557 191.416 60.9003 192.486C62.077 193.818 63.0006 195.353 64.052 196.781ZM99.3133 183.541C100.552 184.799 101.949 183.011 102.953 182.191C104.458 180.963 105.927 179.691 107.454 178.489C110.346 176.214 113.357 174.103 116.076 171.613C116.933 170.829 118.342 169.95 118.603 168.748C118.935 167.214 118.137 165.843 118.952 164.301C120.497 161.38 123.692 163.769 125.776 162.088C126.846 161.225 127.6 159.971 128.444 158.902C129.448 157.63 130.73 156.395 131.308 154.862C131.909 153.268 131.988 152.505 130.869 151.157C129.663 149.706 128.2 148.38 127.232 146.746C126.566 145.621 126.021 143.967 127.069 142.877C127.915 141.997 129.38 142.234 130.475 142.302C132.069 142.4 133.656 142.549 135.223 142.865C136.461 143.115 138.827 143.768 140.016 143.089C142.82 141.488 137.778 137.365 136.661 136.141C134.166 133.408 131.549 130.788 128.954 128.149C126.554 125.709 124.131 123.267 121.877 120.69C120.2 118.772 118.235 116.064 119.134 113.356C119.863 111.161 122.318 111.092 124.271 111.244C127.131 111.468 129.977 111.936 132.825 112.275C134.948 112.528 139.033 113.324 140.844 111.639C142.716 109.898 138.719 104.726 137.686 103.177C135.503 99.9022 132.988 96.8632 130.382 93.9192C129.117 92.4896 127.827 91.0815 126.536 89.6744C125.416 88.452 124.388 86.9121 123.101 85.8624C121.693 84.7147 119.59 84.8495 117.865 84.6765C116.05 84.4945 114.12 84.2262 112.296 84.2325C110.634 84.2385 111.045 85.8358 110.975 87.221C110.958 87.5527 110.511 90.4957 111.015 90.5419C111.07 89.8867 111.125 89.2314 111.18 88.5759C112.599 89.1574 113.652 90.409 114.752 91.4259C115.849 92.4408 117.34 93.4739 117.803 94.9663C119.111 99.1789 113.893 97.6845 111.707 97.2567C112.199 102.042 113.425 106.692 114.1 111.445C114.383 113.436 114.268 115.239 114.047 117.219C113.921 118.348 113.936 119.488 113.798 120.616C113.689 121.51 113.272 122.533 113.438 123.433C113.743 125.079 115.825 126.808 116.75 128.201C117.977 130.049 119.06 132.051 119.628 134.209C120.653 138.103 118.906 140.903 114.826 141.278C112.985 141.447 110.949 141.163 109.125 140.904C107.558 140.68 105.557 139.52 104.127 140.57C103.542 140.999 103.139 141.76 102.626 142.285C101.881 143.046 101.045 143.725 100.223 144.4C99.4483 145.036 97.3297 146.167 97.5383 147.141C97.6956 147.876 98.9727 148.926 99.4054 149.47C99.9728 150.183 100.536 150.899 101.084 151.628C102.475 153.478 103.801 155.388 105.001 157.368C106.453 159.763 108.491 164.042 106.035 166.524C104.613 167.962 102.251 167.708 100.437 167.425C97.9647 167.039 95.5081 166.543 93.0799 165.945C90.6483 165.346 88.1968 164.929 85.7366 164.473C83.6349 164.085 81.1907 163.341 79.0898 164.111C85.2284 171.247 92.73 176.854 99.3133 183.541ZM135.125 150.534C135.914 149.612 136.722 148.589 137.421 147.593C138.064 146.675 138.012 146.275 136.927 145.989C136.252 145.811 135.502 145.985 134.813 145.905C134.096 145.821 133.38 145.591 132.678 145.433C131.889 145.255 131.004 144.986 130.189 144.988C129.272 144.99 129.182 144.907 129.643 145.731C130.275 146.859 131.499 147.846 132.371 148.787C132.919 149.379 134.232 151.576 135.125 150.534ZM134.11 163.474C134.525 164.386 137.517 163.717 137.999 163.09C139.051 161.717 136.359 158.522 135.652 157.367C134.584 158.073 134.214 159.008 134.151 160.241C134.106 161.095 133.756 162.697 134.11 163.474ZM132.984 208.795C134.771 208.972 137.114 207.942 138.751 207.376C141.019 206.594 143.377 206.035 145.717 205.514C150.416 204.466 155.274 204.321 159.987 203.316C156.992 199.425 153.371 196.072 150.327 192.222C149.223 190.826 147.601 188.825 148.113 186.911C148.615 185.033 150.557 185.448 151.999 185.881C153.933 186.461 155.802 187.27 157.693 187.973C158.588 188.306 162.582 190.222 163.321 188.98C163.819 188.141 160.984 185.019 160.57 184.479C159.026 182.462 157.35 180.551 155.66 178.655C152.509 175.118 148.931 171.498 146.493 167.416C144.666 164.356 144.055 159.527 148.989 159.72C151.026 159.8 153.102 160.43 155.089 160.845C156.926 161.228 159.639 162.075 161.513 161.602C163.486 161.104 161.217 158.163 160.596 157.193C159.284 155.143 157.743 153.228 156.297 151.271C154.742 149.165 153.084 147.104 151.63 144.928C150.725 143.573 149.258 141.211 150.08 139.498C151.024 137.533 154.264 138.748 155.85 139.046C158.856 139.611 161.804 140.551 164.891 140.551C164.86 139.004 163.272 137.644 162.359 136.546C160.988 134.898 159.576 133.302 158.077 131.769C157.023 130.69 155.87 128.933 154.636 128.102C153.374 127.252 152.629 129.939 152.132 130.939C148.516 138.225 144.563 145.369 139.687 151.905C138.705 153.221 137.264 154.283 138.088 155.963C138.945 157.711 140.075 159.24 140.404 161.212C140.648 162.668 140.52 164.693 139.397 165.8C138.308 166.872 136.71 166.629 135.365 167.048C133.937 167.494 134.34 168.758 134.328 170.023C134.305 172.236 134.278 174.448 134.292 176.661C134.304 178.627 134.331 180.594 134.355 182.56C134.379 184.64 134.886 186.114 135.455 188.072C135.751 189.092 135.852 190.146 135.526 191.171C135.244 192.051 134.782 192.22 134.24 192.843C133.184 194.056 133.521 196.361 133.392 197.903C133.299 199.008 131.753 208.674 132.984 208.795ZM137.383 232.44C137.832 233.004 139.446 232.824 140.075 232.865C141.271 232.943 142.469 232.944 143.666 233.009C146.218 233.147 148.737 233.501 151.297 233.546C153.401 233.583 155.581 233.685 157.603 233.829C158.6 233.9 159.719 233.468 160.688 233.67C161.644 233.87 162.009 234.149 163.043 234.066C165.618 233.86 168.254 234.119 170.834 234.182C173.221 234.241 175.629 234.06 178.019 234.029C180.709 233.993 183.405 234.091 186.094 234.119C188.972 234.149 191.91 233.978 194.751 234.524C194.488 233.317 194.506 231.894 193.529 230.991C192.529 230.067 190.87 229.857 189.583 229.706C187.709 229.486 185.85 229.436 183.98 229.357C182.811 229.307 181.686 228.911 180.525 228.779C178.859 228.59 177.065 228.699 175.386 228.672C174.81 228.663 174.428 228.45 173.9 228.37C173.279 228.275 172.673 228.434 171.997 228.269C170.595 227.927 169.165 227.569 167.804 227.113C166.973 226.834 167.008 226.598 166.327 227.244C165.9 227.65 165.638 228.417 165.278 228.894C164.684 229.682 163.619 230.624 162.702 229.676C161.73 228.671 162.772 227.544 162.556 226.502C162.389 225.697 160.858 224.99 160.093 225.294C159.034 225.714 158.721 227.897 157.587 228.144C156.162 228.455 156.547 226.301 156.74 225.499C157.245 223.401 157.065 223.332 155.387 221.935C154.107 220.87 153.75 220.455 152.163 221.251C150.564 222.053 148.817 222.402 147.035 222.593C144.929 222.82 142.965 222.583 140.904 222.162C139.934 221.965 138.045 221.222 137.411 222.238C136.697 223.384 137.432 226.191 137.458 227.517C137.477 228.506 137.537 229.523 137.443 230.509C137.394 231.018 137.02 231.984 137.383 232.44ZM163.212 202.505C164.692 202.377 166.142 201.985 167.618 201.807C168.156 201.742 169.311 201.762 169.756 201.381C170.3 200.916 170.045 200.962 169.934 200.286C169.406 197.072 169.204 193.959 169.282 190.693C169.34 188.249 169.818 184.446 168.359 182.32C166.641 179.815 164.028 177.962 162.285 175.449C161.342 174.089 160.027 170.441 163.012 170.539C164.199 170.577 165.468 171.329 166.621 171.608C168.253 172.002 168.352 171.606 168.208 170.129C167.869 166.663 167.97 163.182 167.616 159.715C167.252 156.15 166.861 152.583 166.461 149.022C166.265 147.291 166.177 145.459 165.84 143.754C165.513 142.097 163.902 142.989 162.491 142.922C158.757 142.743 155.128 140.456 151.375 140.814C154.504 146.676 159.839 151.129 162.875 157.068C163.924 159.121 164.901 162.332 162.314 163.703C159.431 165.23 155.03 163.295 152.064 162.803C151.025 162.631 146.902 161.427 146.71 163.031C146.607 163.895 148.285 165.914 148.705 166.538C149.661 167.96 150.762 169.279 151.796 170.644C153.862 173.369 156.319 175.741 158.461 178.409C160.33 180.736 162.623 183.015 164.129 185.597C165.542 188.019 165.815 192.385 161.84 191.908C157.771 191.419 154.232 188.249 150.085 188.156C152.205 190.946 154.624 193.486 156.977 196.076C158.109 197.322 159.22 198.586 160.293 199.884C160.98 200.714 161.924 202.617 163.212 202.505ZM168.764 177.222C168.675 176.062 168.956 175.414 167.901 174.778C167.221 174.368 165.615 173.732 164.87 174.014C165.151 174.34 168.372 178.185 168.716 177.875C168.802 177.666 168.818 177.449 168.764 177.222ZM163.15 123.86C162.956 121.628 162.506 119.422 162.41 117.182C162.344 115.668 162.56 113.653 161.533 112.39C160.291 114.712 159.455 117.224 158.213 119.547C157.682 120.541 157.089 121.502 156.54 122.485C156.165 123.157 155.063 124.601 155.15 125.403C155.298 126.772 158.022 128.733 158.905 129.71C160.785 131.793 162.625 133.912 164.546 135.958C164.287 131.903 163.501 127.906 163.15 123.86ZM163.204 87.6005C162.684 86.8726 159.065 87.2167 158.284 87.1472C155.826 86.9304 153.155 86.7368 150.776 86.0776C154.553 90.7448 157.947 95.7979 160.167 101.402C161.008 99.1121 161.563 96.7284 162.077 94.3476C162.339 93.1365 162.563 91.9204 162.758 90.6966C162.846 90.1434 163.539 88.0721 163.204 87.6005ZM151.669 121.756C152.68 122.26 155.749 114.718 155.885 113.882C154.43 114.214 148.636 114.485 148.296 116.318C148.137 117.175 149.127 118.209 149.56 118.828C150.09 119.586 150.832 121.34 151.669 121.756ZM142.475 114.079C140.333 116.76 136.333 116.218 133.342 115.837C131.317 115.578 129.31 115.231 127.29 114.934C125.297 114.64 122.88 114.097 120.947 114.917C124.081 119.317 128.116 122.956 131.926 126.75C133.879 128.696 135.766 130.706 137.644 132.724C139.485 134.704 140.954 137.195 142.907 139.029C144.565 136.005 146.135 132.935 147.733 129.879C148.404 128.596 149.268 127.44 149.957 126.171C150.717 124.773 150.833 124.13 149.865 122.864C148.422 120.978 146.395 118.424 146.685 115.891C147.024 112.934 150.542 112.609 152.845 111.972C154.003 111.651 155.332 111.408 156.39 110.825C157.734 110.082 157.795 108.858 158.24 107.529C158.778 105.92 159.272 104.875 158.704 103.183C158.23 101.775 157.523 100.377 156.869 99.047C155.494 96.2502 153.775 93.6751 151.952 91.1536C150.754 89.4965 149.341 86.1898 147.199 85.7472C145.679 85.4333 143.76 85.5622 142.201 85.4762C140.383 85.3762 138.562 85.3194 136.744 85.2411C132.974 85.078 128.937 84.722 125.185 85.2185C129.603 89.9886 134.069 94.6395 137.999 99.8344C140.53 103.18 145.929 109.756 142.475 114.079ZM159.382 77.9932C157.334 74.1987 155.431 70.4468 152.657 67.1335C150.258 64.2679 148.082 61.2781 145.591 58.4796C140.368 52.6089 133.588 48.2705 127.268 43.7089C125.838 42.6767 124.008 42.1142 122.439 41.2139C120.497 40.1004 118.417 39.1709 116.315 38.4011C112.504 37.005 108.127 36.2926 104.067 36.5759C99.5807 36.8891 96.1959 38.4718 93.4108 41.9664C90.6799 45.3916 90.2569 49.1727 90.183 53.4776C90.1481 55.5233 90.1225 57.5809 90.1424 59.6269C90.1624 61.6517 90.4258 62.9319 91.6674 64.4917C92.6898 65.7753 94.8436 66.4235 96.313 67.0169C98.3122 67.8239 100.183 68.7239 102.049 69.8098C102.855 70.2794 104.771 72.0474 105.767 71.8598C107.233 71.5832 107.593 68.9839 107.738 67.8309C108.284 63.5164 108.226 59.1042 107.961 54.7688C107.826 52.5488 106.792 49.2129 107.378 46.9663C107.621 46.0332 108.177 45.7021 108.863 46.5263C109.711 47.5455 109.92 49.9382 110.139 51.1676C110.911 55.4977 110.86 59.8508 110.886 64.2294C110.895 65.9692 111.868 66.8715 112.506 68.4213C113.321 70.4036 113.988 72.4718 114.39 74.5776C114.624 75.8001 114.788 77.0454 114.771 78.2924C114.761 78.9772 114.423 80.0664 114.687 80.717C115.198 81.9793 118.371 81.2736 119.435 81.25C124.177 81.1444 128.905 80.8923 133.654 80.8312C143.268 80.708 152.95 82.134 162.365 83.9452C161.39 81.952 160.437 79.9465 159.382 77.9932ZM155.251 57.7364C156.004 57.8592 158.534 59.2407 158.972 58.365C159.345 57.6165 157.498 54.9358 157.222 54.2218C156.582 52.564 156.426 50.713 156.049 48.9825C155.811 47.8919 155.789 45.7363 155.198 44.7646C154.538 43.6783 152.998 44.2239 151.905 44.2565C150.041 44.3119 148.158 44.3109 146.293 44.3043C144.395 44.2977 142.5 44.2482 140.602 44.2538C138.663 44.2598 136.748 43.9383 134.823 43.9383C135.039 44.6344 135.942 44.9741 136.508 45.3016C137.381 45.8063 138.116 46.4064 138.882 47.0653C140.675 48.6089 142.463 49.8426 143.967 51.684C145.326 53.3488 147.223 55.1288 148.91 56.4671C149.814 57.1834 150.431 57.126 151.526 57.1167C152.835 57.1054 153.973 57.5278 155.251 57.7364ZM159.896 54.0272C160.367 55.4685 160.411 55.8919 161.938 55.7896C163.902 55.6575 165.87 55.5346 167.837 55.3921C172.323 55.068 176.814 54.3985 181.301 54.1727C185.127 53.9801 189.258 53.5188 193.06 53.9166C194.834 54.1023 196.725 53.745 198.535 53.8157C200.719 53.9014 202.924 53.8924 205.014 54.5639C206.756 55.1241 208.212 55.4267 209.456 56.8756C210.71 58.3348 211.566 60.1739 212.399 61.8905C214.016 65.2193 215.281 69.5651 218.124 72.086C218.842 72.7229 220.068 73.8039 221.113 73.684C222.832 73.4864 222.305 71.2129 222.153 70.0595C221.645 66.1734 220.117 62.8147 218.976 59.1029C218.636 57.9934 217.961 55.0627 219.726 54.6542C220.996 54.3603 222.992 57.1512 223.722 57.9007C225.329 59.5512 226.902 61.1529 228.699 62.6061C230.183 63.806 231.674 65.1313 233.724 64.874C232.743 62.2312 231.66 59.6724 230.053 57.3408C228.674 55.339 226.348 53.5377 225.486 51.2354C224.837 49.5015 225.412 47.136 227.431 48.6617C229.185 49.986 230.704 51.607 232.496 52.9078C234.849 54.6144 237.52 56.0291 240.309 56.8729C241.232 57.1522 242.869 57.6928 243.753 57.0267C245.072 56.0334 243.727 53.9608 242.987 53.0476C236.043 44.4846 224.496 41.4138 213.96 40.7682C211.213 40.5998 208.357 40.8702 205.6 40.909C202.983 40.9452 200.556 41.2654 197.97 41.6476C192.603 42.4403 187.225 43.0852 181.881 43.8772C180.45 44.0894 178.753 44.5092 177.328 44.4541C176.742 44.4315 176.437 44.2744 175.852 44.4308C175.352 44.5647 174.993 44.8317 174.436 44.9217C171.27 45.4314 168.047 45.6303 164.838 45.6712C163.294 45.6908 161.735 45.6616 160.203 45.4596C159.301 45.3408 158.377 44.9662 158.123 46.0365C157.931 46.8435 158.571 48.3724 158.791 49.1495C159.239 50.7385 159.393 52.4883 159.896 54.0272ZM102.49 26.3475C103.029 26.3681 103.919 26.4488 104.094 25.7753C104.425 24.5063 102.726 25.2809 102.411 24.4819C102.061 23.5925 103.257 23.3622 103.784 23.2186C104.859 22.9253 104.583 22.9879 104.612 21.873C104.639 20.8444 104.972 19.9076 105.389 18.9759C105.97 17.6814 106 17.7468 104.697 17.5981C102.506 17.3482 102.027 15.4146 101.216 13.6456C100.716 12.5541 100.162 11.4893 99.8504 10.3232C99.6612 9.61563 99.6875 8.49121 98.9954 8.09257C98.0604 7.55405 95.8836 8.11087 94.8985 8.24025C93.2525 8.45634 91.5214 8.70152 89.9465 9.25326C88.5965 9.72639 88.0827 10.8237 86.8654 11.0181C86.0785 11.1434 81.3431 10.8471 81.965 12.2963C82.3525 13.1993 84.1811 12.6834 84.8549 12.6564C85.7156 12.6221 86.7646 12.4941 87.6177 12.6621C88.4705 12.8304 88.5503 13.1491 88.8832 13.9969C88.0844 13.9572 85.0957 13.5112 84.4428 14.0981C83.8634 14.6187 84.2912 15.1894 84.8738 15.3808C86.0107 15.7543 87.5472 15.0295 88.7406 15.3411C89.5897 15.5629 89.5308 15.5931 89.8807 16.4449C90.063 16.8892 90.2708 17.3437 90.348 17.8216C90.7867 20.5209 88.3082 18.4255 87.2775 17.8277C85.3924 16.7341 83.3489 16.9384 83.7148 19.5658C83.8358 20.4353 84.3051 21.1959 84.9078 21.8229C85.7572 22.7065 85.9774 22.8731 86.021 24.2082C86.0585 25.3569 85.9352 26.586 86.3422 27.6892C86.7912 28.904 87.7474 29.9394 88.4941 30.9765C89.3911 32.2222 90.319 33.4526 91.1844 34.7205C91.5573 35.2668 92.0894 36.642 92.8075 36.8243C93.484 36.9953 94.5323 35.9114 95.0924 35.6012C96.45 34.8494 97.941 34.3599 99.3366 33.687C98.1672 32.6486 97.1262 31.4707 95.9811 30.4276C95.0867 29.613 94.6238 29.4579 94.9188 28.0824C95.5806 24.9969 100.228 26.2632 102.49 26.3475ZM84.9068 91.1845C81.211 94.7588 75.7159 96.993 70.7171 97.8923C65.4804 98.8348 59.5091 99.5329 54.4078 97.7107C49.1775 95.842 44.2867 93.1558 39.8586 89.8129C39.3141 89.4018 33.2147 83.4541 32.7235 83.923C34.5354 86.6328 36.4369 89.2756 38.3576 91.9088C39.3011 93.2019 42.5642 97.6539 40.688 99.2645C39.4451 100.331 37.3315 98.6127 36.3111 97.9232C33.8549 96.2641 31.1187 95.3708 28.133 95.3708C29.5126 97.8997 31.6093 100.139 32.7311 102.81C33.2609 104.073 32.9912 103.981 31.7939 103.638C30.2955 103.209 28.5963 102.712 27.0328 102.642C26.3058 102.609 24.8294 102.928 24.7063 103.877C24.5889 104.784 26.5173 106.495 27.0554 107.145C29.028 109.527 31.0386 111.788 33.4771 113.708C38.1584 117.395 43.7153 119.772 49.3713 121.537C55.1495 123.341 61.325 123.884 67.2322 122.432C70.1587 121.713 72.8433 120.737 75.4648 119.281C76.6515 118.622 77.8997 118.323 79.0412 117.548C80.2269 116.744 81.4285 115.941 82.6388 115.175C85.1316 113.597 86.6765 112.01 88.4159 109.639C89.1154 108.686 90.0756 107.979 90.7421 107.04C91.4768 106.006 92.2324 104.952 92.9176 103.863C96.0762 98.8431 99.171 93.4467 101.012 87.7868C101.962 84.8688 102.607 81.867 103.403 78.9061C103.677 77.8872 104.689 75.9279 104.478 74.8931C104.274 73.8949 102.692 73.49 101.91 73.0666C99.6236 71.8313 97.3301 70.7347 95.0994 69.4213C92.0182 67.6064 92.564 71.3278 92.3641 73.4764C91.7711 79.8642 89.6219 86.6242 84.9068 91.1845ZM110.97 93.6263C111.62 94.1829 113.265 94.5283 114.097 94.2742C113.277 93.0545 112.013 92.2541 110.95 91.2725C110.834 91.9473 110.32 93.0707 110.97 93.6263ZM107.002 137.029C108.498 137.138 110.06 137.587 111.544 137.598C112.867 137.609 114.542 137.717 115.828 137.433C119.376 136.65 117.278 133.444 116.044 131.351C115.361 130.194 114.497 129.159 113.785 128.022C113.613 127.748 113.136 126.629 112.756 126.592C112.195 126.536 112.021 127.454 111.751 128.016C111.02 129.537 110.344 131.108 109.515 132.579C108.681 134.058 107.516 135.385 107.002 137.029ZM68.6231 159.539C68.3164 157.838 63.3319 159.566 62.2041 159.769C61.8805 159.827 57.9752 160.302 58.0104 160.641C59.3029 160.737 69.0046 161.657 68.6231 159.539ZM0.839232 197.528C0.0756015 197.86 0.102542 195.433 0.067287 195.111C-0.00388766 194.462 -0.0933516 193.294 0.236912 192.724C0.479371 192.306 0.550546 192.518 0.680589 192.408C1.74688 191.505 0.459415 191.119 0.219617 190.399C0.145781 190.178 0.138793 189.568 0.249214 189.384C0.563845 188.854 0.650987 189.25 1.02515 189.028C1.27593 188.88 1.78479 189.247 1.63746 188.569C1.51606 188.01 1.08768 188.353 0.873158 188.178C0.0573106 187.512 0.140459 186.638 0.271168 185.574C0.395225 184.563 0.514957 183.482 0.812959 182.525C0.965619 182.033 1.17415 182.255 1.15752 181.675C1.14888 181.372 0.688235 181.073 0.672936 180.692C0.654644 180.219 1.094 179.46 1.11861 178.961C1.15121 178.306 1.15719 177.737 1.08402 177.118C1.03912 176.739 0.93868 176.601 0.917726 176.139C0.898103 175.704 0.993559 175.195 1.00254 174.742C1.02848 173.455 1.20043 172.162 1.42659 170.932C1.55963 170.739 1.66406 170.531 1.74089 170.309C1.68801 170.078 1.59954 169.862 1.47581 169.66C1.44156 169.072 1.45287 168.498 1.45985 167.901C1.47316 166.794 1.26163 165.744 1.19677 164.652C1.17781 164.328 1.0501 163.788 1.2756 163.488C1.44755 163.26 2.04854 163.316 2.11439 163.097C2.3043 162.469 1.7359 162.844 1.61284 162.525C1.51406 162.27 1.56429 161.935 1.54799 161.678C1.50242 160.985 2.50186 156.272 3.3676 156.885C3.0227 156.641 3.69952 155.018 3.91936 154.744C4.73554 153.722 5.22279 154.879 5.88498 155.597C6.81125 156.602 7.61779 155.956 8.8211 155.729C10.3111 155.448 11.9481 155.547 13.4584 155.58C15.0066 155.613 16.5768 155.7 18.1187 155.836C19.779 155.983 21.3871 156.484 23.064 156.459C25.5495 156.422 28.0675 156.48 30.5506 156.391C31.0479 156.373 32.2505 156.425 32.4587 155.794C32.5372 155.556 32.0889 155.059 32.0214 154.797C31.891 154.295 31.882 153.636 32.1035 153.145C32.773 151.662 34.1663 152.873 35.1477 153.411C36.6264 154.223 38.1587 154.914 39.792 155.353C46.3059 157.102 53.9904 157.005 60.6419 156.179C67.3962 155.34 74.0733 153.309 80.6586 151.646C86.6715 150.127 92.2211 146.76 96.8365 142.639C101.541 138.439 105.254 132.614 107.578 126.766C110.167 120.251 108.284 113.692 108.218 107.028C108.186 103.705 107.445 100.461 107.242 97.1488C107.046 93.9358 107.321 90.9211 108.286 87.7762C108.532 86.9752 108.878 86.1706 109.057 85.351C109.223 84.5921 108.93 83.9831 109.027 83.2674C109.237 81.7352 110.932 81.8906 111.674 80.7515C112.346 79.7204 111.654 78.1154 111.416 77.0095C111.003 75.0891 110.489 73.1922 110.016 71.286C109.528 72.421 109.072 73.5531 108.777 74.756C108.701 75.0641 108.694 75.6081 108.483 75.8818C108.33 76.0797 107.945 76.0541 107.824 76.2368C107.417 76.8525 107.464 77.4698 107.393 78.2615C107.256 79.7974 107.007 81.3164 106.754 82.8364C105.904 87.9423 105.257 92.9744 103.248 97.7944C99.5458 106.676 94.545 114.942 87.1494 121.242C83.7979 124.097 79.5358 125.873 75.4791 127.377C70.6406 129.171 66.0379 130.144 60.8434 129.678C55.9414 129.239 51.042 127.719 46.5516 125.748C42.1288 123.807 37.9764 122.098 34.2002 118.97C30.1652 115.628 26.1352 111.594 23.3597 107.121C22.3476 105.49 20.5456 102.125 20.9873 100.082C21.5537 97.462 25.5837 99.1895 27.0391 99.7321C25.8145 97.7306 22.5362 94.1663 24.1662 91.67C26.5452 88.0266 32.7724 91.7161 35.3223 93.0664C34.0083 90.3974 31.9998 88.1548 30.5763 85.5506C29.8712 84.26 27.9215 79.0124 30.7858 78.7284C31.6529 78.6424 32.5735 79.6311 33.1861 80.1265C34.3751 81.0889 35.5548 82.0623 36.7342 83.0366C39.3118 85.1663 42.0324 86.9775 45.0011 88.5198C50.9422 91.6059 56.689 93.2448 63.437 92.5882C69.1862 92.0296 75.526 90.2845 79.9971 86.4997C82.6817 84.2272 84.8163 81.7133 86.1952 78.4472C87.7182 74.8407 88.689 70.8788 89.7543 67.1162C88.103 66.6915 86.9456 66.9376 87.2642 64.9759C87.6463 62.6247 87.5622 60.2453 87.5762 57.8586C87.6054 52.9111 87.6969 47.9091 89.2468 43.1613C89.5225 42.3164 89.7656 41.4457 90.2409 40.6849C90.8269 39.7467 91.371 39.6072 90.6164 38.5844C89.1643 36.6151 87.6556 34.9321 86.5784 32.6692C86.018 31.4923 85.4978 30.3396 84.8073 29.2394C83.6749 27.4355 82.1942 26.1121 80.7411 24.5493C79.0728 22.7559 77.766 21.0642 76.9086 18.7605C76.5078 17.6852 75.9617 16.6152 75.7545 15.4793C75.5077 14.1249 75.7642 12.7393 75.8812 11.3842C76.2684 6.88888 77.7803 3.26122 82.2068 1.50483C85.8038 0.0772765 89.9389 -0.537455 93.7101 0.566313C98.2726 1.90211 100.435 5.89958 102.608 9.76806C103.221 10.8589 103.598 12.0132 104.154 13.1203C104.724 14.2553 105.315 14.257 106.364 14.7176C108.444 15.63 108.268 18.2619 107.365 19.9919C106.217 22.1903 106.449 24.7372 105.461 27.0323C104.448 29.3822 102.876 30.0371 100.479 30.5637C101.393 31.2884 102.226 32.2361 103.391 32.546C104.805 32.9219 106.518 32.5633 107.981 32.5838C111.02 32.6267 114.093 33.0378 116.98 34.0079C119.816 34.96 122.358 36.4842 124.994 37.8481C126.199 38.4715 127.323 39.3608 128.699 39.5418C130.035 39.7175 131.381 39.3887 132.725 39.5611C135.671 39.9393 138.901 39.4624 141.905 39.3973C145.141 39.3266 148.389 39.3718 151.618 39.1353C153.013 39.0334 154.391 38.8869 155.791 39.0085C157.063 39.1184 157.822 38.8195 158.922 39.6889C159.653 40.2668 160.236 41.6811 161.097 41.8737C162.016 42.0793 163.825 41.5041 164.732 41.3676C167.782 40.9084 170.856 40.3013 173.887 39.7414C175.307 39.4787 176.646 39.0005 178.078 38.7537C179.557 38.4987 181.092 38.4157 182.552 38.0876C184.916 37.5566 187.468 37.3586 189.932 37.0192C192.817 36.6221 195.786 35.7842 198.694 35.6783C210.869 35.2346 224.516 34.5126 235.311 41.2531C237.846 42.8358 240.451 44.8569 242.403 47.1208C244.197 49.2006 246.4 51.9523 246.857 54.7236C247.266 57.1974 246.968 61.5311 243.655 61.5614C240.425 61.5909 237.105 59.6651 234.326 58.2388C235.513 61.0808 239.121 67.168 235.989 69.9277C232.757 72.7757 226.806 66.5958 224.671 64.6119C225.093 67.6486 228.105 78.6839 222.406 78.855C216.842 79.0217 213.614 72.174 211.632 68.1089C210.586 65.9626 209.805 63.441 208.107 61.6945C206.399 59.9384 204.03 59.9966 201.719 59.7721C196.099 59.2264 190.511 59.1982 184.859 59.063C177.705 58.8924 170.68 60.0693 163.517 59.4044C163.608 60.7836 163.083 63.2935 161.684 63.8216C159.622 64.5997 157.094 63.4812 154.983 63.4812C155.125 64.3243 156.327 65.2127 156.834 65.8493C157.741 66.99 158.523 68.2138 159.253 69.4737C160.68 71.9345 162.197 74.3996 163.21 77.067C163.72 78.409 164.155 79.7928 164.522 81.1799C164.733 81.9776 164.729 83.1698 165.157 83.8748C165.688 84.7515 166.504 84.2454 167.177 84.9329C168.148 85.9242 167.135 86.4455 166.829 87.3193C166.498 88.2647 166.914 89.8661 166.788 90.9052C166.598 92.4653 166.398 94.0365 166.138 95.5866C165.664 98.42 164.659 101.041 163.986 103.807C163.347 106.431 165.076 109.205 165.646 111.743C166.308 114.689 166.692 117.67 167.373 120.61C168.091 123.715 168.424 126.912 168.919 130.057C169.402 133.129 170.098 136.164 170.571 139.239C171.471 145.098 172.043 151.065 172.753 156.948C173.125 160.031 173.411 163.155 173.439 166.263C173.465 169.173 173.876 172.015 173.936 174.92C173.999 177.998 174.036 181.079 174.169 184.155C174.3 187.198 173.923 190.228 173.784 193.266C173.718 194.715 173.67 196.165 173.691 197.615C173.709 198.838 174.045 200.27 173.741 201.468C173.141 203.835 169.804 205.258 167.709 205.947C165.149 206.789 162.446 207.37 159.824 207.993C158.547 208.296 157.254 208.554 155.955 208.744C155.45 208.818 154.865 208.789 154.394 209.003C153.683 209.326 153.823 209.163 153.786 209.97C153.725 211.273 154.107 212.701 154.306 213.978C154.489 215.155 154.256 217.089 154.711 218.143C155.229 219.342 158.881 220.325 159.774 219.511C160.404 218.938 160.585 217.853 161.327 217.37C162.396 216.674 162.888 217.649 162.882 218.697C162.878 219.486 162.28 220.439 162.999 221.015C163.622 221.515 164.936 221.253 165.538 220.842C166.541 220.156 168.623 215.91 169.132 219.521C169.252 220.372 168.884 221.363 169.607 222.009C170.284 222.614 171.916 222.587 172.77 222.695C174.133 222.867 175.326 222.925 176.702 222.896C178.238 222.863 179.689 223.223 181.199 223.291C183.551 223.396 185.912 223.714 188.318 223.76C190.774 223.808 193.45 224.449 195.339 226.112C197.508 228.023 197.062 230.384 196.648 232.943C196.375 234.635 198.537 236.463 196.355 237.943C195.479 238.536 194.025 238.411 193.019 238.42C191.299 238.436 189.597 238.236 187.875 238.332C175.331 239.029 162.739 238.509 150.198 238.096C147.268 237.999 144.225 238.134 141.32 237.78C140.026 237.623 138.742 237.398 137.445 237.259C136.335 237.141 135.01 237.336 133.951 236.976C131.327 236.085 134.135 233.374 134.344 231.825C134.75 228.82 134.578 225.634 134.598 222.606C134.618 219.386 134.598 216.166 134.598 212.946C133.202 213.043 129.287 214.074 128.193 212.879C127.289 211.89 128.828 209.826 128.903 208.639C129.211 203.8 129.107 198.957 129.473 194.114C129.85 189.119 129.803 184.17 129.96 179.175C130.128 173.839 130.507 168.523 130.507 163.179C126.603 167.306 122.875 171.838 118.534 175.516C116.675 177.092 114.65 178.455 112.708 179.924C110.521 181.579 108.484 183.42 106.309 185.091C102.262 188.2 97.4508 190.017 93.1757 192.781C88.8546 195.575 84.2433 197.876 79.2683 199.259C73.8301 200.771 68.0633 201.274 62.4359 200.984C59.7359 200.845 57.0496 200.498 54.3905 200.014C53.282 199.812 52.1847 199.548 51.0759 199.35C49.5074 199.07 48.7431 199.332 47.2747 199.619C45.3453 199.995 44.8647 197.181 44.2927 195.828C43.2377 193.332 42.781 190.606 41.8475 188.053C40.2151 183.59 38.7108 179.177 37.2663 174.638C36.9384 173.608 36.7202 171.822 35.4903 171.677C34.6601 171.579 33.2303 172.503 32.4165 172.759C31.0013 173.202 29.66 173.402 28.1859 173.439C26.9437 173.469 26.7954 173.934 26.0188 174.817C25.3067 175.626 24.0212 176.09 24.263 177.265C24.406 177.96 25.146 178.497 25.2844 179.283C25.7806 182.104 22.9453 179.665 21.9485 179.049C21.3448 180.379 25.9057 181.855 24.2437 183.737C23.4299 184.659 21.733 183.259 20.9231 182.901C19.0343 182.066 18.7473 184.336 18.2441 185.808C17.3211 188.508 16.7032 191.343 15.9958 194.107C15.3143 196.77 14.7602 199.491 13.6849 202.033C12.7267 204.299 11.0578 205.778 9.86611 207.824C9.27941 208.831 8.63186 209.557 7.36402 209.604C6.50627 209.637 4.9198 209.3 4.10961 208.973C3.34465 208.665 2.51516 207.725 1.98035 207.136C1.23768 206.318 1.38435 205.527 0.783027 204.525C0.808969 205.028 0.921383 205.496 0.948323 205.987C-0.14923 205.125 0.944999 203.768 0.745777 202.674C0.682917 202.327 0.325382 202.037 0.305094 201.673C0.296114 201.525 0.614732 201.182 0.636351 200.974C0.661628 200.729 0.681587 200.015 0.611742 199.833C0.561189 199.702 0.138798 199.035 0.148111 199.156C0.141791 199.067 -0.00754402 198.928 0.0726106 198.636C0.193674 198.196 0.895107 198.118 0.839232 197.528Z" fill="black"/>
</svg>
