<svg width="33" height="38" viewBox="0 0 33 38" fill="none" xmlns="http://www.w3.org/2000/svg">
<g clip-path="url(#clip0_18_228)">
<path d="M25.3763 18.9345C26.2151 16.6653 26.4161 14.2127 25.958 11.8414C25.0402 7.12888 21.9799 4.19203 17.341 3.57186C15.9088 3.38036 14.463 3.50709 13.1052 3.65343C9.62727 4.02822 6.85865 5.59482 4.87543 8.30927C3.26166 10.5184 2.71502 12.7326 3.20445 15.0785C3.57946 16.8649 4.28333 18.5657 5.2805 20.095C7.30616 23.2204 9.76467 25.3822 12.7963 26.7037C12.8718 26.7367 12.948 26.7692 13.0243 26.8015C13.3557 26.9306 13.6745 27.0893 13.977 27.2757C14.2596 27.4632 14.5972 27.7145 14.6987 27.9953C15.0792 29.0492 15.3724 30.1157 15.6324 31.1104C15.7932 31.7263 15.9313 32.3605 16.0647 32.9741C16.1462 33.349 16.2278 33.7239 16.315 34.098C16.5085 34.9288 16.9205 35.2372 17.737 35.1627C18.2223 35.1213 18.7011 35.0226 19.1634 34.8689L19.2058 34.8545C20.7297 34.3221 22.2704 33.7595 23.7614 33.2151L24.756 32.8522C25.7216 32.5004 25.9937 32.0146 25.7601 31.0597C25.3509 29.387 24.9956 28.1167 24.6076 26.9406L24.5664 26.8147C24.3384 26.1163 24.0811 25.3284 23.2441 24.8645L23.8939 23.0571C24.3892 21.6788 24.8833 20.3047 25.3763 18.9345ZM22.1162 25.0271L20.3758 25.4762C20.3689 25.4633 20.3637 25.4495 20.3605 25.4352C20.2852 24.3929 20.2127 23.3504 20.143 22.308C19.9839 19.9771 19.8192 17.5669 19.6091 15.2C19.447 13.3738 18.9522 11.8749 18.096 10.6179C17.6747 9.99939 17.144 9.61719 16.561 9.51269C16.2826 9.46971 15.9983 9.48334 15.7252 9.55283C15.4521 9.62234 15.1957 9.74627 14.9717 9.91711C14.7928 10.0524 14.6282 10.2056 14.4806 10.3742L14.4188 10.44C14.3214 10.5433 14.2358 10.6533 14.145 10.769L14.095 10.8327C14.0493 10.8034 14.0044 10.774 13.9597 10.7448C13.7943 10.6325 13.6232 10.5288 13.4471 10.4341C12.5188 9.95396 11.5083 10.2199 10.9322 11.0965C10.5472 11.7043 10.3371 12.4055 10.3249 13.1232C10.2184 15.4614 10.8897 17.6334 12.3202 19.5787C13.0688 20.5967 13.8436 21.6213 14.5933 22.6118C14.876 22.9856 15.1585 23.3596 15.4406 23.7337C16.0642 24.5765 16.5742 25.497 16.958 26.4722L15.6635 26.9121C15.2752 26.0065 14.4401 25.5868 13.6323 25.1801C13.4826 25.1051 13.3327 25.0296 13.1855 24.9511C9.8094 23.1535 7.48807 20.7883 6.08918 17.7202C5.60737 16.6637 5.13006 15.5266 4.90176 14.3704C4.55726 12.6259 5.0387 10.9029 6.3733 9.10287C7.99884 6.91049 10.2009 5.63242 12.9169 5.3046C14.3488 5.13157 15.75 4.99315 17.1514 5.19595C20.7796 5.72136 23.1262 7.98414 23.9371 11.74C24.4962 14.3297 24.0906 16.9186 22.6218 20.1346C22.2363 20.9793 21.8296 21.9931 21.7368 23.1079C21.6886 23.6869 21.677 24.3547 22.1162 25.0271ZM23.2436 28.0906L23.5426 29.2026L17.1438 31.3774L16.7085 30.0965L23.2436 28.0906ZM23.8881 30.637L24.1352 31.4854C22.2495 32.2206 20.0668 33.0422 17.8316 33.6172C17.8172 33.589 17.8033 33.5625 17.7907 33.5373C17.7484 33.4645 17.7134 33.388 17.6862 33.3084C17.6317 33.1201 17.5865 32.9276 17.5384 32.724C17.5274 32.6769 17.5161 32.6292 17.5046 32.581L23.8881 30.637ZM15.8872 28.0449L16.0715 27.9881C18.295 27.3041 20.397 26.6575 22.6004 26.1548L22.8093 26.6679C20.6702 27.529 18.4833 28.2665 16.2595 28.8765L15.8872 28.0449ZM15.6282 21.876C15.4619 21.6497 15.295 21.4235 15.1322 21.1951C14.2481 19.9584 13.3888 18.7423 12.5955 17.4625C11.8584 16.2737 11.5692 14.8488 11.6833 12.9787C11.7199 12.5996 11.8314 12.2313 12.0114 11.8949C12.0405 11.8201 12.0851 11.7522 12.1423 11.6956C12.1994 11.639 12.2678 11.5951 12.3431 11.5666C12.4896 11.5242 12.6713 11.5678 12.8829 11.6962C13.4288 12.0274 13.4769 12.1417 13.35 12.8073C13.0918 14.1618 13.2002 15.3419 13.6814 16.4147C13.8244 16.755 14.0225 17.0694 14.2678 17.3455C14.3776 17.4893 14.5249 17.6002 14.6938 17.6662C14.8626 17.7322 15.0466 17.7508 15.2255 17.7199C15.4045 17.689 15.5717 17.6098 15.7088 17.4909C15.846 17.372 15.9479 17.218 16.0035 17.0456C16.1423 16.701 16.2184 16.3345 16.2283 15.9637C16.2924 14.6385 15.9458 13.3269 15.2355 12.2069C15.0065 11.8388 15.1763 11.4065 15.7019 11.0205C15.9153 10.8638 16.1031 10.7998 16.2595 10.8301C16.3435 10.8543 16.4215 10.8957 16.4884 10.9517C16.5555 11.0076 16.61 11.0769 16.6484 11.1551C17.0181 11.7556 17.4772 12.5032 17.6318 13.2623C17.8987 14.5753 18.0559 15.9367 18.2076 17.2532C18.2365 17.5008 18.2655 17.7481 18.2944 17.9953C18.389 18.7951 18.4724 19.6103 18.553 20.3986C18.6615 21.4573 18.7741 22.5519 18.9141 23.6257C18.9965 24.1478 19.1185 24.6626 19.2791 25.1661C19.3382 25.3698 19.3988 25.5788 19.4566 25.7944L17.9169 26.2146C17.568 24.5142 16.5825 23.1734 15.6286 21.8759L15.6282 21.876ZM14.7488 15.0933L14.6543 14.5285C14.7158 14.7105 14.7478 14.901 14.7492 15.0932L14.7488 15.0933Z" fill="#FAEDCD"/>
</g>
<defs>
<clipPath id="clip0_18_228">
<rect width="23" height="32" fill="white" transform="translate(0.46283 7.55188) rotate(-18.7722)"/>
</clipPath>
</defs>
</svg>
