<svg width="28" height="27" viewBox="0 0 28 27" fill="none" xmlns="http://www.w3.org/2000/svg">
<path d="M5.55848 6.62867C5.45229 6.29948 5.34807 5.99995 5.25947 5.69578C5.1502 5.32068 5.19507 5.12678 5.3899 5.04927C5.58473 4.97175 5.7408 5.07845 5.91864 5.43625C6.05442 5.70812 6.16975 5.98995 6.32303 6.33213L15.3174 3.34481C15.2747 3.14935 15.2328 2.97475 15.1989 2.79866C15.1647 2.61921 15.1302 2.43914 15.1109 2.25766C15.0875 2.03755 15.1672 1.86362 15.389 1.78996C15.6298 1.70986 15.815 1.80964 15.9252 2.01939C16.053 2.26228 16.1527 2.52001 16.264 2.7715C16.2942 2.83954 16.3234 2.9081 16.3706 3.01697C16.8034 2.90177 17.2285 2.80162 17.6452 2.67539C19.4855 2.11785 20.8809 2.91427 21.7597 4.38451C22.2021 5.12472 22.5131 5.95146 22.8219 6.76247C23.5399 8.64811 24.2315 10.5444 24.912 12.4435C25.2937 13.5074 25.633 14.5871 25.9892 15.6604C26.7096 17.8303 25.4399 19.5253 24.121 20.3863C23.664 20.6899 23.1725 20.9376 22.6568 21.124C19.6364 22.1808 16.6181 23.2466 13.5737 24.231C11.9501 24.7561 10.2532 25.0176 8.5533 25.1852C7.24848 25.3139 5.94249 24.4817 5.37322 23.2155C5.18844 22.7958 5.02921 22.3654 4.89635 21.9265C4.42899 20.4229 3.99107 18.91 3.51412 17.4095C2.9586 15.6614 2.37836 13.9212 1.79862 12.181C1.63966 11.7037 1.45873 11.2483 1.4794 10.7198C1.53714 9.24542 2.24895 8.21152 3.52262 7.54684C4.03448 7.27961 4.57796 7.07315 5.1066 6.83796C5.24385 6.77689 5.37796 6.71238 5.55848 6.62867ZM21.6601 6.98481C18.5965 8.0853 15.6044 9.16987 12.6053 10.2349C9.59414 11.3046 6.57574 12.3557 3.53808 13.4229C3.54687 13.4609 3.55855 13.534 3.58094 13.6037C4.3291 15.9329 5.07831 18.2618 5.82857 20.5903C6.03027 21.2155 6.22896 21.8425 6.45881 22.4575C6.61899 22.8914 6.92156 23.2579 7.31677 23.4968C7.71194 23.7357 8.17616 23.8327 8.63303 23.7719C10.489 23.5035 12.3369 23.214 14.1173 22.586C15.7412 22.0131 17.3859 21.4997 19.0137 20.9378C20.3094 20.4908 21.5969 20.0192 22.8806 19.5395C23.4393 19.3266 23.9277 18.9619 24.291 18.4862C24.7851 17.8552 25.0293 17.1589 24.7834 16.349C24.5925 15.7206 24.4311 15.0826 24.2199 14.461C23.4181 12.1016 22.6013 9.74736 21.7907 7.39103C21.7425 7.24853 21.699 7.10448 21.6603 6.98473L21.6601 6.98481ZM3.07164 12.3755C9.09722 10.0688 15.0626 7.90818 21.0877 5.80435C20.9529 5.50572 20.8536 5.21396 20.6986 4.95582C20.2201 4.16084 19.6065 3.54614 18.5899 3.59208C17.9449 3.62123 17.3522 3.86412 16.7282 4.08133C16.7589 4.22449 16.7865 4.34066 16.808 4.4579C16.8332 4.57731 16.8517 4.69805 16.8635 4.81949C16.8913 5.20872 16.7627 5.43104 16.4769 5.50171C16.189 5.57315 15.967 5.43565 15.8219 5.07263C15.739 4.86544 15.6819 4.64786 15.6167 4.4455L6.71622 7.31668C6.7829 7.5234 6.83741 7.67897 6.88301 7.83701C6.95308 8.05473 7.0116 8.27597 7.05837 8.49986C7.08374 8.60599 7.0681 8.71776 7.0146 8.81264C6.96109 8.90752 6.8737 8.97847 6.77 9.01124C6.53085 9.1046 6.34251 8.99474 6.22066 8.80185C6.13385 8.64104 6.06406 8.47157 6.01246 8.29624C5.94143 8.10288 5.87813 7.90664 5.79302 7.65741C5.15176 7.92594 4.54572 8.11141 4.00976 8.4196C3.11837 8.9323 2.48506 9.66278 2.65355 10.7905C2.73173 11.3116 2.92054 11.8164 3.07164 12.3755Z" fill="#FAEDCD"/>
<path d="M10.8944 21.7042C10.765 21.7522 10.5198 21.8547 10.2675 21.9351C9.7208 22.1101 9.3076 21.9695 9.03469 21.4712C8.71231 20.8955 8.53424 20.2501 8.51582 19.5906C8.50655 19.4496 8.53533 19.3087 8.59916 19.1829C8.66297 19.0571 8.75945 18.9509 8.87843 18.8754C9.52491 18.4368 10.2447 18.1179 11.0038 17.9337C11.4098 17.8333 11.7887 17.9561 12.0144 18.3446C12.3559 18.9316 12.5988 19.5578 12.6314 20.245C12.6586 20.8215 12.403 21.1933 11.8604 21.3908C11.5823 21.4918 11.2974 21.5742 10.8944 21.7042ZM10.8611 19.3562L9.70061 19.7306L9.99987 20.49L11.1113 20.1315L10.8611 19.3562Z" fill="#FAEDCD"/>
<path d="M16.9674 17.6623C17.0152 17.8105 17.0453 17.8972 17.0716 17.9851C17.341 18.8975 17.1828 19.3373 16.397 19.763C15.9955 19.9805 15.5796 20.1729 15.1598 20.3513C14.7047 20.545 14.3178 20.4229 14.0739 19.9815C13.7646 19.4205 13.5005 18.8354 13.4252 18.1834C13.3724 17.7252 13.5175 17.362 13.8978 17.1687C14.4051 16.9062 14.9275 16.6755 15.4625 16.4779C16.0613 16.262 16.4093 16.4398 16.7089 17.0453C16.816 17.2637 16.8977 17.4955 16.9674 17.6623ZM15.6637 17.7798L14.4946 18.157C14.6391 18.4707 14.7682 18.7509 14.9018 19.041C15.1559 18.9287 15.3643 18.8389 15.5709 18.7449C15.945 18.5747 15.9703 18.5098 15.8152 18.0921C15.7789 17.995 15.7246 17.9047 15.6633 17.7799L15.6637 17.7798Z" fill="#FAEDCD"/>
<path d="M20.5848 18.169C20.3236 18.266 20.0578 18.35 19.7884 18.4207C19.2929 18.5271 18.9347 18.3738 18.7605 17.9322C18.5665 17.4478 18.4124 16.9487 18.2996 16.4392C18.187 15.9174 18.359 15.6341 18.8744 15.4238C19.3762 15.219 19.8911 15.0407 20.4104 14.8845C20.9586 14.7197 21.5801 14.8905 21.7618 15.5918C21.8502 15.9331 21.9527 16.2721 22.0149 16.6186C22.1338 17.281 21.8998 17.664 21.2462 17.9282C21.0285 18.0163 20.8088 18.0995 20.59 18.1849L20.5848 18.169ZM19.4065 16.2862C19.5342 16.6244 19.6309 16.8807 19.7244 17.1279L20.7023 16.8124C20.6438 16.5447 20.5928 16.3159 20.534 16.0495L19.4065 16.2862Z" fill="#FAEDCD"/>
<path d="M19.1055 13.5751C18.8787 13.6643 18.6563 13.7677 18.4242 13.8398C17.8516 14.0179 17.4572 13.8124 17.2253 13.1906C17.0459 12.7102 16.8884 12.2219 16.7533 11.7274C16.5845 11.1082 16.6967 10.7835 17.2161 10.5463C17.7896 10.2835 18.3798 10.0609 18.9833 9.88012C19.5438 9.7132 19.9531 9.96725 20.1549 10.603C20.3158 11.1224 20.4346 11.6535 20.5099 12.1899C20.5918 12.7474 20.3864 13.085 19.9127 13.28C19.6486 13.3888 19.369 13.4597 19.0963 13.5476L19.1055 13.5751ZM18.1316 12.5232L19.3013 12.1459C19.2312 11.8204 19.169 11.5315 19.0896 11.1632L17.8044 11.5089L18.1316 12.5232Z" fill="#FAEDCD"/>
<path d="M11.6891 14.3261C11.6194 14.0055 11.5325 13.6704 11.4761 13.33C11.4126 12.945 11.4994 12.6038 11.8545 12.4015C12.4826 12.0436 13.1213 11.7058 13.8402 11.5672C14.4679 11.446 14.8808 11.6045 15.1642 12.1966C15.3696 12.6419 15.5135 13.1135 15.592 13.5975C15.6824 14.1195 15.4351 14.5303 14.9679 14.7535C14.404 15.0228 13.8316 15.2769 13.2507 15.5057C12.6892 15.7269 12.2451 15.5383 11.957 14.9841C11.8517 14.7811 11.7825 14.5586 11.6891 14.3261ZM13.9645 12.9084L12.5673 13.2565C12.7014 13.5991 12.8047 13.8633 12.9231 14.1656L14.1898 13.6076L13.9645 12.9084Z" fill="#FAEDCD"/>
</svg>
