<svg width="40" height="40" viewBox="0 0 40 40" fill="none" xmlns="http://www.w3.org/2000/svg">
<rect width="40" height="40" rx="20" fill="#131313"/>
<path d="M27.7608 13.0285C27.814 12.981 27.8564 12.9228 27.8852 12.8576C27.914 12.7924 27.9285 12.7218 27.9278 12.6505C27.9271 12.5792 27.9112 12.5089 27.8811 12.4443C27.851 12.3797 27.8075 12.3222 27.7534 12.2758C27.6964 12.227 27.6399 12.1783 27.5838 12.13C27.1557 11.762 26.7132 11.3809 26.2502 11.0558C22.7136 8.56669 19.0389 8.55269 15.3288 9.87276C11.9697 11.0671 9.81253 13.4565 8.91632 16.9734C7.91658 20.9026 8.79203 24.3689 11.5202 27.2774C11.5911 27.3525 11.6636 27.4276 11.7359 27.4995C13.2014 28.965 15.0268 29.8698 16.4731 30.4994C17.0938 30.7706 20.2791 31.0998 21.1409 30.9713C26.2625 30.2066 29.6329 27.3178 30.8068 22.4851C31.0309 21.5384 31.1426 20.5687 31.1393 19.5959C31.1342 18.5742 30.9624 17.5602 30.6306 16.5939C30.6065 16.5217 30.5667 16.4556 30.514 16.4005C30.4613 16.3454 30.3971 16.3027 30.326 16.2753C30.2549 16.2479 30.1786 16.2366 30.1026 16.2421C30.0266 16.2477 29.9527 16.27 29.8863 16.3074L29.8724 16.3153C29.7669 16.3757 29.686 16.4713 29.6439 16.5854C29.6018 16.6994 29.6011 16.8246 29.6419 16.9391C29.9414 17.7697 30.0941 18.646 30.0932 19.5289C30.0828 20.5882 29.9394 21.6419 29.6664 22.6654C28.8572 25.6065 26.9226 27.7501 23.752 29.2163C20.5287 30.7595 15.9063 29.1994 14.6764 28.3874C13.317 27.458 12.1276 26.3019 11.16 24.9694C9.64266 22.8211 9.30223 19.7331 10.1176 16.91C10.4992 15.6066 11.166 14.4044 12.0698 13.3906C12.9736 12.3769 14.0917 11.5769 15.3429 11.0488C18.5982 9.69603 21.8644 9.4574 25.0501 11.4834C25.4773 11.7554 26.5663 12.6105 27.1168 13.0473C27.2091 13.1205 27.3244 13.1588 27.4423 13.1552C27.5601 13.1517 27.6729 13.1066 27.7607 13.0279L27.7608 13.0285Z" fill="#FAEDCD"/>
<path d="M18.5621 23.0896C18.7802 22.8823 18.9001 22.7774 19.0098 22.6627C22.5271 18.988 26.3792 15.6796 30.254 12.3969C30.4004 12.2729 30.5503 12.1147 30.7236 12.0703C30.9326 12.0169 31.2734 12.0783 31.3668 12.1918C31.4282 12.2756 31.467 12.3739 31.4795 12.477C31.4919 12.5802 31.4777 12.6848 31.4381 12.7809C31.347 13.0197 31.1252 13.2243 30.9239 13.403C29.7228 14.4703 28.4882 15.5007 27.3084 16.59C24.842 18.8678 22.3913 21.1625 19.9564 23.4742C18.8894 24.4849 18.4788 24.5258 17.497 23.4459C16.8508 22.7346 14.9003 20.3374 14.303 19.5821C14.2186 19.4647 14.1435 19.341 14.0782 19.2119C13.9435 18.973 13.8554 18.7098 14.1232 18.5245C14.4215 18.3183 14.6332 18.5335 14.8101 18.7577C14.989 18.9846 15.1416 19.2339 15.3332 19.4489C15.928 20.1164 17.9194 22.3857 18.5621 23.0896Z" fill="#FAEDCD"/>
</svg>
