<svg width="12" height="14" viewBox="0 0 12 14" fill="none" xmlns="http://www.w3.org/2000/svg">
<g clip-path="url(#clip0_18_249)">
<path d="M1.05561 3.20534C0.841177 3.17041 0.663831 3.14973 0.490291 3.11139C0.179602 3.0428 0.0207186 2.89022 0.0169142 2.6747C0.0129831 2.44839 0.1782 2.25482 0.499857 2.2134C0.959232 2.15425 1.42433 2.13769 1.88751 2.11412C2.13796 2.10128 2.38954 2.11187 2.67949 2.11187C2.63746 1.91549 2.60736 1.76251 2.57172 1.61095C2.49664 1.30732 2.53655 0.986215 2.68358 0.710903C2.88014 0.328793 3.17966 0.0959999 3.60708 0.0815503C4.38769 0.055177 5.1686 0.0403227 5.94985 0.0369832C6.46701 0.0344786 6.98434 0.0588766 7.50154 0.0713355C7.57541 0.0731336 7.64953 0.0728132 7.72315 0.0783361C8.25068 0.117767 8.58826 0.39205 8.70955 0.915573C8.76446 1.15261 8.7715 1.40134 8.7961 1.64525C8.80878 1.77112 8.81246 1.89788 8.82146 2.04341C8.90655 2.05641 8.99234 2.06434 9.07838 2.06717C9.64821 2.05086 10.2178 2.02684 10.7877 2.01425C10.9345 2.00785 11.0815 2.02281 11.2241 2.0587C11.3386 2.08582 11.4415 2.14955 11.5174 2.24045C11.5934 2.33135 11.6385 2.4446 11.646 2.56346C11.6657 2.68601 11.6476 2.81172 11.5942 2.92346C11.5407 3.0352 11.4546 3.12753 11.3474 3.18788C11.259 3.24247 11.162 3.28279 11.052 3.33815C11.052 3.64936 11.0415 3.95801 11.0537 4.26569C11.126 6.09128 11.2255 7.91661 11.1585 9.74431C11.1343 10.4053 11.0901 11.0683 11.0008 11.7228C10.9513 12.0864 10.8067 12.4407 10.6751 12.7876C10.6128 12.9539 10.5145 13.1039 10.3873 13.2266C10.2601 13.3493 10.1073 13.4415 9.94032 13.4964C9.63172 13.6036 9.31489 13.6847 8.9931 13.7387C8.69979 13.7768 8.40463 13.798 8.10903 13.8021C6.9598 13.8599 5.81094 13.9285 4.66108 13.9661C4.17633 13.987 3.6907 13.9658 3.20953 13.9027C1.97166 13.7263 1.29885 13.0354 1.10292 11.7807C1.04487 11.4331 1.01259 11.0816 1.00636 10.7291C0.993255 8.70985 0.988513 6.69051 0.992152 4.67118C0.992786 4.19184 1.03254 3.71236 1.05561 3.20534ZM2.00349 3.28337C2.06055 4.28013 2.10283 9.16017 2.21683 10.6296C2.25043 11.0629 2.34897 11.4921 2.4333 11.92C2.51738 12.3466 2.80201 12.5947 3.21002 12.6615C3.66655 12.7361 4.13088 12.8081 4.5912 12.8047C5.74145 12.796 6.89183 12.7559 8.04113 12.7032C8.48116 12.683 8.91898 12.5993 9.35635 12.5343C9.43605 12.5241 9.51062 12.4888 9.56927 12.4332C9.62798 12.3776 9.6678 12.3046 9.68315 12.2248C9.7437 11.9769 9.82201 11.7303 9.85092 11.4782C10.017 10.0305 9.9828 8.57737 9.93893 7.12477C9.90437 5.98249 9.86417 4.84039 9.82606 3.69823C9.82258 3.59548 9.8156 3.49234 9.81091 3.4025C7.12003 3.36275 4.717 3.32351 2.00367 3.28337H2.00349ZM3.6964 2.08888C5.02279 2.13749 6.32287 2.13537 7.63134 2.07353V1.18537C6.30841 1.14041 5.00998 1.09212 3.6964 1.22242V2.08888Z" fill="#BF1235"/>
<path d="M7.98387 7.7206C7.97005 7.03081 7.93765 6.33173 7.90626 5.65555L7.90563 5.64271C7.89434 5.39756 7.88331 5.15242 7.8724 4.90727C7.86758 4.8216 7.85167 4.73694 7.82516 4.65545C7.76702 4.46921 7.63583 4.37102 7.46603 4.38727C7.36319 4.39587 7.18603 4.44949 7.15452 4.71112C7.14945 4.7582 7.14691 4.80551 7.14691 4.85286C7.13677 5.70314 7.06011 8.51417 7.05935 8.54281C7.04502 9.2186 7.03018 9.91713 7.02004 10.6101C7.01478 10.8009 7.03177 10.9917 7.07076 11.1785C7.08959 11.2774 7.14228 11.3664 7.21951 11.4298C7.2968 11.4933 7.39369 11.5271 7.49311 11.5253C7.50477 11.5253 7.51657 11.5248 7.52843 11.524C7.62664 11.5212 7.72067 11.4831 7.79378 11.4167C7.86682 11.3501 7.91419 11.2595 7.92737 11.1609C7.96218 10.9556 7.98127 10.7479 7.98444 10.5397L7.98786 10.0617C7.99344 9.29483 7.99953 8.50191 7.98387 7.7206Z" fill="#BF1235"/>
<path d="M4.59056 4.43231H4.59025C4.52698 4.43207 4.46461 4.44739 4.40849 4.47699C4.35237 4.50657 4.30418 4.54955 4.26809 4.60218C4.20696 4.71295 4.17246 4.83675 4.1674 4.96354C4.15663 5.13533 4.14532 5.30705 4.13378 5.48295C4.09415 6.08797 4.05308 6.71363 4.03545 7.33111C4.01009 8.20926 4.00153 9.1016 3.99297 9.96459C3.9904 10.2287 3.98764 10.4929 3.98468 10.757C3.98453 10.8651 3.99945 10.9727 4.02905 11.0766C4.09822 11.3249 4.26467 11.4792 4.46338 11.4792H4.46973C4.67789 11.4755 4.84424 11.309 4.89338 11.055C4.91761 10.9205 4.92786 10.7839 4.92391 10.6473C4.91288 9.94603 4.89935 9.24494 4.88654 8.57885L4.87493 7.97659L4.88821 7.2613C4.90267 6.48649 4.91628 5.75409 4.92725 5.01806C4.93376 4.89465 4.91571 4.77117 4.87419 4.65495C4.84872 4.59702 4.8095 4.54638 4.76001 4.50753C4.71052 4.46868 4.65231 4.44285 4.59056 4.43231Z" fill="#BF1235"/>
</g>
<defs>
<clipPath id="clip0_18_249">
<rect width="11.6667" height="14" fill="white"/>
</clipPath>
</defs>
</svg>
