<svg width="40" height="40" viewBox="0 0 40 40" fill="none" xmlns="http://www.w3.org/2000/svg">
<rect width="40" height="40" rx="20" fill="#131313"/>
<g clip-path="url(#clip0_8_78)">
<path d="M13.1747 14.5791C12.8683 14.5292 12.615 14.4996 12.3671 14.4448C11.9232 14.3469 11.6962 14.1289 11.6908 13.821C11.6852 13.4977 11.9212 13.2212 12.3807 13.162C13.037 13.0775 13.7014 13.0538 14.3631 13.0202C14.7209 13.0018 15.0803 13.017 15.4945 13.017C15.4344 12.7364 15.3914 12.5179 15.3405 12.3014C15.2333 11.8676 15.2903 11.4089 15.5003 11.0156C15.7811 10.4697 16.209 10.1371 16.8196 10.1165C17.9348 10.0788 19.0504 10.0576 20.1664 10.0528C20.9052 10.0493 21.6443 10.0841 22.3831 10.1019C22.4887 10.1045 22.5945 10.104 22.6997 10.1119C23.4533 10.1682 23.9356 10.5601 24.1089 11.308C24.1873 11.6466 24.1974 12.0019 24.2325 12.3504C24.2506 12.5302 24.2559 12.7113 24.2687 12.9192C24.3903 12.9377 24.5128 12.9491 24.6358 12.9531C25.4498 12.9298 26.2636 12.8955 27.0777 12.8775C27.2874 12.8684 27.4974 12.8897 27.7011 12.941C27.8647 12.9798 28.0116 13.0708 28.1201 13.2007C28.2287 13.3305 28.2931 13.4923 28.3038 13.6621C28.332 13.8372 28.306 14.0167 28.2298 14.1764C28.1534 14.336 28.0303 14.4679 27.8772 14.5541C27.7509 14.6321 27.6123 14.6897 27.4551 14.7688C27.4551 15.2134 27.4402 15.6543 27.4576 16.0938C27.5609 18.7018 27.7031 21.3094 27.6073 23.9205C27.5727 24.8647 27.5096 25.8118 27.3821 26.7469C27.3114 27.2662 27.1048 27.7725 26.9167 28.268C26.8278 28.5056 26.6873 28.7199 26.5056 28.8951C26.324 29.0705 26.1057 29.2021 25.8671 29.2805C25.4262 29.4337 24.9736 29.5495 24.5139 29.6268C24.0949 29.6812 23.6733 29.7114 23.251 29.7172C21.6092 29.7998 19.968 29.8978 18.3253 29.9516C17.6328 29.9815 16.9391 29.9511 16.2517 29.861C14.4833 29.609 13.5221 28.622 13.2422 26.8295C13.1593 26.333 13.1132 25.8308 13.1043 25.3273C13.0856 22.4427 13.0788 19.5579 13.084 16.6731C13.0849 15.9883 13.1417 15.3034 13.1747 14.5791ZM14.5288 14.6905C14.6103 16.1145 14.6707 23.086 14.8335 25.1851C14.8815 25.8041 15.0223 26.4172 15.1428 27.0286C15.2629 27.638 15.6695 27.9924 16.2524 28.0878C16.9046 28.1945 17.5679 28.2973 18.2255 28.2924C19.8687 28.28 21.5121 28.2227 23.154 28.1474C23.7826 28.1186 24.408 27.999 25.0329 27.9061C25.1467 27.8916 25.2532 27.8411 25.337 27.7617C25.4209 27.6823 25.4778 27.5781 25.4997 27.4639C25.5862 27.1099 25.6981 26.7575 25.7394 26.3974C25.9766 24.3293 25.9278 22.2534 25.8651 20.1782C25.8157 18.5464 25.7583 16.9148 25.7039 15.2832C25.6989 15.1364 25.6889 14.9891 25.6822 14.8607C21.8381 14.8039 18.4052 14.7479 14.529 14.6905H14.5288ZM16.9472 12.9841C18.8421 13.0536 20.6993 13.0505 22.5685 12.9622V11.6934C20.6787 11.6292 18.8238 11.5602 16.9472 11.7463V12.9841Z" fill="#FAEDCD"/>
<path d="M23.0722 21.0294C23.0524 20.044 23.0061 19.0453 22.9613 18.0794L22.9604 18.061C22.9443 17.7108 22.9285 17.3606 22.9129 17.0104C22.9061 16.888 22.8833 16.7671 22.8455 16.6507C22.7624 16.3846 22.575 16.2443 22.3324 16.2675C22.1855 16.2798 21.9324 16.3564 21.8874 16.7302C21.8801 16.7974 21.8765 16.865 21.8765 16.9327C21.862 18.1474 21.7525 22.1631 21.7514 22.204C21.731 23.1694 21.7098 24.1673 21.6953 25.1572C21.6878 25.4299 21.712 25.7025 21.7677 25.9693C21.7946 26.1105 21.8699 26.2377 21.9802 26.3283C22.0907 26.419 22.2291 26.4672 22.3711 26.4647C22.3878 26.4647 22.4046 26.464 22.4215 26.4628C22.5618 26.4589 22.6962 26.4045 22.8006 26.3095C22.905 26.2145 22.9726 26.085 22.9915 25.9441C23.0412 25.6509 23.0685 25.3542 23.073 25.0567L23.0779 24.3739C23.0859 23.2783 23.0945 22.1456 23.0722 21.0294Z" fill="#FAEDCD"/>
<path d="M18.2246 16.3319H18.2241C18.1338 16.3315 18.0447 16.3534 17.9645 16.3957C17.8843 16.438 17.8155 16.4994 17.7639 16.5745C17.6766 16.7328 17.6273 16.9096 17.6201 17.0908C17.6047 17.3362 17.5885 17.5815 17.572 17.8328C17.5154 18.6971 17.4567 19.5909 17.4316 20.473C17.3953 21.7275 17.3831 23.0023 17.3709 24.2351C17.3672 24.6125 17.3633 24.9898 17.359 25.3671C17.3588 25.5216 17.3801 25.6753 17.4224 25.8238C17.5212 26.1784 17.759 26.3988 18.0429 26.3988H18.052C18.3493 26.3936 18.587 26.1558 18.6572 25.7928C18.6918 25.6007 18.7064 25.4056 18.7008 25.2105C18.685 24.2086 18.6657 23.2071 18.6474 22.2555L18.6308 21.3951L18.6498 20.3733C18.6705 19.2664 18.6899 18.2201 18.7056 17.1687C18.7149 16.9924 18.6891 16.816 18.6298 16.6499C18.5934 16.5672 18.5373 16.4948 18.4666 16.4393C18.396 16.3838 18.3128 16.3469 18.2246 16.3319Z" fill="#FAEDCD"/>
</g>
<defs>
<clipPath id="clip0_8_78">
<rect width="16.6667" height="20" fill="white" transform="translate(11.6667 10)"/>
</clipPath>
</defs>
</svg>
