<svg width="20" height="20" viewBox="0 0 20 20" fill="none" xmlns="http://www.w3.org/2000/svg">
<path d="M20 2.5C20 1.8125 19.7554 1.22417 19.2663 0.735C18.7763 0.245 18.1875 0 17.5 0L8.75 0C8.0625 0 7.47375 0.245 6.98375 0.735C6.49458 1.22417 6.25 1.8125 6.25 2.5C6.25 3.1875 6.49458 3.77583 6.98375 4.265C7.47375 4.755 8.0625 5 8.75 5L17.5 5C18.1875 5 18.7763 4.755 19.2663 4.265C19.7554 3.77583 20 3.1875 20 2.5ZM20 10C20 9.3125 19.7554 8.72417 19.2663 8.235C18.7763 7.745 18.1875 7.5 17.5 7.5L2.5 7.5C1.8125 7.5 1.22417 7.745 0.735 8.235C0.245 8.72417 0 9.3125 0 10C0 10.6875 0.245 11.2763 0.735 11.7663C1.22417 12.2554 1.8125 12.5 2.5 12.5L17.5 12.5C18.1875 12.5 18.7763 12.2554 19.2663 11.7663C19.7554 11.2763 20 10.6875 20 10ZM20 17.5C20 16.8125 19.7554 16.2237 19.2663 15.7337C18.7763 15.2446 18.1875 15 17.5 15H13.75C13.0625 15 12.4737 15.2446 11.9837 15.7337C11.4946 16.2237 11.25 16.8125 11.25 17.5C11.25 18.1875 11.4946 18.7763 11.9837 19.2663C12.4737 19.7554 13.0625 20 13.75 20H17.5C18.1875 20 18.7763 19.7554 19.2663 19.2663C19.7554 18.7763 20 18.1875 20 17.5Z" fill="#FAEDCD"/>
</svg>
