<svg width="296" height="227" viewBox="0 0 296 227" fill="none" xmlns="http://www.w3.org/2000/svg">
<path fill-rule="evenodd" clip-rule="evenodd" d="M92.0974 103.102C93.1724 113.955 94.2474 124.81 95.3221 135.663C101.175 132.324 107.028 128.984 112.88 125.644V150.371V156.87C112.88 157.445 112.539 159.421 112.88 159.919C113.17 160.341 115.314 160.353 115.821 160.425C119.13 160.888 122.448 161.3 125.769 161.667C134.524 162.633 143.894 164.019 152.682 162.908C160.321 161.942 167.727 159.225 174.706 156.063C177.157 154.953 179.573 153.765 181.944 152.496C182.447 152.227 184.272 151.591 184.545 151.044C184.768 150.596 184.244 149.023 184.174 148.553C183.88 146.57 183.585 144.586 183.29 142.603L179.171 114.91L186.952 122.68C187.561 123.288 188.719 125.017 189.562 125.286C190.181 125.484 191.712 124.872 192.324 124.754C196.729 123.905 201.135 123.056 205.541 122.207C206.567 122.009 208.881 122.017 209.746 121.397C210.212 121.063 210.234 120.383 210.398 119.739C211.473 115.529 212.548 111.319 213.622 107.11C213.816 106.351 214.896 103.961 214.621 103.197C214.522 102.923 214.046 102.736 213.754 102.558C207.105 98.4961 200.455 94.4346 193.805 90.3731C190.163 88.1484 186.52 85.9233 182.877 83.6986C181.351 82.7663 179.477 81.087 177.748 80.5656C176.675 80.242 175.113 80.4844 174.002 80.4526C171.745 80.3882 169.489 80.3238 167.231 80.2595C166.878 80.2496 165.64 79.9976 165.343 80.2057C165.095 80.379 165.198 80.6203 165.117 81.0332C164.918 82.0419 164.917 83.1292 164.819 84.1529C164.741 84.9743 164.896 86.4807 164.526 87.2243C164.29 87.6995 164.59 87.5102 164.27 87.7399C163.889 88.0135 162.673 87.9255 162.219 87.9779C160.008 88.235 157.796 88.4917 155.584 88.7485C152.955 89.0539 150.296 89.627 147.654 89.3631C143.649 88.9632 139.331 88.983 135.398 88.1394C134.376 87.92 134.008 87.3441 133.22 86.557C131.681 85.0205 130.158 83.4661 128.602 81.946C127.84 81.201 128.166 81.3273 127.38 81.6098C126.395 81.9638 125.396 82.8183 124.505 83.3613C121.089 85.4419 117.673 87.5228 114.257 89.6034L93.4025 102.307C92.9673 102.572 92.5325 102.837 92.0974 103.102Z" fill="#BF1235"/>
<path fill-rule="evenodd" clip-rule="evenodd" d="M291.567 104.451C287.268 120.772 278.621 138.568 261.202 143.77C256.967 145.035 252.848 145.99 248.449 145.508C248.03 145.462 247.68 145.521 247.282 145.529C246.568 145.542 247.184 145.799 246.384 145.552C245.76 145.359 245.176 144.877 244.526 144.664C242.798 144.099 240.955 143.989 239.198 143.532C234.882 142.409 230.434 141.023 226.251 139.475C224.282 138.746 222.472 137.73 220.62 136.753C218.737 135.761 216.741 135.144 214.837 134.234C213.332 133.514 210.754 132.576 209.696 131.227C208.568 129.787 210.128 126.722 210.575 125.192C212.092 119.985 213.898 114.853 215.039 109.542C218.976 114.105 224.441 116.931 230.098 118.754C233.168 119.743 236.326 120.458 239.518 120.905C242.417 121.311 245.544 121.803 248.45 121.226C250.643 120.791 253.397 119.783 254.963 118.108C255.523 117.511 256.193 116.415 255.88 115.547C255.482 114.445 254.324 114.963 253.697 114.141C253.151 113.424 253.236 111.749 253.062 110.877C252.754 109.332 252.331 107.831 251.815 106.345C250.813 103.459 249.564 100.566 249.264 97.4957C249.004 94.8314 249.611 92.3123 250.94 90.0006C251.568 88.9077 253.145 85.9346 254.684 86.0582C256.375 86.1938 254.095 93.3178 254.021 94.7708C253.725 100.532 254.498 106.67 257.454 111.719C258.586 113.653 260.223 115.904 262.639 116.144C265.199 116.397 267.264 114.383 268.482 112.345C271.455 107.374 269.956 100.552 268.451 95.3412C266.604 88.9481 261.783 84.5418 258.735 78.8003C263.286 79.2577 265.723 82.1487 268.058 85.8165C270.63 89.8544 272.631 94.7023 273.618 99.4007C274.117 101.775 273.773 104.158 273.776 106.555C273.777 107.352 273.777 110.29 275.075 110.174C276.463 110.05 276.939 106.737 277.143 105.726C277.61 103.407 278.117 101.089 278.523 98.7587C279.242 94.6363 279.561 90.4138 280.422 86.3201C280.568 85.6282 280.858 83.7082 281.894 84.2265C282.692 84.6257 282.564 87.5954 282.593 88.2856C282.665 89.9865 282.766 91.6874 282.78 93.39C282.8 95.9136 282.297 98.5259 282.544 101.034C282.705 102.673 283.584 104.484 284.675 102.274C285.756 100.082 285.977 97.3482 286.58 94.9906C287.213 92.516 287.867 90.0043 289.211 87.8063C289.584 87.1966 289.985 86.2284 290.813 86.5153C291.415 86.7241 291.86 88.1511 292.046 88.6547C292.886 90.9311 292.744 93.4619 292.69 95.8448C292.626 98.7645 292.312 101.62 291.567 104.451ZM207.738 108.686C207.508 108.612 206.532 108.52 206.29 108.498C206.006 108.474 206.329 107.951 205.642 108.1C205.775 108.428 206.01 108.647 206.348 108.757C205.316 109.106 204.555 108.244 203.849 108.133C203.174 108.027 203.145 108.133 202.478 108.846C201.756 107.966 201.891 108.515 201.298 108.515C201.082 108.516 201.072 108.842 200.721 108.803C200.414 108.769 200.382 108.303 200.2 108.248C199.215 107.95 198.201 109.45 197.084 108.149C196.813 109.503 193.711 107.807 192.518 108.045C191.267 108.294 191.806 108.742 190.795 107.976C189.832 107.245 190.101 107.731 188.98 108.328C189.006 108.314 188.347 108.759 188.409 108.766C187.633 108.675 187.677 107.874 186.695 107.916C185.655 107.961 185.211 108.776 184.259 107.773C184.052 108.524 184.009 108.201 183.522 108.39C183.254 108.454 183.019 108.383 182.818 108.179C182.757 108.385 182.623 108.512 182.415 108.559C181.884 108.606 180.887 108.68 180.405 108.424C179.681 108.041 180.263 107.893 179.761 107.461C179.536 108.652 179.043 108.399 178.003 108.51C177.21 108.595 177.035 108.352 176.277 108.233C175.531 108.117 174.566 108.406 173.838 108.53C173.537 108.581 173.135 108.79 172.829 108.717C172.553 108.65 172.435 108.436 172.271 108.38C172.071 108.313 172.113 108.138 171.768 108.053C171.529 107.996 171.103 108.219 170.865 108.257C169.167 108.533 167.537 108.536 165.918 107.868C166.716 109.269 164.054 108.513 163.58 107.933C162.987 108.862 162.269 108.206 161.074 108.278C159.923 108.348 158.192 108.701 157.725 107.267C157.634 107.558 156.98 108.404 156.721 108.533C155.966 108.907 155.876 108.354 155.174 108.129C154.22 107.822 154.419 108.404 153.827 108.522C152.827 108.723 152.287 108.019 151.404 107.645C151.366 108.226 151.347 108.584 150.844 108.946C150.399 107.324 148.809 109.079 149.082 106.912C148.477 107.305 147.626 107.608 147.454 108.404C148.465 108.126 147.562 108.787 147.519 108.809C147.386 108.879 146.934 108.245 146.83 108.156C146.801 108.455 146.772 108.754 146.744 109.053C146.341 108.851 145.963 108.491 145.636 108.31C145.341 108.147 145.763 107.808 145.265 107.785C145.003 107.772 144.729 108.341 144.454 108.389C144.033 108.463 144.235 107.859 144.059 107.879C143.79 107.91 143.353 108.303 143.15 108.295C142.484 108.27 142.935 107.961 142.427 107.818C141.519 107.564 141.577 108.158 140.925 108.372C139.432 108.862 139.582 106.607 138.063 108.111C137.699 108.471 137.465 109.027 136.968 108.996C135.937 108.931 136.299 107.709 136.508 107.111C136.725 107.218 132.742 109.264 132.773 109.184C132.798 108.693 133.425 108.315 132.865 107.879C132.407 108.861 131.926 108.878 130.87 109.061C130.356 109.15 130.255 109.269 129.706 109.055C129.356 108.92 129.122 108.362 128.774 108.331C128.821 108.335 128.182 108.821 128.085 108.865C127.509 109.125 127.144 108.83 126.584 108.937C126.107 109.028 125.919 109.434 125.444 109.323C124.81 109.175 125.182 108.418 124.31 108.629C124.012 108.701 123.833 109.276 123.363 109.394C122.631 109.58 121.734 109.234 120.96 109.414C120.346 109.558 119.89 109.618 119.353 109.648C118.919 109.672 119.097 109.335 118.299 109.733L117.96 108.879C117.56 109.239 117.16 109.598 116.76 109.958C116.685 109.636 116.636 109.31 116.616 108.979C116.02 109.576 115.269 109.678 114.467 109.732C113.599 109.79 112.952 109.979 112.108 110.138C111.841 110.188 111.153 110.268 110.934 110.175C110.966 110.188 110.523 110.004 110.656 110.039C110.599 109.922 110.545 109.803 110.496 109.682C110.421 109.345 110.179 109.33 109.769 109.637C109.558 109.605 109.147 109.327 108.935 109.395C108.391 109.572 108.465 109.994 107.922 109.932C107.57 109.892 107.39 109.371 107.023 109.336C106.462 109.282 105.976 109.91 105.47 110.047C107.008 109.63 103.476 109.954 104.574 109.983C103.854 109.964 103.107 109.928 102.441 110.251C102.074 109.999 102.52 109.494 102.149 109.286C101.812 109.098 101.786 109.596 101.746 109.607C101.959 109.546 101.853 109.97 101.64 110.046C100.978 110.28 100.447 109.683 100.413 109.091C99.8503 109.938 99.6922 109.598 98.8643 109.65C98.0478 109.702 97.3435 110.13 96.5266 110.122C94.911 110.107 93.8147 109.545 93.2755 108.103C94.9969 108.312 96.7296 107.205 98.4131 107.466C98.9663 107.552 99.3118 107.967 99.7966 107.893C100.394 107.803 100.811 107.151 101.577 107.081C103.265 106.927 104.93 107.077 106.631 106.818C108.662 106.509 110.782 106.325 112.833 106.476C114.417 106.592 115.701 105.987 117.308 105.87C119.386 105.719 121.481 105.692 123.562 105.583C125.701 105.471 128.002 105.129 130.135 105.239C130.801 105.273 131.374 105.338 132.034 105.298C132.314 105.281 132.578 105.092 132.871 105.12C133.254 105.157 133.418 105.548 133.814 105.534C134.487 105.511 135.206 104.957 136.007 104.942C137.322 104.917 138.632 104.92 139.951 104.845C141.113 104.779 142.357 104.507 143.513 104.522C144.329 104.532 144.53 105.227 145.005 105.299C145.86 105.428 150.182 102.968 150.556 105.175C152.806 103.635 155.824 104.94 158.329 104.65C161.547 104.278 164.824 104.61 168.064 104.477C171.361 104.343 174.753 104.467 178.036 104.778C179.396 104.907 180.71 105.028 182.074 104.95C182.682 104.915 183.385 104.76 183.993 104.9C184.141 104.934 185.268 105.721 185.128 105.743C185.744 105.19 185.328 105.11 186.411 105.081C187.247 105.059 188.036 105.24 188.867 105.289C190.358 105.377 191.86 105.171 193.348 105.216C194.59 105.254 195.804 105.437 197.053 105.446C198.399 105.456 199.988 105.494 200.962 106.579C200.859 106.238 200.756 105.898 200.653 105.557C202.156 105.675 203.64 106.211 205.159 105.96C204.775 106.328 204.385 106.629 204.238 107.168C205.057 107.065 205.612 106.493 206.474 106.488C207.198 106.484 207.349 106.847 208.113 106.378C208.207 106.953 208.302 107.528 208.396 108.103C209.455 107.854 208.76 107.064 208.837 106.352C209.698 106.611 210.427 106.314 210.087 107.552C209.826 108.507 208.634 108.977 207.738 108.686ZM206.25 119.319C205.88 120.356 202.686 119.764 201.931 119.654C200.955 119.512 199.839 119.289 198.941 119.177C198.833 119.033 198.703 118.912 198.553 118.811C198.44 118.969 198.297 119.08 198.124 119.146C197.711 119.237 197.71 119.662 197.168 119.568C197.142 120.199 197.58 119.84 197.916 120.069C197.071 120.636 197.457 119.984 196.983 119.994C196.865 119.827 196.702 119.762 196.492 119.798C196.225 119.867 195.978 119.981 195.753 120.141C195.541 120.364 195.361 120.375 195.21 120.176C195.066 120.03 194.89 119.941 194.681 119.907C193.849 120.042 193.616 120.412 192.678 120.351C191.339 120.265 189.889 120.618 188.571 120.432C187.753 120.317 186.388 119.033 186.016 120.285C185.452 119.357 184.551 118.725 184.01 117.777C186.531 117.631 189.05 117.458 191.572 117.367C193.78 117.287 196.196 117.536 198.26 117.432C200.193 117.334 202.24 117.121 204.214 116.944C206.306 116.757 206.998 117.216 206.25 119.319ZM140.506 119.472C141.421 119.725 142.292 119.151 143.18 119.333C143.473 119.393 144.081 119.927 144.214 119.937C144.459 119.957 145.177 119.432 145.485 119.362C147.434 118.918 149.795 118.966 151.744 119.238C152.777 119.382 152.935 118.91 153.837 118.681C154.774 118.442 156.105 118.625 157.092 118.56C159.413 118.404 161.733 118.515 164.038 118.345C166.404 118.171 168.759 118.077 171.126 117.955C172.739 117.872 176.615 116.952 177.952 118.149C179.054 119.136 177.634 120.85 176.531 121.241C175.707 121.533 175.312 120.918 174.7 120.977C174.003 121.044 174.246 121.867 173.624 121.103C173.238 121.863 170.815 121.539 170.121 121.589C168.607 121.698 167.327 122.002 166.297 120.591C166.367 120.997 166.437 121.405 166.507 121.812C165.141 121.082 163.675 121.315 162.489 121.57C161.902 121.696 160.1 122.567 159.464 122.191C159.026 121.933 159.797 121.491 159.059 121.271C158.672 121.155 158.004 121.798 157.531 121.766C156.223 121.676 156.594 120.796 155.309 121.916C154.873 121.539 154.728 120.899 154.786 120.35C153.852 121.146 153.93 122.474 152.261 122.231C151.639 122.14 151.524 121.505 151.2 121.389C150.509 121.139 150.431 121.588 149.832 121.943C149.606 122.076 149.331 122.292 149.065 122.319C148.518 122.373 148.432 122.122 148.357 122.131C147.993 122.171 147.535 122.355 147.104 122.223C146.717 122.105 146.603 121.422 145.921 121.581C145.268 121.734 145.263 122.178 145.381 122.842C144.737 122.775 144.348 122.416 143.866 122.028C143.38 123.162 142.356 122.223 141.79 123.18C141.053 122.299 140.58 122.541 139.664 121.681C139.71 122.04 139.754 122.399 139.799 122.758C139.085 122.62 138.767 122.117 138.158 122.783C137.567 121.682 135.774 123.251 134.853 122.187C134.443 123.535 131.727 123.212 130.58 123.236C129.564 123.257 128.811 123.173 127.818 123.409C126.94 123.618 125.724 123.834 124.898 123.739C124.359 123.676 123.77 123.577 123.098 123.651C122.129 123.755 121.292 124.257 120.289 124.02C118.778 123.663 117.852 121.678 119.535 120.806C120.686 120.21 122.761 120.431 124.028 120.32C126.129 120.138 128.483 119.756 130.586 119.929C132.227 120.065 133.722 119.674 135.396 119.508C136.656 119.384 138.722 119.16 139.544 120.409C139.859 120.044 139.827 119.284 140.506 119.472ZM117.512 136.569C117.286 135.445 126.889 134.827 127.842 134.753C129.844 134.599 131.85 134.489 133.856 134.438C135.505 134.396 137.044 134.711 138.693 134.458C140.233 134.222 142.093 133.737 143.433 134.828C143.63 133.336 149.411 134.063 150.511 134.067C155.298 134.084 159.879 134.095 164.509 133.799C167.156 133.629 169.966 133.401 172.613 133.534C173.807 133.594 174.768 133.912 175.955 133.636C176.73 133.455 177.564 133.081 178.305 133.611C179.171 134.231 179.542 136.336 178.945 137.215C178.51 137.856 178.125 137.785 177.43 137.674C176.362 137.504 175.569 137.257 174.48 137.691C174.656 137.62 173.75 137.823 173.825 137.817C172.591 137.909 170.899 138.771 169.836 137.778C170.262 137.852 170.881 137.092 170.344 137.029C169.941 136.983 169.685 137.415 169.371 137.559C168.294 138.054 167.744 137.9 167.101 136.861C165.805 137.983 165.665 137.672 165.096 136.291C164.658 136.628 164.564 137.426 164.219 137.688C164.167 137.727 164.38 138.212 164.131 138.192C163.9 138.173 163.824 137.795 163.646 137.765C163.533 137.746 163.474 137.414 163.365 137.393C163.248 137.371 163.127 137.583 162.993 137.577C162.637 137.56 161.619 138.318 161.984 137.255C161.444 137.941 161.212 137.504 161.017 136.879C160.394 137.353 159.771 137.826 159.148 138.3C158.858 137.494 158.359 137.713 157.732 137.995C157.921 137.435 157.802 136.906 157.328 137.295C157.053 137.52 156.869 138.235 156.588 138.539C155.45 137.387 155.037 137.703 153.465 137.853C152.865 137.91 152.119 138.021 151.584 137.658C151.112 137.34 150.846 136.171 150.04 137.115C150.22 136.905 149.938 138.518 149.889 138.774C149.533 138.535 149.231 138.24 148.983 137.891C148.519 138.809 147.302 137.985 146.304 138.173C144.734 138.468 143.114 138.966 141.727 137.797C141.629 138.174 140.493 138.655 140.491 138.67C140.558 138.001 140.98 138.236 140.119 138.11C139.961 138.086 139.781 138.371 139.631 138.402C139.118 138.508 138.519 138.408 138.001 138.393C135.849 138.331 133.88 138.808 131.755 138.981C131.039 139.039 130.189 139.153 129.517 138.883C128.824 138.605 128.843 138.289 128.142 138.468C128.364 138.411 127.704 139.105 127.74 139.078C127.646 139.147 127.253 138.809 127.113 138.834C127.072 138.982 127.031 139.13 126.991 139.277C126.821 139.257 126.653 139.236 126.484 139.215C126.022 139.277 125.605 138.809 125.171 138.794C125.251 138.796 123.999 139.262 124.057 139.29C123.183 138.855 123.434 138.981 122.325 139.247C121.278 139.497 120.235 139.439 119.16 139.595C116.034 140.049 117.897 138.482 117.512 136.569ZM114.751 152.198C114.163 151.364 115.727 151.076 116.227 151.003C117.048 150.881 118.138 151.122 118.686 150.992C119.519 150.793 120.324 150.32 121.263 150.192C122.447 150.03 123.641 150.004 124.831 149.902C125.227 149.868 125.717 149.732 126.103 149.755C126.677 149.789 126.915 150.093 127.379 150.095C128.168 150.099 129.142 149.601 129.951 149.509C130.987 149.391 132.034 149.337 133.075 149.285C135.269 149.176 137.44 149.221 139.632 149.219C140.632 149.217 143.295 148.18 143.794 149.343C144.487 148.461 146.265 148.582 147.256 148.556C149.003 148.511 150.731 148.343 152.475 148.262C153.969 148.192 155.638 148.512 157.105 148.288C157.913 148.165 158.181 147.905 159.098 148.023C159.779 148.109 160.818 147.749 161.402 147.908C161.372 147.9 162.132 148.371 161.895 148.386C162.156 148.369 162.141 148.552 162.429 148.47C162.807 148.364 162.633 147.888 163.417 147.719C164.639 147.456 166.269 147.761 167.539 147.693C168.771 147.627 170.001 147.599 171.234 147.605C171.802 147.607 172.504 147.472 173.056 147.583C173.327 147.637 173.902 147.99 174.131 147.954C174.781 147.853 175.112 147.402 175.99 147.43C176.986 147.461 177.883 147.447 178.873 147.371C179.832 147.298 179.986 147.161 180.461 147.959C180.932 148.75 181.062 149.781 180.195 150.319C180.758 150.282 181.451 151.036 180.787 151.453C180.377 151.712 179.555 151.129 179.064 151.171C178.459 151.223 177.984 151.543 177.326 151.563C176.634 151.584 175.931 151.758 175.249 151.772C174.537 151.785 174 151.467 173.325 151.603C172.732 151.722 172.67 152.208 171.955 151.781C171.6 151.569 171.54 150.782 171.056 150.775C170.406 150.765 170.665 151.603 170.292 151.992C170.192 150.793 169.266 152.777 168.898 151.321C168.559 151.805 167.303 152.481 166.694 152.093C166.139 151.739 166.323 150.937 166.092 150.361C165.707 151.398 164.676 152.474 164.769 150.586C164.267 151.202 162.913 151.105 163.252 152.185C162.844 152.177 162.747 151.594 162.404 151.55C162.107 151.512 161.871 151.74 161.826 151.737C161.988 151.75 161.34 151.966 161.33 151.968C161.769 151.879 160.063 151.727 160.353 151.729C159.958 151.726 159.473 152.05 159.01 152.049C158.589 152.048 158.169 151.882 157.753 151.835C156.674 151.712 156.899 151.949 156.221 152.287C155.97 152.413 155.907 152.625 155.551 152.599C155.288 152.579 155.19 152.236 155.16 152.233C154.79 152.196 155.064 152.072 154.489 152.129C154.423 152.243 154.358 152.356 154.292 152.469C154.085 152.734 153.816 152.8 153.486 152.668C152.636 152.85 149.818 153.64 150.094 152.178C149.662 152.388 149.231 152.6 148.799 152.811C148.614 151.631 146.268 153.195 145.744 153.274C145.071 153.375 145.01 153.117 144.374 152.98C144.259 152.955 144.03 153.333 143.761 153.279C143.064 153.139 142.94 153.069 142.82 152.312C142.323 153.241 141.91 152.826 141.008 152.978C140.808 153.012 140.681 153.405 140.394 153.337C140.188 153.289 140.182 152.911 140.04 152.862C139.912 152.818 139.931 152.521 139.742 152.478C139.526 152.43 138.788 153.035 138.577 153.128C138.099 153.338 137.315 153.686 136.849 153.582C136.273 153.453 136.53 153.026 135.716 153.074C134.431 153.15 133.896 154.243 133.096 152.52C132.736 153.21 132.782 153.397 132.203 153.625C131.775 153.793 130.691 153.618 130.127 153.597C127.721 153.508 125.354 154.328 122.968 154.113C121.919 154.019 121.034 153.809 119.975 153.98C118.863 154.161 117.775 154.427 116.647 154.533C116.073 154.587 114.874 154.753 114.592 154.019C114.345 153.373 115.269 152.933 114.751 152.198ZM119.471 178.676C116.349 180.765 113.764 183.616 110.898 186.031C108.024 188.452 105.744 191.143 103.159 193.824C100.77 196.302 98.5747 198.647 95.6861 200.519C93.8582 201.705 92.2275 203.163 90.3499 204.281C88.9435 205.118 86.8129 206.219 87.499 203.659C88.2023 201.035 89.5005 198.384 90.6279 195.933C92.2309 192.451 93.8459 189 95.58 185.584C96.2318 184.3 96.5965 183.022 97.6301 181.999C98.7547 180.886 99.5422 179.433 100.774 178.381C105.954 173.958 113.762 177.376 119.471 178.676ZM129.263 180.176C127.847 180.918 126.262 181.102 124.761 181.593C123.483 182.011 122.294 182.755 120.918 182.81C122.17 181.87 123.246 180.592 124.657 179.879C126.245 179.076 127.686 179.661 129.263 180.176ZM191.414 186.361C186.205 184.604 181.356 182.015 176.283 179.93C175.407 179.571 168.559 177.315 168.698 176.242C173.497 175.362 178.44 173.854 183.251 175.499C187.627 176.995 191.187 180.585 194.575 183.589C195.459 184.373 200.926 187.943 200.437 189.08C200.098 189.868 197.464 189.653 196.842 189.492C196.038 189.283 195.575 188.795 194.945 188.259C193.891 187.364 192.726 186.804 191.414 186.361ZM181.799 157.001C182.59 156.273 183.064 155.168 183.819 154.496C184.79 153.633 186.357 154.053 187.418 154.502C190.603 155.847 193.325 158.11 196.49 159.514C199.998 161.071 203.035 163.15 206.198 165.293C209.09 167.252 212.217 168.874 215.169 170.744C218.177 172.649 221.544 173.888 224.594 175.725C227.697 177.596 230.788 179.474 233.77 181.535C239.088 185.211 244.625 188.985 248.559 194.211C250.581 196.897 252.474 199.944 253.957 202.96C255.306 205.702 256.769 209.508 255.021 212.361C253.343 215.1 250.481 217.257 248.06 219.301C247.143 220.075 246.27 221.015 245.082 221.351C243.636 221.759 241.949 221.646 240.462 221.766C232.511 222.411 225.104 221.803 217.269 220.381C209.714 219.01 202.127 218.242 194.514 217.289C190.219 216.752 185.925 216.126 181.689 215.23C179.878 214.848 178.035 214.406 176.263 213.885C174.716 213.429 173.414 212.427 171.823 212.03C165.07 210.343 157.343 209.699 150.657 206.862C156.574 204.403 162.861 202.918 168.925 200.875C175.307 198.725 181.54 196.92 188.267 196.309C191.728 195.995 194.826 195.111 198.156 194.186C201.329 193.304 204.642 193.034 207.901 192.639C209.35 192.463 213.487 192.726 213.967 190.831C214.682 188.011 210.618 187.685 208.886 187.938C206.428 188.296 204.401 188.909 202.52 186.893C200.599 184.834 198.733 182.726 196.777 180.693C193.152 176.923 189.414 172.563 184.289 170.872C178.037 168.809 170.786 170.767 164.547 171.94C157.957 173.18 151.378 174.366 144.912 176.168C142.234 176.913 138.781 178.557 136.002 178.293C133.263 178.032 130.161 177.584 127.514 176.794C126.316 176.437 125.332 175.775 124.26 175.157C122.867 174.354 121.34 173.84 119.861 173.215C116.871 171.953 113.956 170.79 110.729 170.294C108.012 169.877 105.127 169.629 102.494 170.581C99.9113 171.516 97.6225 173.418 95.8203 175.45C93.8626 177.659 92.2446 180.133 90.6403 182.6C89.8699 183.784 88.9298 184.817 88.1317 185.975C87.462 186.947 87.0711 188.027 86.3624 188.972C84.7762 191.086 83.6991 193.789 82.738 196.249C81.6698 198.98 80.4835 202.228 80.7386 205.199C80.8348 206.322 80.9355 207.81 81.3699 208.851C81.9225 210.176 82.7103 210.142 83.8459 210.641C85.7971 211.5 86.3442 213.872 88.8658 213.409C91.2308 212.975 93.282 211.027 95.0075 209.473C97.2565 207.449 99.409 205.314 101.561 203.188C103.769 201.005 105.946 198.584 107.702 196.017C108.394 195.006 108.933 193.864 109.75 192.944C110.791 191.771 111.96 191.63 113.373 191.163C125.732 187.08 138.151 183.141 150.896 180.445C153.949 179.799 157.027 178.966 160.027 178.106C163.208 177.194 164.856 178.158 167.481 179.893C172.966 183.52 179.45 186.074 185.558 188.441C187.481 189.186 190.543 189.233 192.046 190.703C183.135 192.061 174.642 194.675 166.047 197.278C161.809 198.561 157.522 199.673 153.268 200.9C149.013 202.128 144.919 203.719 140.722 205.103C136.545 206.48 132.131 207.042 127.914 208.312C123.608 209.609 119.321 210.501 114.902 211.29C110.44 212.086 106.009 213.005 101.531 213.717C99.4813 214.044 97.4315 214.382 95.4043 214.831C93.4206 215.271 91.5041 216.323 89.5104 216.567C80.6071 217.656 71.8784 220.083 63.0097 221.455C56.3879 222.48 44.8676 223.908 40.5736 217.265C36.2556 210.584 41.5531 202.79 46.2798 198.013C49.2174 195.044 52.5181 192.431 55.9812 190.106C59.6877 187.619 63.2538 184.932 66.961 182.448C75.3504 176.826 84.4475 172.241 93.4607 167.724C97.7869 165.556 101.967 163.231 106.175 160.851C108.264 159.67 109.42 161.576 111.071 162.871C112.37 163.89 114.754 166.401 116.571 165.24C116.641 165.658 116.711 166.076 116.781 166.495C117.313 166.252 117.846 166.01 118.378 165.767C118.735 166.705 118.694 167.287 119.692 167.779C120.306 168.082 121.614 168.446 122.199 167.913C122.318 168.284 122.437 168.653 122.557 169.023C123.068 168.984 123.167 167.522 123.263 167.18C124.139 168.459 125.351 169.528 126.89 169.89C126.898 169.806 126.64 168.755 126.651 168.749C127.138 168.451 127.753 169.728 128.011 170.001C128.867 170.908 129.378 170.767 130.324 170.036C130.393 170.11 130.713 170.946 130.759 170.93C130.964 170.865 131.353 170.125 131.396 170.058C131.336 171.031 133.216 171.228 133.88 171.018C133.731 170.733 133.582 170.448 133.434 170.163C135.746 169.854 136.654 172.311 138.874 172.186C140.515 172.094 139.198 171.735 140.127 171.032C140.938 170.418 141.083 171.761 141.163 171.719C141.317 171.556 141.437 171.37 141.522 171.16C141.823 172.31 144.213 173.342 143.966 171.451C144.906 171.827 145.574 172.451 146.615 172.583C147.88 172.743 149.231 172.475 150.493 172.37C153.212 172.144 155.775 171.589 158.226 170.343C159.68 169.605 161.227 168.934 162.593 168.044C163.736 167.298 165.905 165.034 167.427 166.009C167.037 164.859 168.872 165.924 168.931 164.443C169.225 164.665 169.52 164.887 169.815 165.11C169.992 164.722 169.942 164.112 170.179 163.774C170.504 163.31 170.663 163.583 170.94 163.322C171.25 163.03 171.521 162.248 171.893 162.025C172.276 161.796 172.727 162.07 173.139 161.869C173.767 161.564 176.467 158.587 176.01 161.138C177.171 160.744 176.276 160.383 176.421 159.609C176.712 158.058 177.421 159.174 178.128 159.309C179.284 159.531 179.261 158.575 179.905 157.88C180.494 157.246 181.602 156.961 181.22 155.859C181.656 156.094 181.748 156.554 181.799 157.001ZM112.087 123.883C111.176 124.898 110.493 124.464 109.48 124.316C109.372 123.952 109.187 123.902 108.925 124.165C108.625 124.337 108.302 124.451 107.957 124.505C107.126 124.71 106.263 124.623 105.451 124.933C105.474 124.661 105.76 124.177 105.577 123.901C104.722 124.492 104.193 124.867 103.143 124.879C102.293 124.888 100.801 124.238 100.095 125.015C100.073 124.712 100.051 124.41 100.03 124.108C99.6839 124.28 99.383 124.511 99.1272 124.8C99.0786 124.352 99.0519 124.013 98.7558 123.651C98.1939 124.807 97.5787 124.834 96.4876 124.392C96.6406 124.454 95.3954 123.724 95.443 123.927C95.0493 122.268 101.264 122.405 101.916 122.339C103.546 122.175 105.175 122.079 106.806 121.929C108.354 121.787 109.509 121.545 110.58 122.837C110.103 120.972 114.618 121.064 112.087 123.883ZM40.8348 94.9618C41.006 97.7813 41.6335 100.778 40.5373 103.492C39.656 105.673 37.8979 108.136 36.004 109.56C32.1259 112.474 28.8392 108.908 28.2993 104.988C27.7368 100.9 28.8519 95.9051 32.3721 93.3842C34.4756 91.8785 36.5124 91.9825 38.934 92.478C39.5026 92.5944 40.426 92.5495 40.7512 93.1148C40.8276 93.2469 40.7591 94.9591 40.8348 94.9618ZM92.3398 132.527C91.6698 132.865 90.9689 133.063 90.3783 133.523C90.1733 133.682 90.1034 134.046 89.8857 134.181C89.4896 134.426 88.9233 134.263 88.5104 134.466C87.827 134.8 87.3371 135.278 86.525 135.585C85.3188 136.042 84.2612 136.669 83.1212 137.264C81.2217 138.254 79.1829 139.104 77.1971 139.91C76.1947 140.318 73.4225 141.111 73.5184 142.578C73.2941 142.639 73.0651 142.149 72.5967 142.188C71.9541 142.241 71.105 142.984 70.4377 143.167C69.1895 143.509 68.2233 143.539 68.2233 145.13C67.8262 144.86 67.7252 144.2 67.1965 144.112C66.6015 144.014 66.3512 144.655 65.8753 144.855C65.3149 145.091 64.6178 144.865 64.0628 145.115C63.8201 145.372 63.5503 145.596 63.2535 145.787C62.9515 145.822 62.6509 145.813 62.352 145.759C61.1736 146.009 60.0893 146.452 58.9081 146.683C57.7571 146.907 56.9686 146.989 57.4527 148.35C56.2212 148.591 55.9206 147.284 54.5313 147.762C52.8283 148.348 51.2367 148.77 49.4591 149.127C48.5525 149.31 47.6051 149.716 46.692 149.811C46.0405 149.88 45.4325 149.646 44.7909 149.719C44.0178 149.806 43.3964 150.164 42.5963 150.177C41.8372 150.19 41.0406 150.054 40.2952 149.92C40.4007 150.221 40.5325 150.509 40.6907 150.784C40.1754 150.676 39.9374 150.057 39.5006 149.965C39.0421 149.869 38.6313 150.342 38.2496 150.237C38.0869 150.192 38.1951 149.691 37.9045 149.595C37.6391 149.508 37.5275 149.611 37.2646 149.57C37.1769 149.556 36.0776 149.496 35.9023 149.589C35.5962 149.752 35.906 150.056 35.8451 150.101C34.8111 150.866 34.7985 150.453 34.3377 149.654C33.6608 148.48 32.8446 149.221 31.6144 149.015C30.2433 148.787 29.1631 149.391 27.8138 149.305C26.3584 149.213 24.6479 148.124 23.361 147.487C20.5823 146.114 17.8724 144.814 15.5388 142.734C10.9768 138.668 7.26549 133.667 5.07727 127.943C2.72612 121.792 2.2806 115.378 2.46931 108.853C2.58284 104.929 2.89693 101.007 3.51545 97.1291C3.94126 94.4613 4.03045 89.7205 7.03816 88.5058C7.55514 94.752 5.92358 101.117 6.95257 107.323C7.26241 109.192 8.01802 111.682 9.4481 113.067C11.5653 115.116 12.0607 112.154 12.2521 110.517C12.6085 107.479 13.2706 104.456 13.7397 101.432C14.2081 98.4081 14.5391 95.3511 15.1903 92.3595C15.4279 91.2687 17.3431 83.2809 18.7489 83.6592C18.4644 89.4702 17.7091 95.1813 17.6793 101.014C17.6677 103.353 17.4582 105.824 17.7957 108.148C17.9697 109.344 19.0587 112.853 20.9318 112.56C22.6653 112.289 20.7596 109.818 20.5977 108.864C20.169 106.341 20.7155 103.202 21.115 100.698C21.8716 95.9578 23.5592 91.1034 26.3173 87.1428C28.7878 83.5962 32.5916 80.2198 37.1742 80.8453C39.1318 81.1127 40.6595 81.5988 41.6431 83.3867C42.4152 84.7897 45.4557 86.3841 43.6936 88.1405C42.0896 89.74 39.4951 88.4599 37.712 88.0785C35.5287 87.6119 33.189 88.1734 31.3631 89.4528C28.2305 91.647 26.4454 95.5706 25.8626 99.2504C25.0772 104.212 27.1767 117.198 34.9091 114.288C40.046 112.354 43.9151 105.399 43.4837 100.073C43.3108 97.9418 42.4775 93.895 45.4266 93.3195C49.205 92.5824 49.7388 96.7473 49.356 99.4537C48.8 103.391 46.7191 107.052 44.3386 110.165C42.2638 112.878 39.8508 114.574 37.3543 116.815C36.6151 117.478 34.7297 118.969 35.0464 120.203C35.3935 121.555 38.3564 121.94 39.5427 122.162C45.4119 123.261 52.0306 122.25 57.8899 121.483C69.9324 119.906 81.8164 116.022 91.691 108.881C92.0898 113.299 92.5928 117.703 92.778 122.137C92.8677 124.29 92.8907 126.474 93.1368 128.614C93.2885 129.931 93.8359 131.771 92.3398 132.527ZM58.9482 147.922C58.4754 148.169 58.9865 146.674 58.855 147.168C59.5614 147.421 59.5925 147.673 58.9482 147.922ZM108.904 94.4517C109.654 93.6246 111.705 91.6566 112.355 93.5242C112.597 92.7282 112.629 91.5491 113.564 92.6242C113.936 91.3036 118.041 91.4272 119.058 91.3687C122.314 91.1828 125.583 91.0832 128.827 90.7596C135.494 90.0951 142.277 90.4381 148.968 90.4162C150.417 90.4114 151.862 90.333 153.301 90.5432C154.689 90.7459 156.147 91.3149 157.562 91.1071C158.82 90.9222 159.645 90.5754 160.939 90.7237C162.488 90.9014 163.993 91.0273 165.555 91.0219C172.469 90.9965 179.378 91.2766 186.293 91.2875C187.64 91.2896 189.255 91.0263 190.519 91.5988C190.988 91.811 191.499 92.517 191.857 92.5944C192.267 92.683 192.024 92.0432 192.572 92.3325C193.308 92.719 192.739 93.908 192.253 94.0963C192.544 93.9837 191.728 93.8724 191.809 93.868C191.422 93.8889 191.092 94.1857 190.676 94.1672C190.043 94.1395 189.513 93.7533 189.003 93.4133C188.994 93.5523 189.274 94.4777 188.954 94.5243C188.679 94.5647 188.421 93.6523 188.393 93.44C186.846 94.8044 185.207 94.0436 183.288 94.2165C181.926 94.3391 179.088 95.2474 178.138 93.8262C178.098 94.1285 177.977 94.3932 177.774 94.6202C177.503 95.0334 177.268 94.9981 177.07 94.5133C177.003 94.5168 176.341 94.6606 176.328 94.6595C175.863 94.6226 175.26 94.4555 174.786 94.4147C174.053 94.3524 174.188 94.8858 173.605 94.8944C173.286 94.8989 172.473 94.4387 171.917 94.4099C170.954 94.3596 169.971 94.7681 169.021 94.6445C168.367 94.5596 167.776 94.0272 167.135 94.0066C166.335 93.9799 166.076 94.5897 165.443 93.7331C165.313 93.6982 165.233 94.2018 165.181 94.2103C165.194 94.2083 164.578 94.2994 164.506 94.3278C164.379 94.3761 163.887 94.6013 163.738 94.6037C163.415 94.6099 163.239 94.3785 162.896 94.373C162.329 94.3634 160.519 94.8622 160.57 93.8135C158.546 94.5633 156.82 94.2709 154.743 94.4483C153.79 94.5301 153.192 94.4024 152.285 94.2275C151.15 94.0084 150.396 94.2836 149.264 94.3391C148.176 94.3928 147.833 93.9323 146.914 93.5167C146.552 93.3527 146.313 93.1367 145.868 93.2277C145.615 93.2798 145.795 93.7064 145.72 93.7355C145.33 93.8861 145.057 93.7266 144.522 93.7629C143.534 93.8303 143.141 94.6561 142.125 93.881C142.463 93.8403 142.8 93.7985 143.138 93.7577C142.167 93.3459 140.885 93.136 141.12 94.6349C140.292 94.5188 141.009 93.9549 140.602 93.7529C140.194 93.5516 139.739 93.8889 139.226 94.0556C137.871 94.4949 136.742 94.2768 135.33 94.198C133.726 94.1083 129.972 95.4175 128.823 93.7177C128.789 94.0761 128.404 95.0738 127.892 95.0269C127.726 95.0115 128.191 93.9522 128.243 93.8402C127.98 94.4014 126.777 94.5079 126.184 94.7989C126.251 94.4973 126.317 94.196 126.384 93.8947C125.833 94.4805 125.566 94.123 124.919 94.3189C124.635 94.4045 124.226 94.9882 123.984 95.0235C123.702 94.6965 123.347 94.5558 122.921 94.6013C122.636 94.5305 122.353 94.5164 122.069 94.5599C120.932 94.6421 119.896 95.2737 118.766 94.8437C117.787 94.4709 117.409 93.5123 116.826 95.0375C116.672 94.7664 116.519 94.4952 116.365 94.224C116.176 94.5185 115.987 94.8126 115.797 95.1067C115.057 94.6219 115.011 94.3411 114.159 94.5192C113.959 94.5989 113.754 94.5876 113.544 94.4856C113.494 94.6349 113.444 94.7842 113.394 94.9334C113.374 95.3087 113.262 95.4329 113.06 95.3052C112.889 95.244 112.735 95.1512 112.598 95.0262C112.035 95.0694 111.315 95.2176 110.71 95.1358C110.476 95.1043 109.012 94.3315 108.904 94.4517ZM126.151 84.3577C126.218 84.4597 126.284 84.5614 126.351 84.6634C125.436 85.1465 125.22 84.8692 125.126 83.8989C125.573 83.9074 125.649 84.6939 126.151 84.3577ZM126.718 83.7883C127.159 83.9828 127.664 84.3645 128.079 83.853C128.359 84.6651 126.284 85.7733 126.718 83.7883ZM129.564 84.1468C130.489 84.7723 128.27 84.2697 128.274 84.2707C128.673 83.9023 129.103 83.8612 129.564 84.1468ZM137.521 80.6604C137.838 82.2613 138.713 82.2158 140.126 81.4715C142.185 80.3862 142.533 78.6089 142.677 76.4866C142.815 74.4515 143.063 73.6637 145.162 74.0886C146.627 74.3851 147.866 74.1359 149.342 74.0951C150.918 74.0517 151.473 74.2923 151.6 75.9138C151.727 77.5373 152.016 78.7702 153.194 80.0058C154.392 81.2619 155.989 82.0121 157.546 82.7146C158.346 83.0758 159.098 83.4644 159.983 83.5428C160.326 83.5733 162.113 83.3473 162.15 83.9122C162.178 84.3375 159.704 85.5357 159.442 85.6785C158.295 86.3023 157.151 86.8621 155.898 87.2401C153.015 88.1097 149.958 88.161 146.973 88.1083C142.158 88.0237 135.505 85.9873 132.626 81.7163C134.258 81.3643 135.889 81.0124 137.521 80.6604ZM137.089 66.7979C136.327 66.1587 135.834 65.1929 135.201 64.4359C134.882 64.0541 134.648 63.9326 134.345 63.7415C134.025 63.5402 133.845 63.8251 133.578 63.3519C132.889 62.1297 135.016 60.4096 132.76 59.9392C131.996 59.7797 130.159 60.3846 129.936 59.2907C129.621 57.7443 132.573 57.6433 133.267 56.8582C134.648 55.2977 133.711 52.6522 134.552 50.852C135.348 49.1467 137.403 48.8437 139.026 48.3312C141.286 47.6177 143.573 47.2037 145.868 46.6327C147.473 46.2335 150.139 44.6298 151.627 46.0469C149.331 46.5567 150.665 47.3568 152.196 47.8087C153.93 48.3209 155.767 48.5205 157.564 48.6633C159.413 48.8098 161.298 48.8379 163.125 48.4691C164.815 48.1281 166.702 46.6594 168.474 47.0356C167.491 48.7451 164.562 49.6787 162.783 50.1266C161.876 50.3546 161.295 50.2834 161.417 51.4139C161.535 52.5094 162.487 53.6081 162.703 54.7496C162.987 56.2601 162.739 57.6484 162.201 59.0689C161.672 60.4664 161.549 60.6493 162.011 61.9849C162.731 64.0644 161.183 66.3631 159.752 67.8733C153.966 73.9798 142.892 71.6664 137.089 66.7979ZM151.793 30.302C151.816 30.3643 151.796 30.3407 151.793 30.302ZM153.595 45.7124C153.355 45.8918 151.973 46.2677 152.031 45.7275C152.108 45.004 153.354 45.2653 153.595 45.7124ZM156.745 31.0956C156.42 30.8539 155.512 30.9532 156.176 30.037C156.392 30.44 156.569 30.7676 156.745 31.0956ZM134.95 25.3041C135.364 24.2304 135.821 23.2314 136.008 22.0882C136.123 21.384 135.894 20.5798 136.879 20.4692C135.624 19.9221 135.611 17.7624 135.537 16.6428C135.435 15.1011 134.948 13.0368 135.626 11.6018C136.321 10.1277 137.26 10.1521 137.543 11.9077C137.654 12.5951 137.23 12.8174 137.15 13.2961C136.992 14.243 137.306 14.0354 137.917 13.314C138.169 14.0473 138.266 15.1492 139.292 15.1025C139.223 14.9043 138.83 14.4668 138.962 14.2204C139.164 13.8422 140.149 14.4202 140.274 14.5077C141.175 15.1373 141.37 15.7121 140.728 16.5062C141.617 16.6021 140.871 17.3803 141.444 17.583C142.32 17.8925 141.733 16.4265 141.638 16.1687C142.171 16.3765 142.349 16.6137 142.687 17.0349C142.885 17.3252 143.065 17.6268 143.228 17.9387C143.409 18.5081 143.782 18.6508 144.348 18.367C145.482 18.7227 147.047 18.6669 148.063 19.2887C148.528 19.5728 148.695 20.1942 149.083 20.4301C149.519 20.6958 150.104 20.5753 150.573 20.742C150.401 21.1316 150.54 21.3422 150.988 21.3754C151.337 21.4073 151.674 21.4857 152.001 21.6106C152.244 21.4268 152.51 21.2813 152.797 21.1755C152.989 21.5151 153.262 21.599 153.614 21.4281C154.66 21.624 155.162 22.0194 155.826 22.6107C156.423 23.1414 155.937 23.1845 156.591 23.1372C156.853 23.1184 157.314 22.673 157.914 22.76C158.26 22.8271 158.593 22.9335 158.914 23.0794C159.261 23.3762 159.63 23.4135 160.019 23.1913C160.652 23.5008 160.715 24.0493 161.487 24.1243C162.34 24.2075 162.066 23.1431 162.652 24.644C163.441 23.0527 163.731 25.5879 164.546 25.7927C165.39 26.0049 165.481 25.3202 166.204 26.0683C166.421 26.2925 166.409 26.663 166.652 26.9006C167.05 27.2895 167.589 27.2118 167.936 27.7425C167.742 27.4463 167.981 28.7922 167.977 28.7477C168.031 29.3413 167.503 30.0065 168.584 29.9559C168.572 30.0182 168.053 30.7752 167.952 30.6896C167.927 30.6033 167.906 30.5156 167.889 30.427C167.773 30.477 167.722 31.198 167.743 31.3253C167.835 31.3397 167.873 31.2716 167.856 31.121C167.678 31.677 167.946 32.0303 167.605 32.5582C167.386 32.8955 166.788 33.1492 166.471 33.3573C165.704 33.8599 164.954 34.3642 164.206 34.899C162.462 36.1469 160.51 37.6516 158.314 37.9118C159.416 36.8289 165.762 32.7308 162.579 31.5544C161.989 31.3363 160.914 31.1299 160.297 31.084C159.529 31.0268 158.735 31.4664 157.888 31.1922C156.866 30.8618 157.251 29.9011 156.627 29.5563C155.301 28.8254 155.614 30.5447 155.197 30.995C154.759 30.5352 154.853 30.3113 154.161 30.2698C153.458 30.2274 153.291 30.8768 152.471 30.4722C151.342 29.9148 151.939 28.8041 150.337 28.7781C150.364 28.5344 150.596 27.853 150.291 27.663C149.878 28.1975 150.197 28.7952 149.815 29.3098C149.623 29.568 149.208 29.7737 148.904 29.8573C148.194 30.0524 148.093 30.4259 148.209 29.3564C147.682 30.3047 146.068 29.9148 145.107 29.8193C143.546 29.6642 141.887 29.3687 140.39 28.8682C139.006 28.4046 138.267 27.6089 137.125 26.8852C136.694 26.6113 136.488 26.716 135.869 26.5459C135.258 26.3781 134.663 26.0529 134.95 25.3041ZM138.244 8.5113C138.48 8.36932 138.649 10.4881 138.364 10.884C137.841 10.0567 136.913 8.84333 138.244 8.5113ZM138.997 7.66617C139.755 6.98023 139.229 8.75192 139.09 9.04917C138.809 8.86915 138.528 8.68916 138.247 8.50915C138.605 8.28935 138.695 7.93975 138.997 7.66617ZM167.592 4.81088C174.594 6.28029 181.532 9.02695 187.148 13.547C192.264 17.6641 195.874 23.5056 197.899 29.7193C200 36.1688 199.294 43.3244 194.295 48.2606C191.661 50.8606 188.184 52.4293 184.87 53.9601C183.282 54.6934 181.646 55.3042 180.052 56.0208C178.907 56.5354 177.51 57.3584 176.203 57.2156C176.87 56.5145 177.837 56.5001 178.644 56.0711C179.618 55.5528 180.414 54.5578 181.254 53.8471C182.088 53.1415 183.939 50.9195 185.22 51.4573C185.042 50.2734 186.391 49.7239 186.999 48.9433C187.642 48.1175 187.688 47.1517 188.872 46.8816C187.6 45.886 187.99 44.0088 188.266 42.6537C188.621 40.9206 188.784 39.3296 188.924 37.5661C189.175 34.3868 189.378 30.3366 187.621 27.5418C187.051 26.6342 186.326 25.8002 185.817 24.8573C185.204 23.7213 185.339 22.7213 185.339 21.4761C184.219 22.2289 183.982 20.6938 183.509 19.9453C183.154 19.3839 182.687 19.0702 182.572 18.3636C182.489 17.8497 183.047 17.7627 182.741 17.2238C182.366 17.507 182.216 17.9459 182.026 18.3533C181.68 18.215 182.088 17.7329 181.89 17.5761C181.884 17.572 181.216 17.282 181.25 17.3238C180.82 16.7791 180.682 15.8753 180.471 15.2269C179.684 15.6257 179.831 15.5787 178.953 14.9125C178.798 14.7953 178.026 14.2567 177.953 14.0806C177.613 13.2573 178.208 13.745 178.042 13.234C177.564 11.7664 174.88 12.0439 174.668 9.84483C173.359 10.6756 172.86 9.49846 172.086 8.6612C171.294 7.80349 169.964 7.47362 170.035 6.11318C169.623 6.2541 169.211 6.39468 168.8 6.53488C169.014 5.27951 167.149 5.35949 166.473 4.72265C166.848 4.72734 167.221 4.75671 167.592 4.81088ZM168.658 82.5626C169.307 81.9823 169.11 82.7547 169.528 82.6663C169.885 82.5907 169.956 82.3206 170.298 82.238C171.709 81.897 173.818 82.3253 175.302 82.2517C177.02 82.1668 179.966 82.5236 180.785 84.5343C181.278 85.7449 180.525 85.3331 179.696 85.243C179.053 85.1735 178.481 85.3036 177.844 85.2971C177.53 85.3457 177.217 85.3409 176.904 85.2824C176.752 85.1821 176.662 85.0407 176.634 84.8585C175.748 84.7247 174.808 85.2485 173.827 85.2745C172.519 85.3094 171.355 85.0585 170.361 84.1748C169.966 84.764 169.697 85.0561 168.986 85.1222C168.967 85.1239 168.272 84.8442 168.165 84.8164C168.023 84.7794 167.663 85.078 167.389 84.9927C167.875 84.2176 167.946 83.1991 168.658 82.5626ZM258.039 89.5596C258.27 88.7561 258.463 87.9419 258.674 87.1332C261.904 90.8106 264.731 95.7332 266.003 100.45C266.829 103.514 268.115 109.067 264.176 110.648C260.967 111.936 259.178 107.32 258.366 105.047C256.573 100.029 256.573 94.6657 258.039 89.5596ZM113.512 31.9368C113.554 31.9283 111.421 33.1687 112.124 32.1645C112.406 31.7605 113.476 31.4767 113.951 31.4767L113.512 31.9368ZM111.461 32.4624C111.214 32.6698 110.965 32.8749 110.713 33.0773C110.472 32.6959 110.23 32.3141 109.989 31.9327C110.465 31.7321 112.486 31.5814 111.461 32.4624ZM109.957 71.0258C109.511 70.7235 109.158 70.8841 109.023 71.3914C109.023 70.8868 109.286 69.7138 109.69 69.5772C109.952 69.4886 108.822 68.153 109.14 67.8034C109.947 68.2656 109.464 68.7083 109.7 69.305C109.807 69.5741 110.127 69.8289 110.197 70.0357C110.317 70.3869 110.798 71.5941 109.957 71.0258ZM107.771 68.0201C107.314 68.1372 108.114 68.8915 108.114 69.2249C108.113 69.4773 107.81 69.6707 107.685 70.0158C107.415 70.7632 107.881 71.2682 107.114 71.8386C107.114 70.2007 106.014 65.8605 108.127 65.0624C107.096 64.251 107.943 63.3143 108.75 64.2852C109.527 65.2192 109.032 67.6976 107.771 68.0201ZM106.671 61.5565C106.256 60.0844 105.006 59.5694 103.578 59.6567C103.632 58.9028 104.203 57.8162 104.616 59.1747C104.786 58.7731 104.903 58.2493 105.29 57.9832C105.941 60.0255 109.189 61.1539 107.167 63.367C107.002 62.7637 106.841 62.1591 106.671 61.5565ZM102.897 59.7663C95.3759 60.3117 84.8173 61.8722 78.7987 56.1074C74.8745 52.3485 75.084 46.495 78.2554 42.3188C80.0652 39.9356 82.5357 38.2576 85.0168 36.6591C85.9741 36.0418 86.7852 35.6348 87.8362 35.2801C88.0064 35.2616 88.1666 35.2996 88.3163 35.3941C88.3755 35.14 88.5183 34.9521 88.7459 34.8295C89.152 34.6124 89.7302 34.5347 89.9641 34.0838C89.7145 34.9308 89.5861 35.8029 89.4947 36.679C89.292 36.4431 89.0897 36.2072 88.8873 35.9713C88.7182 37.5674 87.0553 36.6013 86.0624 36.8005C86.7164 37.7057 87.184 38.0344 87.2405 39.2307C86.7533 38.3313 85.7348 37.74 84.7878 37.4503C85.302 38.9715 85.6656 39.8743 85.148 41.5423C84.5225 41.1852 84.4804 40.3276 83.7217 40.1222C83.5214 41.1168 83.4861 42.2206 83.2297 43.1857C81.2871 42.2996 81.4764 44.686 82.2567 45.8668C82.6713 46.495 82.875 47.2222 83.2451 47.8251C84.1531 49.3042 83.4632 47.0925 84.4725 47.1972C84.2458 48.7574 84.1667 48.9129 85.3085 50.0553C86.423 51.1694 87.0009 52.7152 88.1927 53.7618C88.5378 53.3205 87.9951 52.8593 87.9475 52.4372C89.0565 52.6231 89.5758 53.7351 90.642 52.7501C91.1069 53.6564 91.6102 54.654 92.7236 54.8403C91.9875 53.441 94.1372 54.3901 94.6884 54.5887C95.1065 54.7393 95.8556 54.8588 96.0168 54.917C96.9251 55.245 96.3024 54.6564 96.8536 55.7318C97.6629 55.4874 97.9683 54.816 98.9366 55.3833C99.7237 55.8448 99.7254 56.635 99.9055 57.4447C100.093 56.915 100.282 56.3857 100.49 55.8633C100.701 55.9523 101.588 56.9274 101.491 56.9322C103.565 56.8305 103.492 58.1185 102.897 59.7663ZM92.337 33.3631C92.7537 33.0707 93.2621 33.46 93.7298 33.3553C94.3776 33.2108 94.7453 32.6558 95.4687 32.5966C95.2674 33.2395 94.8897 33.1796 94.57 33.6846C94.4611 33.8568 94.5179 34.2697 94.421 34.3687C93.6103 35.1993 93.3302 34.5217 92.5027 33.8931C92.5746 34.6511 92.7205 34.8904 92.0063 35.0938C91.3599 35.278 90.2928 34.5994 89.9668 34.0787C90.2417 33.5288 91.8386 33.713 92.337 33.3631ZM97.4976 32.1782C98.1998 32.2453 97.3538 34.3173 96.3476 32.3073C96.7266 32.2251 97.11 32.182 97.4976 32.1782ZM101.109 31.778C102.216 31.552 105.91 30.4992 106.321 32.223C106.395 32.1802 106.67 31.2069 106.798 31.3257C107.309 31.8016 107.366 32.4322 107.327 33.093C106.709 31.805 106.929 32.9362 106.51 32.8482C106.401 32.8249 106.233 33.0293 105.956 32.9451C105.593 32.8342 105.333 32.0614 105.103 31.7995C104.722 32.3446 104.248 33.0464 103.484 32.9992C102.943 32.9656 102.071 31.5722 102.771 33.0978C102.36 32.9619 101.884 32.6541 101.425 32.7157C100.912 32.7849 100.645 33.2916 100.164 33.3734C99.0978 33.5542 98.9369 32.5281 98.2446 31.9707C99.1995 31.9153 100.166 31.97 101.109 31.778ZM107.809 31.7612C107.887 31.4079 108.856 31.2651 109.103 31.3774C109.705 31.6509 109.483 32.0118 109.372 32.613C108.925 32.4014 108.478 32.1902 108.031 31.9786C108.698 33.0529 107.49 33.2087 107.809 31.7612ZM295.406 94.6873C295.327 92.113 295.252 89.4939 294.6 86.9874C294.143 85.2334 293.021 82.0881 290.899 81.7837C287.698 81.3243 285.926 87.6502 285.029 89.8215C284.849 87.265 285.006 84.5439 284.041 82.1175C283.267 80.1729 281.314 78.3313 279.632 80.5149C278.135 82.4585 277.847 85.3272 277.453 87.6656C276.943 90.6956 276.636 93.7488 276.263 96.797C274.801 93.9717 274.546 90.7377 273.39 87.8015C272.3 85.0307 270.584 82.3846 268.931 79.9202C267.582 77.9071 265.94 76.0145 263.826 74.784C261.985 73.713 258.767 72.5545 257.013 74.3331C255.549 75.8173 255.778 77.8033 255.854 79.6761C255.889 80.5104 256.019 81.0822 255.286 81.5023C254.925 81.7091 254.362 81.6023 253.966 81.7125C253.328 81.8909 252.838 82.1928 252.298 82.5941C248.513 85.4074 246.768 90.4772 246.229 94.9971C245.545 100.724 247.777 105.634 249.699 110.874C250.005 111.709 250.977 113.481 250.843 114.413C250.696 115.434 249.414 115.461 248.548 115.482C245.935 115.547 243.204 115.352 240.604 115.109C234.414 114.53 228.229 111.55 222.687 108.889C221.676 108.403 220.245 108.126 219.42 107.361C218.644 106.642 218.439 105.491 217.769 104.666C216.126 102.644 215.078 100.918 212.658 99.6954C210.193 98.4513 207.678 97.3013 205.273 95.9386C202.299 94.2525 199.551 92.1168 196.701 90.2289C191.405 86.7214 186.144 82.8762 180.529 79.8935C177.92 78.5072 175.004 78.283 172.295 77.148C169.657 76.0429 166.419 76.0415 163.666 76.7392C162.325 77.0796 161.412 77.8855 160.179 78.4117C158.734 79.0283 157.555 78.3477 156.283 77.6116C154.339 76.4873 152.413 74.6549 155.181 73.4419C156.119 73.03 157.295 72.8742 158.115 72.2268C158.989 71.5373 159.691 70.2654 160.402 69.4016C161.982 67.4812 162.926 65.2706 165.239 64.0767C167.796 62.7562 170.828 62.3967 173.555 61.5336C176.51 60.5989 179.403 59.4873 182.302 58.3958C187.526 56.4296 192.957 54.3065 196.711 49.9776C199.949 46.2434 201.36 41.4228 201.23 36.527C200.963 26.5185 195.601 16.3607 187.909 10.103C178.476 2.4296 166.476 -0.129134 154.561 0.00497219C148.969 0.0680708 142.296 0.79992 137.63 4.19735C133.6 7.1319 132.93 12.2645 133.529 16.8976C133.772 18.7779 134.604 21.259 133.278 22.9161C132.536 23.8429 131.203 24.0726 130.204 24.6505C128.948 25.3767 127.84 26.0727 126.417 26.4565C120.373 28.0889 114.007 27.5206 107.827 27.4302C97.5325 27.2796 86.9807 30.0668 79.3013 37.3206C73.0997 43.1778 71.2399 54.223 78.8035 59.933C84.9145 64.5461 94.4994 64.0387 101.705 63.2342C103.939 62.9842 105.476 62.6213 105.481 65.3551C105.486 68.3413 104.992 71.4623 105.754 74.3937C106.954 79.0109 111.39 79.1208 115.312 78.1265C117.382 77.602 119.383 76.8132 121.348 75.9871C124.231 74.7754 126.873 72.9937 129.72 71.7841C131.65 70.9645 133.095 73.6155 134.807 71.7776C135.123 71.438 135.182 70.932 135.659 70.7581C136.406 70.4859 137.661 71.4404 138.317 71.742C139.298 72.1943 140.288 72.5267 140.681 73.6155C141.048 74.6337 140.887 76.2531 140.535 77.2576C139.771 79.4412 137.714 79.0098 135.836 78.8637C132.561 78.6089 129.308 78.0683 126.034 77.8413C123.096 77.6376 120.345 78.5155 117.812 79.964C112.49 83.0067 108.136 87.846 103.522 91.8257C101.147 93.8738 98.8513 96.0862 96.2688 97.8696C95.1458 98.6454 93.9297 99.3582 92.954 100.322C91.9854 101.278 91.8789 102.147 91.5479 103.419C90.958 105.685 88.0287 106.792 86.1977 107.987C83.6083 109.677 80.8632 110.869 77.9603 111.906C71.813 114.102 65.6172 115.635 59.1902 116.768C56.0435 117.324 52.9232 117.688 49.746 117.988C47.007 118.246 44.0948 119.09 41.3593 118.416C42.1471 117.138 43.5433 116.371 44.6306 115.382C46.0323 114.109 47.2244 112.6 48.2854 111.037C50.3503 107.993 51.7988 104.726 52.1313 101.034C52.4312 97.7104 52.0874 93.7351 50.0822 90.9277C49.3896 89.9578 48.0191 89.6938 47.3994 88.8204C46.7828 87.9522 47.018 86.4571 46.6804 85.4447C45.8214 82.8694 43.2718 79.6781 41.0279 78.1823C38.5936 76.5592 35.0327 75.9628 32.2208 76.8087C27.0113 78.3758 23.8112 83.943 21.4273 88.4425C20.1252 85.7025 22.3058 81.6372 19.762 79.3933C17.6163 77.5003 15.9134 81.1671 15.1958 82.7358C11.8272 90.0999 11.062 97.9103 9.65078 105.79C9.0756 105.223 9.37038 103.768 9.42447 103.091C9.52513 101.832 9.51554 100.597 9.51828 99.3329C9.52513 96.1393 10.1188 92.9309 9.84661 89.74C9.68947 87.8954 9.10128 84.006 6.42138 84.6189C4.14863 85.1386 2.72503 88.3346 2.01091 90.2885C0.980895 93.1069 0.743085 95.8969 0.807211 98.8741C0.878116 102.164 0.251374 105.399 0.0995336 108.684C-0.195589 115.065 0.0959407 121.39 1.92676 127.549C4.92472 137.633 11.818 146.011 21.0178 151.071C26.0866 153.859 31.7096 155.622 37.4909 156.002C40.6239 156.207 43.6484 155.834 46.7547 155.511C49.8199 155.191 52.9013 155.043 55.9613 154.668C62.7759 153.832 69.4161 151.675 75.6103 148.772C78.8706 147.243 81.9369 145.367 85.1439 143.738C86.4308 143.085 87.3001 142.267 88.3984 141.358C89.4872 140.457 89.7884 140.386 91.0268 140.386C90.6635 139.415 91.7235 139.115 92.1953 138.5C92.1689 138.799 92.1422 139.097 92.1159 139.395C92.4754 138.615 92.8102 138.622 93.12 139.417C93.4261 138.527 93.6528 137.611 94.0225 136.744C95.4362 137.459 95.317 139.16 97.2076 137.918C98.7643 136.896 100.196 135.69 101.783 134.689C105.398 132.407 108.515 129.438 112.14 127.183C112.14 129.38 112.295 131.595 112.001 133.781C111.722 135.86 110.946 137.802 110.329 139.792C109.191 143.463 109.112 147.386 107.851 151.02C107.329 152.525 105.97 153.784 105.58 155.249C105.183 156.743 106.101 157.941 104.563 158.922C103.478 159.614 102.123 159.906 100.922 160.325C99.0899 160.963 97.3507 161.864 95.5676 162.628C87.2035 166.212 79.0452 169.862 71.2961 174.681C63.942 179.254 56.4756 183.976 49.72 189.407C43.8569 194.121 37.9301 200.215 36.5028 207.904C35.1179 215.362 38.808 223.367 46.2172 225.823C50.0695 227.1 54.4248 226.942 58.4367 226.998C62.7536 227.057 67.3283 226.017 71.5727 225.264C76.055 224.469 80.4606 223.225 84.9559 222.515C89.2691 221.833 93.2248 220.311 97.4674 219.372C101.986 218.373 106.621 217.831 111.164 216.932C113.21 216.527 115.214 215.93 117.265 215.556C119.511 215.145 121.781 214.991 124.004 214.448C128.318 213.394 132.447 211.695 136.779 210.714C138.727 210.273 140.645 209.683 142.593 209.27C144.387 208.891 145.784 207.883 147.582 208.711C149.034 209.38 150.193 210.527 151.568 211.326C153.35 212.362 155.23 213.291 157.089 214.183C160.823 215.975 164.696 217.213 168.601 218.558C172.703 219.972 176.731 221.584 180.981 222.517C185.337 223.474 189.781 223.74 194.168 224.497C203.151 226.047 212.058 226.742 221.177 226.799C225.786 226.828 230.395 226.281 234.993 226.346C239.064 226.403 242.604 227.321 246.326 225.157C252.274 221.698 259.173 216.49 259.027 208.924C258.894 202.071 254.784 195.524 250.928 190.119C246.246 183.556 239.57 178.934 233.028 174.406C226.054 169.581 218.221 166.247 210.893 162.035C207.144 159.882 203.687 157.564 199.618 156.033C197.675 155.303 195.779 154.456 193.859 153.669C192.314 153.036 190.084 152.687 188.761 151.637C187.936 150.981 187.857 149.989 187.639 149.015C187.157 146.859 186.399 144.815 185.663 142.736C184.245 138.721 183.301 134.633 182.692 130.422C182.11 126.408 180.82 122.234 181.488 118.155C185.884 122.407 190.401 126.494 194.899 130.634C196.584 132.185 198.238 133.769 199.932 135.31C201.204 136.468 202.795 138.187 204.568 138.531C206.832 138.97 206.005 136.465 207.56 136.077C208.51 135.84 211.376 138.254 212.128 138.731C216.889 141.754 222.162 143.67 227.4 145.728C232.892 147.885 238.54 149.802 244.45 150.345C249.908 150.847 255.49 150.202 260.758 148.716C271.249 145.754 278.968 138.727 284.634 129.617C291.089 119.238 295.787 107.078 295.406 94.6873Z" fill="black"/>
<path fill-rule="evenodd" clip-rule="evenodd" d="M135.071 72.0591C135.07 72.062 135.054 72.0952 135.054 72.0952C135.073 72.0819 135.079 72.07 135.071 72.0591Z" fill="black"/>
<path fill-rule="evenodd" clip-rule="evenodd" d="M135.578 72.1933C135.539 71.8626 135.454 71.539 135.324 71.222C134.977 71.7725 134.666 72.0084 135.122 72.5915C135.274 72.4586 135.426 72.3261 135.578 72.1933Z" fill="black"/>
<path fill-rule="evenodd" clip-rule="evenodd" d="M159.769 150.884C160.158 150.471 159.478 150.315 159.22 150.309C159.246 150.753 159.026 151.816 159.633 152.021C159.487 151.62 159.533 151.241 159.769 150.884Z" fill="black"/>
<path fill-rule="evenodd" clip-rule="evenodd" d="M149.522 64.3893C148.854 65.6787 150.329 66.0786 151.183 65.4558C151.825 64.9874 152.205 63.7936 152.311 63.0277C152.652 60.5496 150.918 58.1907 150.053 55.9917C149.83 55.4234 149.524 53.4739 148.804 53.4205C147.978 53.3589 147.916 55.1542 147.906 55.6175C147.874 57.0143 148.244 58.4372 148.677 59.7557C149.144 61.1772 150.302 62.8836 149.522 64.3893Z" fill="black"/>
<path fill-rule="evenodd" clip-rule="evenodd" d="M152.697 59.2185C155.263 61.5035 157.316 57.6977 157.137 55.4466C157.092 54.8889 156.715 52.8323 155.658 53.5807C155.126 53.9566 155.579 55.1785 155.326 55.715C154.098 58.3157 152.917 54.2815 152.09 53.9648C151.084 53.579 150.983 54.9002 150.985 55.6065C150.987 57.0085 151.655 58.29 152.697 59.2185Z" fill="black"/>
<path fill-rule="evenodd" clip-rule="evenodd" d="M143.382 59.5736C143.986 58.6218 144.729 57.3451 144.812 56.2046C144.939 54.4322 143.906 54.5801 143.056 55.8167C142.456 56.6905 142.005 58.1722 140.68 57.8038C139.043 57.3499 139.543 55.1491 138.627 54.1035C136.314 57.2109 140.692 63.8087 143.382 59.5736Z" fill="black"/>
<path fill-rule="evenodd" clip-rule="evenodd" d="M146.849 69.0829C147.806 69.2897 150.301 69.2137 149.436 67.7483C148.346 65.9029 144.721 68.6227 146.849 69.0829Z" fill="black"/>
<path fill-rule="evenodd" clip-rule="evenodd" d="M180.371 14.0463C180.546 13.5247 180.305 13.43 179.888 13.0192C179.492 13.3843 179.999 13.7683 180.371 14.0463Z" fill="black"/>
<path fill-rule="evenodd" clip-rule="evenodd" d="M198.218 108.523C198.85 108.623 199.053 108.289 198.828 107.521C197.832 107.457 197.629 107.79 198.218 108.523Z" fill="black"/>
<path fill-rule="evenodd" clip-rule="evenodd" d="M163.747 27.9294C164.443 28.2478 164.177 28.901 164.165 29.4529C164.524 29.0633 165.248 28.3505 164.953 27.7907C164.499 26.9276 163.311 27.7301 163.747 27.9294Z" fill="black"/>
<path fill-rule="evenodd" clip-rule="evenodd" d="M140.029 17.0643C139.923 16.8572 139.817 16.65 139.711 16.4429C139.278 16.7901 138.611 17.7076 139.298 18.1547C139.58 17.8127 139.823 17.4495 140.029 17.0643Z" fill="black"/>
<path fill-rule="evenodd" clip-rule="evenodd" d="M148.384 23.1547C149.25 23.834 148.834 21.7486 148.808 21.5784C148.68 21.8229 147.946 22.8113 148.384 23.1547Z" fill="black"/>
<path fill-rule="evenodd" clip-rule="evenodd" d="M147.904 22.0958C147.837 21.9235 147.771 21.751 147.705 21.5784C147.353 21.9037 146.923 22.5675 147.503 22.9479C147.663 22.6815 147.796 22.3974 147.904 22.0958Z" fill="black"/>
<path fill-rule="evenodd" clip-rule="evenodd" d="M153.406 29.2567C153.477 29.3218 153.547 29.3872 153.618 29.4529C153.904 28.8764 153.579 28.4436 153.039 28.4258C153.077 28.7494 153.2 29.0263 153.406 29.2567Z" fill="black"/>
<path fill-rule="evenodd" clip-rule="evenodd" d="M130.191 94.1039C130.535 93.87 130.847 93.603 131.127 93.3034C130.11 92.6817 130.72 94.0292 129.495 93.2017C129.232 93.5663 129.662 94.3825 130.191 94.1039Z" fill="black"/>
<path fill-rule="evenodd" clip-rule="evenodd" d="M172.931 150.652C173.318 150.058 173.388 150.075 172.86 149.625C172.419 150.358 172.465 150.17 172.931 150.652Z" fill="black"/>
<path fill-rule="evenodd" clip-rule="evenodd" d="M92.0974 56.1841C92.3079 56.4035 92.5185 56.6234 92.729 56.8425C92.8273 56.5552 93.3635 55.7431 92.9992 55.473C92.6989 55.7099 92.398 55.9468 92.0974 56.1841Z" fill="black"/>
<path fill-rule="evenodd" clip-rule="evenodd" d="M99.5864 58.3564C99.2502 58.3003 98.4459 58.0551 98.26 58.3677C98.752 58.7707 99.8616 58.4026 99.5864 58.3564Z" fill="black"/>
</svg>
