<svg width="285" height="177" viewBox="0 0 285 177" fill="none" xmlns="http://www.w3.org/2000/svg">
<path fill-rule="evenodd" clip-rule="evenodd" d="M210.236 142.333C208.885 143.894 206.892 145.053 205.362 146.481C203.755 147.981 202.012 149.291 200.412 150.773C193.353 142.145 183.684 136.855 175.307 129.697C171.336 126.302 168.41 121.699 166.269 116.974C165.171 114.552 164.36 112.059 163.726 109.479C163.44 108.317 163.16 107.158 162.974 105.98C162.747 104.553 162.689 104.432 161.726 103.318C161.312 102.839 160.509 101.439 159.698 101.593C159.015 101.723 157.766 103.802 157.334 104.316C155.258 106.786 153.246 109.331 151.06 111.705C147.717 115.338 144.673 118.913 141.569 122.764C135.219 130.642 128.369 138.058 121.457 145.471C120.944 146.02 119.748 147.632 119.012 147.849C118.116 148.112 116.661 147.014 115.759 146.4C113.582 144.918 111.866 143.083 110.005 141.247C106.374 137.662 103.914 132.63 102.26 127.843C101.27 124.977 100.626 122.006 99.6041 119.151C99.1781 117.96 98.2126 116.497 98.7028 115.461C98.8487 115.152 99.7777 114.33 100.105 114.268C100.493 114.193 101.139 114.724 101.273 114.688C102.559 114.336 101.845 112.99 102.61 112.266C103.043 111.856 105.248 111.916 105.906 111.69C108.313 110.865 110.472 109.29 112.747 108.35C122.271 104.415 131.912 100.587 140.134 94.1613C142.267 92.4951 143.683 91.2429 146.228 90.1659C148.799 89.0776 151.384 88.1067 154.008 87.157C156.322 86.3191 158.65 85.5336 161.041 84.9331C163.627 84.2835 167.295 83.46 169.878 84.2966C174.952 85.9392 176.59 90.1196 178.611 94.5295C181.344 100.496 184.649 106.142 188.232 111.634C195.126 122.2 203.509 131.681 210.236 142.333Z" fill="#BF1235"/>
<path fill-rule="evenodd" clip-rule="evenodd" d="M57.4402 48.9218C57.161 48.7801 54.9813 49.6673 54.6154 49.803C53.154 50.3453 51.7775 51.2462 50.4006 51.9791C51.4558 53.2633 52.5113 54.5478 53.5662 55.8322C54.6004 53.2953 55.9297 51.202 57.4402 48.9218ZM58.1597 64.7062C57.8007 64.7465 60.8317 72.0303 61.1856 72.8481C62.4737 75.8227 63.826 78.7682 65.131 81.7353C66.3955 84.6106 67.9995 87.2557 69.6154 89.9418C70.9976 92.239 72.4193 95.8039 74.5042 97.5053C73.1878 91.665 73.3612 84.9498 69.5852 80.0461C65.6712 74.9624 61.8014 69.9982 58.1597 64.7062ZM210.236 142.592C204.387 133.33 197.065 125.137 190.966 116.04C187.551 110.946 184.227 105.788 181.352 100.366C179.261 96.422 177.961 90.7949 174.732 87.7797C173.309 86.4513 171.788 85.151 169.878 84.5559C167.265 83.7416 163.666 84.5487 161.041 85.1926C156.149 86.3921 151.369 88.255 146.735 90.2114C142.035 92.1956 138.024 95.7599 133.777 98.6236C129.222 101.696 124.29 103.934 119.186 105.893C114.741 107.599 110.788 110.048 106.367 111.765C105.486 112.107 103.688 112.057 102.949 112.503C102.153 112.984 102.467 114.402 101.5 114.926C101.064 115.162 100.918 114.306 100.584 114.32C100.174 114.337 99.8008 114.817 99.4062 115.122C97.7995 116.361 98.7839 117.188 99.42 118.894C101.494 124.451 102.608 130.105 105.519 135.352C107.913 139.664 111.339 143.529 115.373 146.384C115.986 146.818 117.986 148.502 118.706 148.39C119.355 148.289 120.674 146.566 121.122 146.098C123.153 143.974 125.009 141.689 127.039 139.561C130.176 136.274 133.196 132.898 136.24 129.565C139.774 125.696 142.902 121.312 146.084 117.179C147.549 115.277 149.433 113.728 151.061 111.965C153.249 109.594 155.258 107.045 157.334 104.575C157.962 103.828 159.014 101.916 159.99 101.939C160.674 101.955 161.88 103.565 162.238 104.07C163.567 105.945 163.561 109.333 164.222 111.674C165.836 117.383 168.745 122.96 172.736 127.365C176.704 131.747 181.786 134.862 186.479 138.384C191.563 142.199 196.38 146.104 200.412 151.032C202.012 149.551 203.755 148.24 205.362 146.74C206.892 145.313 208.886 144.154 210.236 142.592ZM134.947 168.796C136.084 168.807 138.01 169.507 139.027 169.086C136.01 165.747 133.239 162.882 129.422 160.436C125.46 157.897 121.512 155.38 117.664 152.672C109.91 147.215 104.206 140.742 100.967 131.653C100.133 129.313 99.5745 126.858 98.9632 124.452C98.6344 123.156 97.9798 117.094 96.8681 116.571C96.2096 116.26 91.2535 119.744 90.4683 120.178C88.6323 121.193 86.7895 121.98 84.8913 122.775C80.8114 124.483 76.6053 125.786 72.2788 126.874C67.0916 128.178 63.5584 126.02 60.3451 121.943C56.6994 117.318 53.6699 112.099 50.3367 107.242C48.8209 105.032 47.5651 102.827 46.4456 100.39C45.713 98.7954 42.8072 94.4937 43.8113 92.795C46.6758 94.9759 47.7065 99.3123 49.6578 102.232C52.0898 105.872 54.8306 109.303 57.2752 112.939C59.3308 115.996 61.428 119.701 64.465 121.899C67.1365 123.833 69.6743 123.238 72.5493 122.369C76.0338 121.317 79.6456 120.798 83.0605 119.492C86.756 118.079 90.2524 116.074 93.858 114.44C95.5388 113.677 97.5514 113.244 99.1354 112.294C100.501 111.476 100.297 111.043 100.397 109.3C100.514 107.267 100.649 105.232 100.739 103.196C100.799 101.829 100.06 99.9747 100.562 98.9539C96.4685 99.6635 92.4677 100.614 88.403 101.455C86.1776 101.915 84.0316 102.484 81.7835 102.846C80.9265 102.984 79.755 102.98 78.9877 103.353C78.3755 103.178 78.0634 103.289 78.0515 103.688C78.0222 103.905 77.9759 104.119 77.9122 104.329C76.657 104.9 75.9271 103.675 74.8384 102.501C73.4951 101.051 72.4892 99.4181 71.5037 97.7145C69.3 93.9057 66.7601 90.3235 64.7209 86.4074C62.6425 82.4153 60.9545 78.1411 59.1924 73.9993C57.5759 70.1994 56.5407 66.0899 54.7544 62.38C53.9572 60.724 52.9468 59.3547 51.767 57.9557C50.7934 56.8013 49.2955 54.311 47.8416 53.7807C47.4572 53.6405 46.4504 53.8761 46.0137 53.845C45.1433 53.7828 44.3676 53.4633 43.4768 53.5332C41.5482 53.6842 39.4456 54.9038 37.9044 55.976C38.9003 56.8638 41.3918 57.9429 39.6022 59.5421C37.8655 61.0947 36.9063 58.3096 36.2436 57.0895C33.1229 59.6521 33.5739 63.1856 33.2134 66.8064C33.0251 68.6967 32.5298 70.5584 32.2103 72.4204C31.9801 73.7604 32.1415 75.1465 32.0757 76.5147C31.9081 79.9914 31.5586 83.3192 31.5757 86.7472C31.5936 90.4114 31.8432 93.95 32.1364 97.5875C32.6299 103.712 33.7607 109.838 34.7304 115.914C35.276 119.329 36.0227 122.647 36.7475 126.007C37.5702 129.82 39.092 133.432 39.9454 137.235C40.8149 136.13 41.469 136.124 42.8754 136.271C43.9571 136.384 44.6838 136.126 44.6204 137.628C44.5795 138.602 43.7204 139.345 42.7698 139.515C41.5302 139.737 41.1091 139.118 40.4703 138.179C40.3208 139.957 41.5165 141.816 41.9894 143.553C42.4368 145.198 42.7334 146.811 43.4855 148.386C44.2193 149.923 44.8476 151.438 45.5901 152.96C45.9321 153.66 46.2519 154.371 46.5978 155.07C46.7727 155.423 46.9786 155.91 47.2396 156.208C47.8518 156.907 47.7543 156.569 48.4708 156.966C50.0318 157.834 49.4456 157.618 49.4821 159.408C49.5176 161.174 50.4234 162.472 51.8758 163.465C54.9573 165.571 57.9967 166.157 61.5001 167.222C64.7643 168.214 68.2024 169.065 71.6588 169.045C75.8921 169.022 80.0692 168.466 84.3025 168.41C88.9728 168.348 93.6879 168.374 98.3486 168.535C100.269 168.602 102.052 168.687 103.905 169.177C106.058 169.747 108.14 169.521 110.359 169.435C115.092 169.251 119.988 168.884 124.659 168.851C128.023 168.828 131.571 168.593 134.947 168.796ZM257.68 170.63C258.521 171.075 260.407 170.892 261.253 170.769C262.743 170.552 262.903 169.961 263.848 168.632C265.476 166.344 266.797 164.153 267.754 161.502C269.587 156.429 270.335 151.239 271.139 145.933C272.033 140.036 270.401 133.924 269.817 128.068C269.682 126.724 269.499 125.393 269.287 124.059C269.16 123.262 269.126 120.55 268.602 119.86C267.594 118.534 262.907 119.603 261.064 119.724C255.92 120.06 250.743 120.138 245.601 120.196C242.86 120.228 240.103 120.342 237.389 120.364C236.143 120.373 234.924 120.312 233.673 120.19C233.254 120.15 232.846 120.054 232.424 120.03C230.981 119.95 231.09 119.741 230.717 121.019C230.063 123.258 230.566 126.106 230.394 128.43C230.165 131.535 230.041 134.684 230.098 137.796C230.15 140.672 230.052 143.541 230.159 146.423C230.204 147.616 230.335 148.589 230.649 149.729C231.005 151.018 231.397 154.028 232.284 154.92C232.384 155.022 233.138 154.785 233.338 155.038C233.646 155.427 233.589 156.251 233.801 156.503C234.486 157.318 235.901 157.383 236.928 157.749C239.745 158.753 242.33 159.844 244.985 161.199C247.358 162.409 251.183 163.439 252.609 165.827C253.263 166.922 253.352 168.365 253.953 169.494C254.638 170.781 253.268 170.108 254.945 170.63C255.701 170.865 256.905 170.63 257.68 170.63ZM7.55816 156.08C7.34473 159.051 5.67109 161.88 5.08849 164.801C4.81588 166.169 4.35345 167.514 4.03301 168.874C3.72572 170.178 2.61554 171.723 2.72793 173.014C6.82551 171.554 10.976 171.187 15.2586 170.793C19.3176 170.42 23.6056 170.271 27.6305 170.269C31.732 170.267 36.1174 169.867 40.3405 169.804C44.7571 169.74 49.2402 169.625 53.5928 169.167C51.3168 167.482 48.469 165.898 46.7885 163.553C44.9615 161.004 44.0127 157.809 42.4052 155.119C39.1792 149.72 37.1284 143.021 35.4374 136.956C32.0234 124.712 28.2083 112.693 27.2889 99.9929C25.539 100.889 24.1499 104.366 23.2738 106.097C22.1555 108.308 21.57 110.704 20.843 113.053C19.346 117.892 18.31 122.91 16.477 127.703C12.9737 136.866 10.7219 146.738 7.55816 156.08ZM229.987 84.7167C230.745 90.1929 232.334 95.7399 232.395 101.282C232.408 102.501 232.202 103.856 232.456 105.058C232.727 106.341 233.61 107.476 234.119 108.696C234.928 110.632 236.977 114.601 235.001 116.242C234.961 114.685 233.536 112.708 232.819 111.346C231.737 109.295 230.315 107.419 229.143 105.418C226.688 101.231 223.937 97.1329 220.774 93.4412C217.693 89.8452 214.142 86.6555 210.874 83.2314C209.892 82.2025 202.017 72.3002 201.704 72.4386C204.147 81.8587 208.299 90.0551 213.982 97.9423C216.768 101.809 220.112 104.353 223.504 107.629C226.329 110.357 231.652 113.274 230.676 117.743C235.091 117.319 239.477 116.641 243.933 116.641C243.2 111.001 242.639 105.452 241.331 99.9053C239.846 93.6074 238.84 87.1212 237.583 80.7674C236.301 74.2808 234.126 68.0012 232.773 61.5269C231.477 55.3273 230.364 49.1388 229.414 42.8702C228.629 46.3436 228.918 50.1587 228.64 53.7027C228.355 57.3235 228.383 60.8776 228.477 64.5197C228.653 71.2845 229.374 77.9677 229.987 84.7167ZM249.119 52.464C249.144 49.5684 249.705 46.7119 249.878 43.8232C249.932 42.9369 250.814 36.89 249.991 36.5744C249.314 38.0504 249.156 39.9393 248.541 41.488C247.927 43.0352 247.105 44.5092 246.516 46.0671C245.239 49.4422 244.798 53.2612 244.661 56.8494C244.35 64.9657 244.189 73.0637 244.734 81.1799C244.968 84.6587 245.147 88.1435 245.083 91.6292C245.013 95.4646 244.426 98.7936 245.139 102.598C245.845 106.365 246.289 110.116 246.524 113.938C246.689 116.621 246.755 116.431 249.315 116.242C251.162 116.106 253.028 116.251 254.878 116.167C254.013 105.712 253.872 95.2353 252.49 84.8204C251.785 79.5071 251.766 74.117 250.89 68.8235C250.455 66.1939 249.725 63.6172 249.305 60.9847C248.855 58.1581 249.076 55.3124 249.119 52.464ZM61.9643 45.8845C66.8914 46.3114 72.1323 47.7844 77.1825 46.8117C76.35 46.4746 74.1715 46.0094 75.152 44.6787C76.1489 43.3255 77.8288 45.0418 78.823 44.8646C79.4361 44.7552 80.7908 42.1926 81.1686 41.662C82.0262 40.4561 82.1296 40.246 83.6718 39.9369C85.1657 39.638 85.5044 39.9617 85.6936 38.4764C85.9109 36.7684 85.32 34.8481 85.3786 33.1015C85.5044 29.3415 86.7174 26.0441 87.8465 22.5064C83.0497 23.5499 78.3594 24.7874 73.4547 25.46C71.3581 25.7476 68.0963 26.4109 66.1916 24.9856C65.6963 24.615 65.7755 24.1146 65.3702 23.685C64.6904 22.9643 63.4296 22.2188 62.4656 22.0135C56.5329 20.7505 55.9542 29.2078 58.9273 32.3725C59.6719 33.1655 60.7079 33.5571 61.4705 34.2838C62.4883 35.2529 62.5717 36.2737 62.7203 37.753C62.9989 40.527 62.6204 43.3117 61.437 45.8492L61.9643 45.8845ZM133.957 85.811C135.709 86.1434 137.537 86.0675 139.292 86.3512C139.916 86.4519 141.787 86.8034 142.335 86.4388C143.173 85.8819 143.47 83.8394 143.866 82.8882C144.563 81.2152 145.548 79.7558 146.213 78.0523C148.927 71.0941 151.458 64.1081 154.74 57.3875C153.482 57.0605 152.516 57.0476 151.248 56.8787C149.927 56.7026 148.73 55.9216 147.47 55.5859C146.272 55.2669 145.017 55.3483 143.83 54.9773C143.177 54.7731 142.615 54.3191 141.971 54.1603C140.944 53.9078 139.745 53.7601 139.134 54.4345C138.507 55.1262 138.288 57.0228 137.947 57.9163C137.039 60.2965 135.985 62.5937 135.225 65.0287C134.539 67.2249 133.887 69.3977 133.284 71.6139C132.646 73.9535 131.388 75.8819 130.623 78.1169C130.04 79.818 129.49 81.5571 129.403 83.3709C129.319 85.1408 129.061 85.2535 130.831 85.5363C131.724 85.6789 133.117 86.2098 133.957 85.811ZM249.187 168.646C249.643 168.859 250.074 168.831 250.477 168.561C246.522 166.891 242.676 164.574 238.55 163.428C234.68 162.354 230.918 161.069 227.19 159.746C224.16 158.67 221.437 157.833 218.698 155.94C217.035 154.791 215.558 153.499 214.416 151.82C213.144 149.951 212.861 147.29 211.483 145.607C209.624 147.649 207.44 149.195 205.24 150.818C204.479 151.379 202.654 152.603 202.393 153.471C202.065 154.568 202.945 155.616 203.38 156.726C204.495 159.566 205.039 162.406 205.644 165.359C205.886 166.543 206.41 168.323 207.382 168.819C208.268 169.27 210.832 168.942 211.933 168.858C217.682 168.423 223.328 167.977 229.111 168.373C235.655 168.822 242.66 169.132 249.187 168.646ZM260.668 116.003C261.713 116.007 262.734 115.876 263.775 115.876C263.174 113.071 264.578 109.441 265.076 106.64C265.634 103.508 266.058 100.269 266.429 97.1113C267.212 90.4607 267.567 83.8908 267.577 77.1914C267.587 70.7088 268.767 64.7848 270.42 58.553C272.195 51.8602 275.102 45.8415 277.505 39.3869C274.869 40.7805 273.41 44.0414 272.024 46.5343C270.273 49.6864 269.107 53.1766 268.392 56.7152C267.012 63.5416 265.499 70.3886 263.908 77.2037C262.25 84.2997 261.276 91.4609 259.377 98.4989C258.451 101.931 257.192 106.154 257.122 109.693C257.093 111.157 256.652 114.224 257.315 115.495C257.936 116.685 259.308 116.124 260.668 116.003ZM102.974 107.199C102.919 107.927 102.867 108.621 102.737 109.34C104.184 109.327 106.017 107.825 107.258 107.151C108.77 106.33 110.284 105.424 111.763 104.599C114.617 103.005 117.858 101.955 120.906 100.646C124.408 99.1416 127.626 97.3242 130.975 95.5133C132.144 94.8808 140.551 91.237 140.409 90.2416C138.564 90.18 136.718 90.1187 134.873 90.0574C133.29 90.0048 130.84 90.3624 129.325 89.8733C128.495 89.6052 127.563 88.6185 127.25 87.8458C126.94 87.0811 127.637 83.5644 127.232 83.3402C125.166 85.449 123.867 88.252 122.021 90.5271C119.98 93.0416 117.343 94.5098 114.436 95.846C111.227 97.3218 107.905 98.4645 104.625 99.7293C103.242 100.263 103.269 100.568 103.149 102.084C103.014 103.78 103.029 105.499 102.974 107.199ZM269.754 170.976C273.234 171.349 276.799 171.136 280.305 171.428C281.581 171.533 283.35 171.691 282.066 173.403C281.258 174.482 278.669 174.136 277.494 174.211C274.341 174.411 271.002 174.303 267.842 174.257C267.177 174.247 266.441 174.049 265.769 174.094C264.992 174.145 264.063 174.703 263.355 174.699C262.919 174.697 262.763 174.236 262.387 174.194C261.567 174.102 260.748 174.035 259.922 174.035C247.43 174.038 235.11 173.787 222.649 173.773C216.691 173.767 210.637 173.664 204.681 173.385C203.43 173.326 196.308 173.582 196.505 171.329C196.606 170.17 198.931 170.006 199.779 169.883C200.408 169.792 201.06 169.806 201.69 169.772C203.363 169.683 204.096 170.085 203.743 168.255C202.405 161.31 200.005 155.571 194.88 150.578C190.688 146.495 185.641 142.791 180.894 139.382C175.129 135.242 170.453 130.888 167.031 124.553C165.032 120.853 163.359 117.071 162.332 112.981C161.963 111.509 161.954 109.835 161.501 108.417C161.153 107.324 160.359 106.56 159.892 105.429C154.157 115.008 146.556 123.022 139.586 131.659C136.256 135.785 132.457 139.705 128.478 143.294C127.297 144.36 126.195 145.472 125.093 146.618C124.171 147.578 122.708 148.431 121.929 149.495C121.183 150.516 121.367 150.467 122.503 151.278C124.005 152.35 125.661 153.24 127.187 154.285C129.626 155.956 132.289 157.368 134.47 159.378C136.828 161.552 138.889 164.071 140.951 166.523C142.325 168.157 144.128 170.254 144.474 172.32C144.588 173.004 145.023 174.694 144.449 175.195C143.959 175.623 144.008 175.461 143.4 175.2C142.602 174.858 142.367 174.073 141.393 173.699C138.901 172.742 135.884 173.071 133.29 173.059C130.696 173.048 128.08 173.339 125.486 173.328C119.564 173.304 113.768 173.784 107.848 174.041C101.56 174.314 95.1945 173.658 88.9273 173.751C84.2839 173.82 79.5168 173.473 74.7451 173.731C72.2907 173.863 69.8802 173.556 67.4871 173.522C64.3538 173.477 61.136 173.903 57.9758 173.964C52.789 174.064 47.6655 174.063 42.447 174.188C31.222 174.457 20.0577 174.734 8.82617 174.912C7.32799 174.936 5.68783 174.885 4.20728 175.053C2.63587 175.233 3.44713 175.567 2.36893 176.133C-0.649544 177.716 0.0475341 171.846 0.119872 170.692C0.507868 164.505 2.07838 158.438 3.96576 152.565C5.75628 146.995 7.20992 141.164 8.72633 135.474C10.3862 129.245 12.5489 123.271 14.5128 117.104C16.5251 110.784 18.1635 104.218 21.8184 98.6164C22.6508 97.3406 23.5111 95.9677 24.8503 95.1633C26.3515 94.2615 26.416 94.7881 26.4148 93.1378C26.4139 91.5834 26.5096 89.5069 26.1428 88.0236C25.8113 86.6836 25.8624 87.4781 25.116 86.5156C24.5086 85.7327 23.8731 85.1976 23.4373 84.2471C20.7602 86.9616 14.6321 85.5291 12.0455 83.5745C8.87967 81.182 6.4683 77.1457 5.5847 73.3016C4.87507 70.2147 5.74582 64.3305 9.16245 62.846C10.828 62.1223 16.9457 61.5753 17.1905 59.2169C17.3166 57.9994 15.1635 56.2875 14.6667 55.2406C13.7461 53.3013 12.8619 50.7216 12.606 48.5957C12.1062 44.4461 13.99 39.806 16.9908 37.003C22.4957 31.861 32.1816 29.2222 39.2626 32.4846C37.7663 26.7684 36.8629 21.8371 37.6165 15.891C38.2657 10.7685 41.2881 7.90243 45.447 5.35086C52.5439 0.996127 62.1948 -0.722654 70.3095 0.543565C72.1535 0.831423 73.9231 1.44869 75.6305 1.93981C78.111 2.65333 81.0804 2.41569 83.4225 3.57499C85.1206 4.41525 86.4101 6.08919 87.9015 7.20684C89.6426 8.51162 91.0894 10.4591 92.2991 12.2601C94.8863 16.1113 93.8753 23.2591 91.71 27.125C91.2457 27.9542 90.6721 28.6521 89.9039 29.218C89.104 29.8069 87.8847 29.9901 87.4725 30.7538C86.4167 32.7103 87.4351 36.9456 87.5759 39.0602C87.74 41.5155 86.4986 43.3598 83.7145 43.5556C82.1039 43.6692 82.0525 42.7348 81.2813 44.6574C80.7815 45.9036 80.3275 47.2613 79.6062 48.4038C78.119 50.7584 75.3953 50.5285 72.9143 50.4648C70.0423 50.3907 67.2133 49.9369 64.3398 49.6506C65.0988 52.0823 67.1762 53.9696 68.4735 56.1359C70.2276 59.0659 71.2834 61.4946 71.5685 64.9083C71.7873 67.531 71.3151 69.6022 69.5204 71.5541C68.7775 72.3621 68.119 72.4018 68.3035 73.3339C68.4159 73.9024 69.399 74.8404 69.7469 75.2942C70.6673 76.4946 71.7359 77.5965 72.546 78.8785C75.6631 83.8113 76.5838 91.3308 76.5916 97.0731C76.5919 97.3364 76.7324 97.8963 76.6161 98.1686C76.53 98.3698 75.876 99.0068 75.8664 99.0615C75.7385 99.7998 76.4583 101.065 77.5879 101.191C78.7743 101.322 80.9471 100.332 82.0507 100.007C83.8167 99.4859 85.6168 99.1015 87.3789 98.5668C90.2249 97.7032 93.0578 97.0145 95.951 96.3377C97.2585 96.0322 98.5731 95.7776 99.8848 95.4918C101.379 95.1666 102.073 94.5379 102.844 96.0579C103.506 97.3624 103.094 97.5989 104.697 96.9415C106.288 96.2884 107.843 95.4789 109.396 94.7418C112.136 93.4421 115.399 92.2835 117.762 90.3647C121.705 87.1636 123.165 82.0659 126.938 78.6693C127.989 77.7235 128.616 77.7067 129.28 76.3966C129.991 74.9944 130.358 73.1961 130.731 71.6877C131.386 69.0465 131.852 66.396 132.446 63.7571C133.186 60.4696 134.785 57.4924 135.952 54.3567C136.406 53.1351 136.642 51.5822 137.375 50.4842C137.569 50.1931 137.941 50.029 138.092 49.7881C138.614 48.961 138.608 48.7338 138.744 47.7387C139.376 43.089 142.151 45.5351 145.184 46.6013C146.462 47.0506 152.53 49.9641 150.213 51.9017C152.975 52.7031 157.398 52.2676 157.361 56.2259C157.342 58.254 156.129 60.4236 155.478 62.322C154.9 64.0076 154.341 65.6998 153.753 67.3827C152.467 71.0693 150.905 74.6455 149.65 78.3434C149.077 80.0287 148.605 81.7535 147.808 83.344C147.105 84.7472 145.403 86.2938 145.123 87.8281C152.483 84.688 159.292 80.148 167.531 80.4374C171.138 80.5638 174.412 82.0802 176.404 85.252C178.902 89.2277 180.546 93.6789 182.987 97.6912C191.868 112.287 202.46 125.547 212.21 139.539C212.959 140.614 213.922 141.631 214.182 142.959C214.351 143.826 214.022 144.693 214.226 145.526C214.647 147.257 216.778 149.418 218.223 150.412C220.993 152.319 225.496 155.008 228.952 154.77C226.783 149.557 226.812 143.845 226.913 138.284C227.008 133.002 227.579 127.762 228.257 122.534C228.41 121.352 228.544 120.255 228.884 119.109C229.274 117.793 229.81 117.918 228.641 116.736C226.843 114.916 224.704 113.418 222.891 111.574C218.97 107.589 214.951 104.465 211.865 99.705C208.931 95.1779 205.834 90.5199 203.662 85.5623C201.425 80.4589 200.531 75.0087 199.421 69.604C198.971 67.4108 197.328 64.9624 197.658 62.6721C198.075 59.7776 199.417 61.8853 199.964 63.443C201.631 68.1979 205.535 72.4536 208.769 76.2776C212.263 80.4087 216.536 83.8651 220.182 87.8759C224.154 92.2443 226.874 97.2647 230.405 101.928C230.405 96.1407 228.429 90.2479 227.621 84.523C226.91 79.4841 226.687 74.4294 226.237 69.3687C225.216 57.8729 226.098 46.0384 227.531 34.6248C228.212 29.2043 227.826 23.9113 227.846 18.4722C227.853 16.7411 227.136 12.7515 228.05 11.2153C229.799 8.27309 230.819 14.7067 230.907 15.6659C231.436 21.3801 230.488 27.0305 230.972 32.7201C231.479 38.6617 232.577 44.4365 233.512 50.3094C234.525 56.6683 236.175 62.8837 237.753 69.1206C239.411 75.669 240.805 82.354 242.648 88.8501C243.146 86.8082 242.448 84.2997 242.31 82.2201C242.114 79.2441 241.73 76.2675 241.696 73.2837C241.643 68.5282 241.606 63.6845 241.875 58.9511C242.14 54.2856 242.06 49.3968 243.491 44.902C244.17 42.7686 245.166 40.6872 246.141 38.6776C247.343 36.1995 247.768 33.7968 248.434 31.1613C249.004 28.9041 249.839 26.7065 250.219 24.4042C250.455 22.9724 251.114 18.7457 252.753 21.948C253.705 23.8067 253.294 26.5621 253.32 28.5589C253.354 31.1188 252.962 33.6079 252.902 36.1571C252.785 41.1586 252.701 46.1541 252.328 51.1473C251.937 56.3858 252.279 61.0806 253.275 66.2423C254.366 71.8925 254.685 77.5549 255.251 83.2741C255.542 86.2271 256.033 89.1637 256.271 92.1209C256.396 93.6869 255.752 98.1776 256.875 99.2928C256.983 96.5805 257.76 93.8657 258.349 91.2226C259.047 88.0915 259.329 84.7998 259.844 81.6238C260.677 76.4782 262.293 71.5643 263.363 66.4764C265.567 55.9882 267.399 42.5085 276.638 35.6435C277.847 34.7453 279.175 34.0823 280.482 33.3431C281.222 32.9246 282.321 31.8419 283.168 31.653C284.092 31.4467 284.477 31.607 284.852 32.6789C285.374 34.1732 284.419 34.8711 283.527 35.9565C280.441 39.7121 279.123 44.5265 277.218 48.9311C272.855 59.0169 270.924 69.6548 270.902 80.5569C270.891 86.2642 270.497 91.7688 269.888 97.4413C269.233 103.546 268.371 110.003 266.516 115.876C268.376 116.293 270.395 115.671 270.9 117.833C271.024 118.364 270.799 118.992 270.937 119.684C271.07 120.356 271.391 121.024 271.581 121.685C271.973 123.052 272.18 124.401 272.371 125.805C273.108 131.229 274.375 136.389 274.509 141.889C274.633 146.974 273.638 152.125 272.721 157.111C271.797 162.134 269.147 166.415 267.061 170.957C267.959 170.957 268.856 170.967 269.754 170.976Z" fill="black"/>
<path fill-rule="evenodd" clip-rule="evenodd" d="M151.681 159.43C150.692 159.71 145.915 160.238 145.916 161.737C145.917 162.636 150.687 162.618 151.531 162.716C151.581 161.621 151.631 160.526 151.681 159.43ZM162.224 169.773C164.977 170.296 168.713 169.56 170.473 167.134C171.295 166 171.685 164.275 171.953 162.922C172.209 161.633 172.997 158.415 172.461 157.206C171.802 155.721 165.477 157.273 163.636 157.443C160.423 157.74 157.1 157.775 153.885 157.565C153.885 160.885 153.715 164.12 155.668 166.978C157.077 169.039 159.722 169.526 162.224 169.773ZM161.671 173.873C158.68 172.779 155.541 173.49 153.593 170.279C153.099 169.465 152.683 168.589 152.384 167.684C152.238 167.288 152.124 166.882 152.044 166.466C152.196 165.571 151.868 165.319 151.06 165.709C149.475 165.401 147.737 166.489 146.067 166.168C142.017 165.39 142.753 159.589 145.471 157.581C146.008 157.184 146.544 157.074 147.158 156.878C148.513 156.446 149.246 156.928 150.485 156.806C151.487 156.707 151.762 155.657 152.838 155.194C153.543 154.892 154.521 154.915 155.261 154.885C159.138 154.725 163.026 154.727 166.928 154.474C168.747 154.356 170.712 154.644 172.494 154.334C173.329 154.188 173.209 153.632 173.999 154.12C174.817 154.624 174.464 156.49 174.423 157.234C174.184 161.536 173.928 166.15 171.623 169.912C169.514 173.353 165.365 173.705 161.671 173.873Z" fill="black"/>
<path fill-rule="evenodd" clip-rule="evenodd" d="M3.72656 175.059C4.68878 175.048 5.6507 175.038 6.60963 175.028C5.64622 175.039 4.68639 175.049 3.72656 175.059Z" fill="black"/>
<path fill-rule="evenodd" clip-rule="evenodd" d="M270.908 83.3276C270.906 82.4033 270.904 81.4791 270.902 80.5566C270.904 81.4815 270.906 82.4045 270.908 83.3276Z" fill="black"/>
<path fill-rule="evenodd" clip-rule="evenodd" d="M26.1457 87.1233C26.1428 88.0236 26.1398 88.9239 26.1368 89.8222C26.1395 88.9213 26.1425 88.0221 26.1457 87.1233Z" fill="black"/>
<path fill-rule="evenodd" clip-rule="evenodd" d="M106.127 174.038C106.893 174.039 107.658 174.04 108.42 174.042C107.653 174.041 106.891 174.04 106.127 174.038Z" fill="black"/>
<path fill-rule="evenodd" clip-rule="evenodd" d="M59.6462 173.854C60.4117 173.857 61.1769 173.859 61.9389 173.862C61.1722 173.86 60.4093 173.857 59.6462 173.854Z" fill="black"/>
<path fill-rule="evenodd" clip-rule="evenodd" d="M227.014 136.462C226.98 137.07 226.946 137.678 226.913 138.284C226.946 137.676 226.98 137.069 227.014 136.462Z" fill="black"/>
<path fill-rule="evenodd" clip-rule="evenodd" d="M269.755 170.976C269.163 170.969 268.572 170.963 267.98 170.957C268.574 170.709 269.166 170.72 269.755 170.976Z" fill="black"/>
<path fill-rule="evenodd" clip-rule="evenodd" d="M217.233 173.666C217.657 173.66 218.082 173.653 218.502 173.646C218.077 173.652 217.655 173.66 217.233 173.666Z" fill="black"/>
<path fill-rule="evenodd" clip-rule="evenodd" d="M270.678 90.8266C270.688 90.3671 270.699 89.908 270.709 89.4503C270.699 89.9101 270.688 90.3683 270.678 90.8266Z" fill="black"/>
<path fill-rule="evenodd" clip-rule="evenodd" d="M230.972 32.7201C230.937 32.2463 230.902 31.7729 230.867 31.3003C230.902 31.7743 230.937 32.2472 230.972 32.7201Z" fill="black"/>
<path fill-rule="evenodd" clip-rule="evenodd" d="M270.887 85.137C270.893 84.662 270.899 84.1873 270.904 83.7141C270.899 84.1894 270.893 84.6632 270.887 85.137Z" fill="black"/>
<path fill-rule="evenodd" clip-rule="evenodd" d="M137.365 173.078C137.743 173.083 138.12 173.089 138.495 173.093C138.116 173.087 137.741 173.083 137.365 173.078Z" fill="black"/>
<path fill-rule="evenodd" clip-rule="evenodd" d="M234.605 173.852C234.974 173.859 235.343 173.866 235.709 173.874C235.338 173.867 234.972 173.859 234.605 173.852Z" fill="black"/>
<path fill-rule="evenodd" clip-rule="evenodd" d="M274.467 140.46C274.44 140.043 274.414 139.627 274.388 139.211C274.414 139.628 274.441 140.044 274.467 140.46Z" fill="black"/>
<path fill-rule="evenodd" clip-rule="evenodd" d="M267.842 174.257C268.142 174.255 268.443 174.253 268.74 174.253C268.438 174.255 268.14 174.256 267.842 174.257Z" fill="black"/>
<path fill-rule="evenodd" clip-rule="evenodd" d="M226.915 173.871C227.212 173.864 227.509 173.856 227.804 173.849C227.505 173.857 227.21 173.864 226.915 173.871Z" fill="black"/>
<path fill-rule="evenodd" clip-rule="evenodd" d="M160.05 173.644C160.378 173.642 160.705 173.64 161.029 173.638C160.701 173.64 160.376 173.642 160.05 173.644Z" fill="black"/>
<path fill-rule="evenodd" clip-rule="evenodd" d="M84.5406 173.643C84.8518 173.645 85.1633 173.647 85.4712 173.65C85.1588 173.648 84.8497 173.645 84.5406 173.643Z" fill="black"/>
<path fill-rule="evenodd" clip-rule="evenodd" d="M66.1719 173.693C66.4893 173.675 66.8062 173.657 67.1206 173.64C66.8023 173.658 66.4872 173.675 66.1719 173.693Z" fill="black"/>
<path fill-rule="evenodd" clip-rule="evenodd" d="M154.115 52.745C153.643 52.7043 153.171 52.6637 152.698 52.6227C153.171 52.6559 153.671 52.3761 154.115 52.745Z" fill="black"/>
<path fill-rule="evenodd" clip-rule="evenodd" d="M274.512 171.155C274.046 171.108 273.58 171.061 273.115 171.014C273.581 171.061 274.046 171.108 274.512 171.155Z" fill="black"/>
<path fill-rule="evenodd" clip-rule="evenodd" d="M242.028 55.6125C241.997 56.0205 241.965 56.4288 241.934 56.8356C241.965 56.427 241.997 56.0196 242.028 55.6125Z" fill="black"/>
<path fill-rule="evenodd" clip-rule="evenodd" d="M271.004 72.6245C271.036 72.2377 271.068 71.8509 271.1 71.4656C271.068 71.853 271.036 72.2386 271.004 72.6245Z" fill="black"/>
<path fill-rule="evenodd" clip-rule="evenodd" d="M241.842 61.9417C241.809 62.3492 241.775 62.7563 241.742 63.1622C241.775 62.7545 241.809 62.348 241.842 61.9417Z" fill="black"/>
<path fill-rule="evenodd" clip-rule="evenodd" d="M270.807 88.2394C270.804 87.8457 270.801 87.4521 270.799 87.0596C271.053 87.4521 271.042 87.8448 270.807 88.2394Z" fill="black"/>
<path fill-rule="evenodd" clip-rule="evenodd" d="M227.02 144.774C227.017 145.169 227.013 145.564 227.009 145.957C226.748 145.559 226.8 145.166 227.02 144.774Z" fill="black"/>
<path fill-rule="evenodd" clip-rule="evenodd" d="M256.704 99.1227C256.658 98.7234 256.612 98.3237 256.567 97.9256C256.613 98.3255 256.658 98.7243 256.704 99.1227Z" fill="black"/>
<path fill-rule="evenodd" clip-rule="evenodd" d="M10.9135 62.4664C10.6047 62.8744 10.1841 62.5949 9.81708 62.6445C10.183 62.585 10.5482 62.5259 10.9135 62.4664Z" fill="black"/>
<path fill-rule="evenodd" clip-rule="evenodd" d="M163.599 154.757C163.209 154.758 162.818 154.758 162.428 154.759C162.819 154.758 163.209 154.757 163.599 154.757Z" fill="black"/>
<path fill-rule="evenodd" clip-rule="evenodd" d="M225.922 64.143C225.959 64.4748 225.995 64.8066 226.031 65.1372C225.995 64.8048 225.959 64.4739 225.922 64.143Z" fill="black"/>
<path fill-rule="evenodd" clip-rule="evenodd" d="M33.1357 31.1899C32.7435 31.1977 32.3513 31.2055 31.9592 31.2132C32.3472 30.9849 32.7382 30.9188 33.1357 31.1899Z" fill="black"/>
<path fill-rule="evenodd" clip-rule="evenodd" d="M241.832 67.6813C241.807 68.0292 241.782 68.3769 241.757 68.7233C241.782 68.3754 241.807 68.0283 241.832 67.6813Z" fill="black"/>
<path fill-rule="evenodd" clip-rule="evenodd" d="M231.078 24.9712C231.108 24.6541 231.138 24.3369 231.169 24.0216C231.138 24.3393 231.108 24.6553 231.078 24.9712Z" fill="black"/>
<path fill-rule="evenodd" clip-rule="evenodd" d="M227.996 23.9776C227.965 24.3217 227.934 24.666 227.904 25.0089C227.935 24.6642 227.965 24.3208 227.996 23.9776Z" fill="black"/>
<path fill-rule="evenodd" clip-rule="evenodd" d="M57.6443 0.993225C57.2453 1.04165 56.8462 1.09007 56.4474 1.1382C56.8465 1.08978 57.2453 1.04165 57.6443 0.993225Z" fill="black"/>
<path fill-rule="evenodd" clip-rule="evenodd" d="M28.8214 31.4637C28.4119 31.5056 28.0024 31.5474 27.5931 31.5893C28.0027 31.5474 28.4122 31.5056 28.8214 31.4637Z" fill="black"/>
<path fill-rule="evenodd" clip-rule="evenodd" d="M253.229 32.4723C253.254 32.1522 253.279 31.8317 253.304 31.5134C253.279 31.8338 253.254 32.153 253.229 32.4723Z" fill="black"/>
<path fill-rule="evenodd" clip-rule="evenodd" d="M15.3802 85.3079C15.6161 85.3115 15.8516 85.3148 16.0839 85.3184C15.8472 85.3148 15.6137 85.3115 15.3802 85.3079Z" fill="black"/>
<path fill-rule="evenodd" clip-rule="evenodd" d="M228.008 124.821C227.984 125.175 227.961 125.529 227.937 125.883C227.961 125.529 227.984 125.175 228.008 124.821Z" fill="black"/>
<path fill-rule="evenodd" clip-rule="evenodd" d="M252.066 55.8298C252.057 55.4881 252.048 55.1467 252.038 54.806C252.048 55.1479 252.057 55.4887 252.066 55.8298Z" fill="black"/>
<path fill-rule="evenodd" clip-rule="evenodd" d="M67.6898 0.184813C67.326 0.184813 66.9622 0.185112 66.599 0.185112C66.9628 -0.0647839 67.3263 -0.0585064 67.6898 0.184813Z" fill="black"/>
<path fill-rule="evenodd" clip-rule="evenodd" d="M164.812 80.6009C164.413 80.611 164.015 80.6212 163.617 80.6313C164.008 80.3545 164.407 80.3477 164.812 80.6009Z" fill="black"/>
<path fill-rule="evenodd" clip-rule="evenodd" d="M199.633 173.063C199.869 173.068 200.105 173.073 200.338 173.079C200.101 173.075 199.867 173.069 199.633 173.063Z" fill="black"/>
<path fill-rule="evenodd" clip-rule="evenodd" d="M208.527 173.479C208.763 173.47 208.999 173.462 209.232 173.454C208.995 173.462 208.761 173.471 208.527 173.479Z" fill="black"/>
<path fill-rule="evenodd" clip-rule="evenodd" d="M69.3224 173.643C69.5685 173.649 69.8145 173.655 70.0572 173.661C69.8103 173.655 69.5664 173.649 69.3224 173.643Z" fill="black"/>
<path fill-rule="evenodd" clip-rule="evenodd" d="M274.262 136.507C274.227 136.169 274.192 135.831 274.157 135.495C274.192 135.833 274.227 136.17 274.262 136.507Z" fill="black"/>
<path fill-rule="evenodd" clip-rule="evenodd" d="M242.134 79.5633C242.162 79.8853 242.19 80.2072 242.217 80.527C242.189 80.2048 242.162 79.8841 242.134 79.5633Z" fill="black"/>
<path fill-rule="evenodd" clip-rule="evenodd" d="M254.498 74.036C254.46 73.6947 254.422 73.3533 254.384 73.0131C254.422 73.3548 254.46 73.6953 254.498 74.036Z" fill="black"/>
<path fill-rule="evenodd" clip-rule="evenodd" d="M71.3184 173.846C71.5665 173.843 71.8149 173.839 72.0603 173.835C71.811 173.84 71.5647 173.843 71.3184 173.846Z" fill="black"/>
<path fill-rule="evenodd" clip-rule="evenodd" d="M161.671 173.873C161.913 173.862 162.154 173.851 162.392 173.841C162.15 173.852 161.911 173.862 161.671 173.873Z" fill="black"/>
<path fill-rule="evenodd" clip-rule="evenodd" d="M252.48 49.1095C252.469 48.7636 252.458 48.4178 252.447 48.0725C252.458 48.4187 252.469 48.7639 252.48 49.1095Z" fill="black"/>
<path fill-rule="evenodd" clip-rule="evenodd" d="M47.7926 174.072C48.0347 174.071 48.2766 174.068 48.5154 174.067C48.2721 174.069 48.0326 174.071 47.7926 174.072Z" fill="black"/>
<path fill-rule="evenodd" clip-rule="evenodd" d="M252.379 174.069C252.628 174.071 252.877 174.074 253.122 174.077C252.872 174.074 252.625 174.071 252.379 174.069Z" fill="black"/>
<path fill-rule="evenodd" clip-rule="evenodd" d="M257.752 174.039C257.992 174.057 258.232 174.074 258.47 174.09C258.228 174.073 257.99 174.057 257.752 174.039Z" fill="black"/>
<path fill-rule="evenodd" clip-rule="evenodd" d="M259.922 174.035C260.167 174.042 260.411 174.05 260.653 174.055C260.408 174.048 260.165 174.041 259.922 174.035Z" fill="black"/>
<path fill-rule="evenodd" clip-rule="evenodd" d="M271.064 75.4072C271.048 75.067 271.032 74.7265 271.016 74.3872C271.033 74.728 271.048 75.0676 271.064 75.4072Z" fill="black"/>
<path fill-rule="evenodd" clip-rule="evenodd" d="M106.859 169.576C107.603 169.537 108.347 169.499 109.091 169.46C108.347 169.499 107.603 169.537 106.859 169.576Z" fill="black"/>
<path fill-rule="evenodd" clip-rule="evenodd" d="M61.9642 45.8845C62.6102 45.9407 63.2562 45.9969 63.9015 46.0525C63.2556 45.9966 62.6099 45.9404 61.9642 45.8845Z" fill="black"/>
<path fill-rule="evenodd" clip-rule="evenodd" d="M244.348 73.9685C244.368 74.5848 244.389 75.2012 244.409 75.8158C244.389 75.1991 244.368 74.5839 244.348 73.9685Z" fill="black"/>
<path fill-rule="evenodd" clip-rule="evenodd" d="M257.68 170.63C258.354 170.671 259.028 170.712 259.702 170.753C259.024 170.783 258.335 170.977 257.68 170.63Z" fill="black"/>
<path fill-rule="evenodd" clip-rule="evenodd" d="M253.689 97.722C253.694 97.134 253.699 96.5461 253.704 95.9596C253.699 96.5479 253.694 97.1349 253.689 97.722Z" fill="black"/>
<path fill-rule="evenodd" clip-rule="evenodd" d="M251.963 116.195C252.555 116.203 253.147 116.211 253.738 116.219C253.146 116.211 252.555 116.203 251.963 116.195Z" fill="black"/>
<path fill-rule="evenodd" clip-rule="evenodd" d="M103.017 105.859C103.002 106.307 102.987 106.755 102.973 107.201C102.988 106.752 103.002 106.305 103.017 105.859Z" fill="black"/>
<path fill-rule="evenodd" clip-rule="evenodd" d="M261.81 86.8847C261.786 87.3307 261.762 87.7764 261.738 88.22C261.763 87.7737 261.787 87.3292 261.81 86.8847Z" fill="black"/>
<path fill-rule="evenodd" clip-rule="evenodd" d="M249.187 168.646C249.618 168.616 250.048 168.587 250.478 168.56C250.154 168.819 249.828 168.84 249.187 168.646Z" fill="black"/>
<path fill-rule="evenodd" clip-rule="evenodd" d="M246.307 110.357C246.336 110.838 246.366 111.319 246.395 111.798C246.366 111.317 246.336 110.837 246.307 110.357Z" fill="black"/>
<path fill-rule="evenodd" clip-rule="evenodd" d="M85.3645 34.4906C85.369 34.0264 85.3735 33.5622 85.3782 33.0997C85.3738 33.5645 85.3693 34.0276 85.3645 34.4906Z" fill="black"/>
<path fill-rule="evenodd" clip-rule="evenodd" d="M246.828 116.292L248.432 116.257C247.903 116.513 247.368 116.522 246.828 116.292Z" fill="black"/>
<path fill-rule="evenodd" clip-rule="evenodd" d="M261.629 119.718C261.25 119.722 260.872 119.725 260.496 119.728C260.876 119.725 261.252 119.722 261.629 119.718Z" fill="black"/>
<path fill-rule="evenodd" clip-rule="evenodd" d="M123.088 168.831C123.612 168.837 124.136 168.844 124.659 168.851C124.132 169.115 123.608 169.153 123.088 168.831Z" fill="black"/>
<path fill-rule="evenodd" clip-rule="evenodd" d="M244.533 77.927C244.559 78.4095 244.585 78.8919 244.611 79.3729C244.585 78.8899 244.559 78.4086 244.533 77.927Z" fill="black"/>
<path fill-rule="evenodd" clip-rule="evenodd" d="M74.8844 47.0171C75.3325 46.7962 75.7841 46.7591 76.2403 46.9932C75.788 47.0012 75.3364 47.0093 74.8844 47.0171Z" fill="black"/>
<path fill-rule="evenodd" clip-rule="evenodd" d="M229.876 83.498C229.913 83.9048 229.95 84.3119 229.987 84.7176C229.95 84.3102 229.913 83.9039 229.876 83.498Z" fill="black"/>
<path fill-rule="evenodd" clip-rule="evenodd" d="M267.727 74.0022C267.497 73.6041 267.505 73.208 267.738 72.8155C267.735 73.2116 267.731 73.6071 267.727 74.0022Z" fill="black"/>
<path fill-rule="evenodd" clip-rule="evenodd" d="M244.606 60.1799C244.606 60.5826 244.607 60.9855 244.607 61.387C244.606 60.9834 244.606 60.5817 244.606 60.1799Z" fill="black"/>
<path fill-rule="evenodd" clip-rule="evenodd" d="M260.669 116.003C261.13 115.862 261.591 115.662 262.05 116.008C261.589 116.006 261.129 116.004 260.669 116.003Z" fill="black"/>
<path fill-rule="evenodd" clip-rule="evenodd" d="M48.0031 169.395C48.4281 169.208 48.8523 169.11 49.2711 169.409C48.8481 169.404 48.4257 169.4 48.0031 169.395Z" fill="black"/>
<path fill-rule="evenodd" clip-rule="evenodd" d="M134.947 168.795C135.402 168.597 135.855 168.488 136.304 168.809C135.851 168.805 135.4 168.8 134.947 168.795Z" fill="black"/>
<path fill-rule="evenodd" clip-rule="evenodd" d="M33.767 109.991C33.8011 110.401 33.8355 110.811 33.8693 111.221C33.8349 110.81 33.8008 110.4 33.767 109.991Z" fill="black"/>
<path fill-rule="evenodd" clip-rule="evenodd" d="M139.292 86.3508C139.74 86.1882 140.185 86.1033 140.624 86.375C140.18 86.3667 139.736 86.3589 139.292 86.3508Z" fill="black"/>
<path fill-rule="evenodd" clip-rule="evenodd" d="M244.526 98.5677C244.551 98.9688 244.576 99.37 244.6 99.7702C244.575 99.3688 244.551 98.9682 244.526 98.5677Z" fill="black"/>
<path fill-rule="evenodd" clip-rule="evenodd" d="M33.478 62.371C33.4409 62.6941 33.4038 63.0176 33.3671 63.3389C33.4041 63.0152 33.4409 62.6932 33.478 62.371Z" fill="black"/>
<path fill-rule="evenodd" clip-rule="evenodd" d="M7.55814 156.08C7.53512 156.394 7.5124 156.709 7.48969 157.021C7.5133 156.706 7.53572 156.393 7.55814 156.08Z" fill="black"/>
<path fill-rule="evenodd" clip-rule="evenodd" d="M253.888 100.691C253.862 100.365 253.837 100.04 253.812 99.7164C253.837 100.042 253.862 100.367 253.888 100.691Z" fill="black"/>
<path fill-rule="evenodd" clip-rule="evenodd" d="M102.866 108.626C102.94 108.863 103.015 109.1 103.089 109.337C102.592 109.457 102.518 109.22 102.866 108.626Z" fill="black"/>
<path fill-rule="evenodd" clip-rule="evenodd" d="M132.743 85.8158C133.148 85.814 133.553 85.8125 133.958 85.8107C133.553 86.0026 133.149 86.1344 132.743 85.8158Z" fill="black"/>
<path fill-rule="evenodd" clip-rule="evenodd" d="M33.9939 111.934C34.0076 112.292 34.0214 112.651 34.0345 113.009C34.0205 112.65 34.007 112.292 33.9939 111.934Z" fill="black"/>
<path fill-rule="evenodd" clip-rule="evenodd" d="M230.859 115.716C230.873 116.046 230.888 116.376 230.902 116.705C230.888 116.374 230.873 116.045 230.859 115.716Z" fill="black"/>
<path fill-rule="evenodd" clip-rule="evenodd" d="M29.9818 170.19C30.3659 169.935 30.7509 169.957 31.1365 170.186C30.7515 170.187 30.3665 170.189 29.9818 170.19Z" fill="black"/>
<path fill-rule="evenodd" clip-rule="evenodd" d="M40.0966 57.7566C40.1172 58.0938 40.1382 58.4313 40.1597 58.7664C40.1391 58.4286 40.1178 58.0926 40.0966 57.7566Z" fill="black"/>
<path fill-rule="evenodd" clip-rule="evenodd" d="M27.9833 170.225C28.3826 170.226 28.782 170.228 29.181 170.23C28.7805 170.502 28.3814 170.515 27.9833 170.225Z" fill="black"/>
<path fill-rule="evenodd" clip-rule="evenodd" d="M249.12 52.4636C249.123 52.1211 249.126 51.7788 249.129 51.4372C249.126 51.78 249.123 52.1217 249.12 52.4636Z" fill="black"/>
<path fill-rule="evenodd" clip-rule="evenodd" d="M65.7782 46.4733C66.1602 46.5232 66.5422 46.5732 66.924 46.6228C66.5419 46.5729 66.1599 46.5232 65.7782 46.4733Z" fill="black"/>
<path fill-rule="evenodd" clip-rule="evenodd" d="M32.0673 76.0361C32.0724 76.3559 32.0775 76.6761 32.0835 76.9944C32.0784 76.674 32.073 76.355 32.0673 76.0361Z" fill="black"/>
<path fill-rule="evenodd" clip-rule="evenodd" d="M251.691 75.99C251.67 75.6642 251.649 75.3384 251.629 75.0141C251.649 75.3405 251.671 75.6654 251.691 75.99Z" fill="black"/>
<path fill-rule="evenodd" clip-rule="evenodd" d="M162.592 169.843C163.064 169.885 163.535 169.928 164.006 169.971C163.535 169.928 163.064 169.885 162.592 169.843Z" fill="black"/>
<path fill-rule="evenodd" clip-rule="evenodd" d="M161.017 157.64C160.762 157.644 160.508 157.648 160.255 157.653C160.511 157.65 160.764 157.645 161.017 157.64Z" fill="black"/>
<path fill-rule="evenodd" clip-rule="evenodd" d="M161.039 169.656C161.434 169.695 161.83 169.734 162.225 169.773C161.829 169.734 161.434 169.695 161.039 169.656Z" fill="black"/>
<path fill-rule="evenodd" clip-rule="evenodd" d="M89.8898 143.032C90.4043 145.938 85.887 148.781 85.5289 144.649C85.398 143.138 86.4083 142.076 87.5398 141.152C89.1455 139.841 90.0426 141.097 89.8898 143.032Z" fill="black"/>
<path fill-rule="evenodd" clip-rule="evenodd" d="M40.0982 107.569C41.1623 108.004 49.2926 110.654 45.0695 111.986C43.9515 112.339 42.2617 112.392 41.2926 111.77C40.1268 111.022 38.9509 108.815 40.0982 107.569Z" fill="black"/>
<path fill-rule="evenodd" clip-rule="evenodd" d="M42.0991 68.2062C44.8587 67.8858 47.4013 72.4183 43.999 72.2712C41.5225 72.1639 38.1919 68.2062 42.0991 68.2062Z" fill="black"/>
<path fill-rule="evenodd" clip-rule="evenodd" d="M51.9709 79.3197C54.2753 81.3302 50.004 85.8298 48.3082 84.0883C47.4423 83.1988 48.241 81.2824 48.9557 80.5381C49.6892 79.7744 50.9943 79.6309 51.9709 79.3197Z" fill="black"/>
<path fill-rule="evenodd" clip-rule="evenodd" d="M58.831 131.441C57.4706 131.658 51.488 133.613 52.7357 130.062C53.2116 128.708 54.5388 129.109 55.7521 129.171C57.7076 129.271 58.831 129.178 58.831 131.441Z" fill="black"/>
<path fill-rule="evenodd" clip-rule="evenodd" d="M54.8904 140.588C56.9269 141.677 53.95 147.774 52.262 146.477C49.9199 144.677 53.1232 141.135 54.8904 140.588Z" fill="black"/>
<path fill-rule="evenodd" clip-rule="evenodd" d="M63.7725 135.686C64.7628 135.282 69.431 139.772 67.6539 141.021C66.7431 141.661 65.0174 140.564 64.4683 139.902C63.4389 138.661 63.3456 137.13 63.7725 135.686Z" fill="black"/>
<path fill-rule="evenodd" clip-rule="evenodd" d="M36.839 98.9835C37.8511 99.1497 39.5986 99.2023 39.6641 100.625C39.7215 101.875 38.1543 102.28 37.0509 102.378C35.9061 102.479 34.3906 102.156 34.3688 100.717C34.3457 99.164 36.8031 99.2576 36.839 98.9835Z" fill="black"/>
<path fill-rule="evenodd" clip-rule="evenodd" d="M61.7981 160.875C62.876 161.529 67.9038 163.885 65.7486 165.588C64.9421 166.225 62.4973 164.909 61.947 164.24C61.2903 163.442 60.6485 161.572 61.7981 160.875Z" fill="black"/>
<path fill-rule="evenodd" clip-rule="evenodd" d="M75.7749 143.779C75.6192 141.178 80.0067 140.143 79.0971 143.834C78.8406 144.875 78.5925 146.455 77.3057 146.515C75.7848 146.587 75.7298 144.787 75.7749 143.779Z" fill="black"/>
<path fill-rule="evenodd" clip-rule="evenodd" d="M62.2213 98.5554C62.2518 100.528 58.4717 102.268 58.4424 99.141C58.4164 96.3467 62.3624 95.5288 62.2213 98.5554Z" fill="black"/>
<path fill-rule="evenodd" clip-rule="evenodd" d="M59.7251 88.2804C60.6565 88.5805 61.8944 88.735 61.9763 89.9184C62.0632 91.1709 60.8998 91.7284 59.853 91.6581C58.9945 91.6004 57.7241 90.9649 57.5681 90.0335C57.3394 88.6663 58.6738 88.5769 59.7251 88.2804Z" fill="black"/>
<path fill-rule="evenodd" clip-rule="evenodd" d="M42.4051 124.4C42.3893 122.772 45.6517 120.815 46.2525 122.704C46.4447 123.309 44.9071 126.019 44.3956 126.222C43.0424 126.759 42.8535 125.507 42.4051 124.4Z" fill="black"/>
<path fill-rule="evenodd" clip-rule="evenodd" d="M69.1389 151.494C68.0365 152.481 64.7296 155.253 64.9768 151.532C65.1346 149.155 69.4298 149.279 69.1389 151.494Z" fill="black"/>
<path fill-rule="evenodd" clip-rule="evenodd" d="M123.017 162.129C123.378 160.564 128.552 163.279 126.825 165.255C126.246 165.918 124.731 165.318 124.148 164.925C122.995 164.147 122.97 163.428 123.017 162.129Z" fill="black"/>
<path fill-rule="evenodd" clip-rule="evenodd" d="M94.1907 128.639C94.3924 127.941 94.6166 126.708 95.282 126.263C96.4861 125.458 97.5344 126.673 97.5347 127.953C97.535 130.341 94.8163 131.094 94.1907 128.639Z" fill="black"/>
<path fill-rule="evenodd" clip-rule="evenodd" d="M81.368 156.563C82.7114 156.871 85.7023 160.137 83.9677 161.469C82.2983 162.751 80.0779 157.539 81.368 156.563Z" fill="black"/>
<path fill-rule="evenodd" clip-rule="evenodd" d="M82.6468 131.846C84.3739 131.984 86.7479 134.781 84.0633 135.226C81.9634 135.574 79.5213 132.532 82.6468 131.846Z" fill="black"/>
<path fill-rule="evenodd" clip-rule="evenodd" d="M98.2832 144.717C98.7163 143.258 103 144.821 102.759 146.428C102.631 147.282 100.88 147.482 99.9592 147.257C98.6039 146.924 98.2521 146.035 98.2832 144.717Z" fill="black"/>
<path fill-rule="evenodd" clip-rule="evenodd" d="M47.7908 63.2301C47.8219 61.3439 51.4462 60.5751 51.7117 62.4759C51.9517 64.1932 47.7453 66.0205 47.7908 63.2301Z" fill="black"/>
<path fill-rule="evenodd" clip-rule="evenodd" d="M97.0857 164.152C97.3469 163.204 97.4596 162.062 98.6443 161.937C100.001 161.794 99.9607 162.834 99.8014 163.912C99.3673 166.845 97.7101 166.992 97.0857 164.152Z" fill="black"/>
<path fill-rule="evenodd" clip-rule="evenodd" d="M39.85 85.6714C37.9605 86.0977 34.4999 82.4586 36.6151 81.6779C38.1055 81.127 39.85 84.5735 39.85 85.6714Z" fill="black"/>
<path fill-rule="evenodd" clip-rule="evenodd" d="M63.9495 113.938C62.9878 114.391 62.7663 114.666 62.0277 113.923C61.3844 113.276 61.4128 111.473 61.9649 110.799C64.0795 108.222 64.0299 112.895 63.9495 113.938Z" fill="black"/>
<path fill-rule="evenodd" clip-rule="evenodd" d="M71.7949 108.71C72.7977 108.838 75.7777 111.664 74.226 112.787C72.3245 114.164 71.2487 109.852 71.7949 108.71Z" fill="black"/>
<path fill-rule="evenodd" clip-rule="evenodd" d="M93.4928 109.454C92.7637 112.261 90.9442 110.373 91.0473 108.248C91.2129 104.846 93.0985 107.809 93.4928 109.454Z" fill="black"/>
<path fill-rule="evenodd" clip-rule="evenodd" d="M104.556 154.539C105.79 155.049 107.464 159.764 105.702 160.017C103.723 160.3 104.382 155.521 104.556 154.539Z" fill="black"/>
<path fill-rule="evenodd" clip-rule="evenodd" d="M89.1545 151.89C90.5657 151.414 91.0828 154.391 90.2626 154.944C88.458 156.161 88.8386 152.593 89.1545 151.89Z" fill="black"/>
<path fill-rule="evenodd" clip-rule="evenodd" d="M75.7749 143.779C75.757 144.174 75.7394 144.569 75.7208 144.962C75.7385 144.566 75.7564 144.172 75.7749 143.779Z" fill="black"/>
<path fill-rule="evenodd" clip-rule="evenodd" d="M123.017 162.129C123.002 162.534 122.988 162.939 122.972 163.343C122.986 162.937 123.002 162.533 123.017 162.129Z" fill="black"/>
<path fill-rule="evenodd" clip-rule="evenodd" d="M98.2832 144.717C98.2754 145.061 98.267 145.405 98.2581 145.746C98.2658 145.402 98.2748 145.059 98.2832 144.717Z" fill="black"/>
<path fill-rule="evenodd" clip-rule="evenodd" d="M254.377 138.801C257.303 138.707 260.567 137.606 263.442 137.956C264.234 138.053 266.056 138.252 264.788 139.426C264.181 139.988 261.278 139.697 260.399 139.884C255.027 141.021 248.929 141.754 243.421 141.66C240.842 141.615 238.245 141.409 235.668 141.273C233.092 141.136 232.839 140.09 235.737 139.757C238.747 139.411 241.835 139.539 244.86 139.536C248.04 139.532 251.204 139.013 254.377 138.801Z" fill="black"/>
<path fill-rule="evenodd" clip-rule="evenodd" d="M260.801 131.752C260.519 132.554 260.272 134.394 259.193 134.515C257.681 134.684 257.431 132.089 257.487 131.14C257.554 129.994 257.967 128.091 259.39 128.488C260.593 128.823 260.713 130.835 260.801 131.752Z" fill="black"/>
<path fill-rule="evenodd" clip-rule="evenodd" d="M251.651 131.165C251.872 130.307 251.98 128.371 253.195 128.305C254.552 128.232 254.939 130.249 254.93 131.215C254.922 132.132 254.582 133.865 253.502 134.077C252.037 134.364 251.906 132.146 251.651 131.165Z" fill="black"/>
<path fill-rule="evenodd" clip-rule="evenodd" d="M236.413 132.705C235.974 133.737 235.683 135.158 234.322 134.455C233.27 133.911 233.123 131.716 233.322 130.712C233.527 129.671 233.963 128.477 235.159 128.945C236.538 129.485 236.399 131.569 236.413 132.705Z" fill="black"/>
<path fill-rule="evenodd" clip-rule="evenodd" d="M247.953 131.752C246.656 135.684 244.29 133.024 245.188 130.088C246.127 127.02 247.833 130 247.953 131.752Z" fill="black"/>
<path fill-rule="evenodd" clip-rule="evenodd" d="M241.633 131.947C241.273 132.639 240.89 134.132 239.919 133.975C238.728 133.782 238.69 131.491 238.821 130.638C238.935 129.892 239.27 128.647 240.266 128.663C241.706 128.687 241.609 131.05 241.633 131.947Z" fill="black"/>
<path fill-rule="evenodd" clip-rule="evenodd" d="M267.505 132.701C266.54 134.868 265.211 133.002 265.637 131.463C266.267 129.181 267.45 131.203 267.505 132.701Z" fill="black"/>
<path fill-rule="evenodd" clip-rule="evenodd" d="M243.859 139.539C242.805 139.534 241.75 139.531 240.696 139.527C241.751 139.328 242.806 139.25 243.859 139.539Z" fill="black"/>
<path fill-rule="evenodd" clip-rule="evenodd" d="M264.814 137.947C263.899 137.953 262.985 137.959 262.071 137.965C262.984 137.691 263.898 137.685 264.814 137.947Z" fill="black"/>
<path fill-rule="evenodd" clip-rule="evenodd" d="M236.413 132.705C236.407 132.18 236.4 131.654 236.393 131.13C236.664 131.652 236.645 132.177 236.413 132.705Z" fill="black"/>
<path fill-rule="evenodd" clip-rule="evenodd" d="M242.151 141.649C242.576 141.653 243 141.656 243.421 141.66C242.995 141.656 242.573 141.653 242.151 141.649Z" fill="black"/>
<path fill-rule="evenodd" clip-rule="evenodd" d="M235.023 141.273C235.453 141.273 235.883 141.272 236.31 141.273C235.878 141.273 235.451 141.273 235.023 141.273Z" fill="black"/>
<path fill-rule="evenodd" clip-rule="evenodd" d="M238.548 139.584C237.95 139.633 237.352 139.682 236.755 139.731C237.353 139.682 237.95 139.633 238.548 139.584Z" fill="black"/>
<path fill-rule="evenodd" clip-rule="evenodd" d="M246.631 139.532C246.04 139.533 245.45 139.534 244.86 139.536C245.45 139.287 246.04 139.28 246.631 139.532Z" fill="black"/>
<path fill-rule="evenodd" clip-rule="evenodd" d="M241.633 131.947C241.618 131.399 241.604 130.851 241.59 130.304C241.605 130.852 241.619 131.4 241.633 131.947Z" fill="black"/>
<path fill-rule="evenodd" clip-rule="evenodd" d="M233.322 130.712C233.319 131.246 233.315 131.78 233.311 132.312C233.314 131.777 233.318 131.245 233.322 130.712Z" fill="black"/>
<path fill-rule="evenodd" clip-rule="evenodd" d="M257.732 138.602C257.21 138.65 256.688 138.697 256.167 138.744C256.689 138.697 257.21 138.65 257.732 138.602Z" fill="black"/>
<path fill-rule="evenodd" clip-rule="evenodd" d="M267.505 132.701C267.488 132.235 267.471 131.768 267.455 131.302C267.472 131.769 267.488 132.235 267.505 132.701Z" fill="black"/>
<path fill-rule="evenodd" clip-rule="evenodd" d="M245.305 141.664C245.668 141.657 246.031 141.65 246.391 141.644C246.026 141.651 245.665 141.658 245.305 141.664Z" fill="black"/>
<path fill-rule="evenodd" clip-rule="evenodd" d="M260.801 131.752C260.769 131.417 260.737 131.081 260.705 130.747C260.737 131.083 260.769 131.417 260.801 131.752Z" fill="black"/>
<path fill-rule="evenodd" clip-rule="evenodd" d="M247.952 131.752C247.929 131.408 247.906 131.063 247.882 130.72C247.906 131.064 247.929 131.408 247.952 131.752Z" fill="black"/>
<path fill-rule="evenodd" clip-rule="evenodd" d="M60.6395 30.5592C59.211 30.1844 58.9432 28.1768 59.1727 26.9438C59.4331 26.3496 59.6935 25.7556 59.9538 25.1614C59.8519 24.9417 59.7503 24.7219 59.6486 24.5022C59.7793 23.2785 59.4454 22.7467 60.8518 23.2423C63.4643 24.1636 63.8819 30.4648 60.6395 30.5592Z" fill="black"/>
<path fill-rule="evenodd" clip-rule="evenodd" d="M81.7855 26.6778C82.9624 26.5851 85.0999 27.9556 83.9285 29.2816C83.2027 30.1031 80.8111 29.7145 79.8354 29.8861C78.5414 30.1135 77.1918 30.4247 77.8918 28.4865C78.4415 26.9644 80.4048 26.638 81.7855 26.6778Z" fill="black"/>
<path fill-rule="evenodd" clip-rule="evenodd" d="M80.5472 35.7942C79.3518 34.8356 79.8854 30.4693 81.7046 31.2548C83.5761 32.0634 81.5446 35.1641 80.5472 35.7942Z" fill="black"/>
<path fill-rule="evenodd" clip-rule="evenodd" d="M59.1727 26.9438C59.1727 27.4032 59.1724 27.863 59.1715 28.3203C58.9222 27.86 58.93 27.4017 59.1727 26.9438Z" fill="black"/>
<path fill-rule="evenodd" clip-rule="evenodd" d="M60.6395 30.5592C60.8831 30.5524 61.127 30.5452 61.3676 30.5389C61.1228 30.5467 60.8813 30.553 60.6395 30.5592Z" fill="black"/>
<path fill-rule="evenodd" clip-rule="evenodd" d="M208.24 156.304C208.128 158.29 205.995 156.822 206.147 155.493C206.421 153.082 207.785 155.465 208.24 156.304Z" fill="black"/>
</svg>
